<svg width="126" height="26" viewBox="0 0 126 26" fill="none" xmlns="http://www.w3.org/2000/svg">
<path d="M9.77828 3.78908C8.3069 3.78908 7.88148 4.44168 7.88148 5.88106V8.26884H11.8062L11.4128 12.1265H7.883V23.8336H3.17302V12.1265H0V8.26884H3.17302V5.94662C3.17302 2.05544 4.742 6.0417e-05 9.11958 6.0417e-05C10.0369 -0.00207424 10.9536 0.0523584 11.8642 0.163209V3.79366L9.77828 3.78908Z" fill="#1877F2"/>
<path d="M12.1328 15.5603C12.1328 11.2117 14.1928 7.93652 18.5094 7.93652C20.8636 7.93652 22.3014 9.14718 22.9892 10.6506V8.26892H27.5008V23.8336H22.9892V21.4794C22.335 22.9844 20.8636 24.1614 18.5094 24.1614C14.1928 24.1614 12.1328 20.8908 12.1328 16.5377V15.5603ZM16.8413 16.6078C16.8413 18.9285 17.6906 20.4654 19.8816 20.4654C21.812 20.4654 22.7924 19.0596 22.7924 16.8365V15.2737C22.7924 13.0506 21.812 11.6447 19.8816 11.6447C17.6906 11.6447 16.8413 13.1817 16.8413 15.5024V16.6078Z" fill="#1877F2"/>
<path d="M37.3112 7.94092C39.141 7.94092 40.8746 8.3343 41.823 8.9869L40.777 12.3231C39.796 11.8559 38.724 11.6101 37.6376 11.6034C35.0866 11.6034 33.9782 13.0748 33.9782 15.5937V16.5085C33.9782 19.0274 35.0896 20.4988 37.6376 20.4988C38.724 20.492 39.796 20.2464 40.777 19.7792L41.823 23.1138C40.8746 23.768 39.1424 24.1614 37.3112 24.1614C31.784 24.1614 29.2666 21.185 29.2666 16.411V15.6913C29.2666 10.9172 31.784 7.94092 37.3112 7.94092Z" fill="#1877F2"/>
<path d="M42.4434 16.6457V15.2735C42.4434 10.8593 44.9608 7.95459 50.0962 7.95459C54.9358 7.95459 57.0612 10.8974 57.0612 15.214V17.6994H47.1502C47.2494 19.8249 48.1978 20.7732 50.8098 20.7732C52.577 20.7732 54.4402 20.4134 55.814 19.8249L56.6754 23.0498C55.4328 23.7054 52.8818 24.1948 50.6268 24.1948C44.6664 24.1932 42.4434 21.22 42.4434 16.6457ZM47.1518 14.6178H52.8422V14.2259C52.8422 12.5258 52.156 11.1764 50.0976 11.1764C47.9706 11.178 47.1518 12.5197 47.1518 14.6117V14.6178Z" fill="#1877F2"/>
<path d="M74.5146 16.5421C74.5146 20.8906 72.4226 24.1658 68.1106 24.1658C65.7564 24.1658 64.1218 22.9888 63.4676 21.4838V23.838H59.0214V0.452812L63.73 0.0258789V10.4247C64.416 9.05246 65.921 7.93938 68.1122 7.93938C72.4286 7.93938 74.516 11.21 74.516 15.5632L74.5146 16.5421ZM69.8062 15.4625C69.8062 13.2715 68.9568 11.6369 66.7002 11.6369C64.7698 11.6369 63.7238 13.0092 63.7238 15.2338V16.8684C63.7238 19.0915 64.7698 20.4652 66.7002 20.4652C68.9568 20.4652 69.8062 18.8307 69.8062 16.6397V15.4625Z" fill="#1877F2"/>
<path d="M76.0898 16.443V15.6593C76.0898 11.178 78.6408 7.94092 83.8402 7.94092C89.0396 7.94092 91.592 11.178 91.592 15.6593V16.443C91.592 20.9228 89.0412 24.1614 83.8418 24.1614C78.6422 24.1614 76.0898 20.9228 76.0898 16.443ZM86.882 15.3314C86.882 13.2715 86.0312 11.6369 83.8326 11.6369C81.6338 11.6369 80.7906 13.2715 80.7906 15.3314V16.7708C80.7906 18.8308 81.6414 20.4652 83.8326 20.4652C86.0236 20.4652 86.882 18.8308 86.882 16.7708V15.3314Z" fill="#1877F2"/>
<path d="M93.1582 16.443V15.6593C93.1582 11.178 95.7092 7.94092 100.909 7.94092C106.108 7.94092 108.659 11.178 108.659 15.6593V16.443C108.659 20.9228 106.108 24.1614 100.909 24.1614C95.7092 24.1614 93.1582 20.9228 93.1582 16.443ZM103.95 15.3314C103.95 13.2715 103.1 11.6369 100.909 11.6369C98.7174 11.6369 97.8682 13.2715 97.8682 15.3314V16.7708C97.8682 18.8308 98.7174 20.4652 100.909 20.4652C103.1 20.4652 103.95 18.8308 103.95 16.7708V15.3314Z" fill="#1877F2"/>
<path d="M115.133 15.6913L119.776 8.26874H124.778L119.907 15.9535L124.975 23.8334H119.972L115.133 16.2097V23.8334H110.423V0.452812L115.133 0.0258789V15.6913Z" fill="#1877F2"/>
</svg>
