<svg width="100" height="33" viewBox="0 0 100 33" fill="none" xmlns="http://www.w3.org/2000/svg">
<g clip-path="url(#clip0_256_289)">
<path d="M12.3154 0.00292969H13.2047C16.2919 0.0700438 19.3289 1.31165 21.5101 3.50964C20.7047 4.33179 19.8826 5.12038 19.094 5.94253C17.8691 4.83514 16.3926 3.97944 14.7819 3.67743C12.3993 3.17407 9.83221 3.62709 7.83557 4.98615C5.65436 6.41233 4.17785 8.82843 3.85906 11.4123C3.50671 13.9627 4.22819 16.6472 5.88926 18.6271C7.48322 20.5566 9.91611 21.7647 12.4329 21.8486C14.7819 21.9828 17.2315 21.2613 18.943 19.617C20.2852 18.4593 20.906 16.6976 21.1074 14.9862C18.3221 14.9862 15.5369 15.0029 12.7517 14.9862V11.5298H24.4799C25.0839 15.2378 24.2114 19.4157 21.3926 22.0667C19.5134 23.9459 16.9128 25.0533 14.2617 25.2714C11.6946 25.5231 9.04362 25.0365 6.76174 23.7949C4.02684 22.3351 1.84564 19.8687 0.77181 16.966C-0.234902 14.2982 -0.251681 11.2781 0.687917 8.59353C1.54362 6.14387 3.18792 3.97944 5.30201 2.46937C7.33221 0.976084 9.79866 0.153936 12.3154 0.00292969Z" fill="#3780FF"/>
<path d="M79.5973 0.875366H83.1879V24.8351C81.9966 24.8351 80.7886 24.8519 79.5973 24.8183C79.6141 16.8485 79.5973 8.86194 79.5973 0.875366Z" fill="#38B137"/>
<path d="M32.4664 9.1807C34.6812 8.76124 37.0805 9.23103 38.9094 10.5565C40.5705 11.731 41.7282 13.5767 42.0805 15.5901C42.5336 17.9223 41.9631 20.4726 40.453 22.3183C38.8255 24.382 36.1577 25.4894 33.557 25.3216C31.1745 25.1874 28.8591 23.9961 27.4497 22.0498C25.8557 19.9022 25.4698 16.9492 26.3423 14.4324C27.2148 11.731 29.6812 9.66728 32.4664 9.1807ZM32.9698 12.3686C32.0638 12.6035 31.2248 13.1237 30.6208 13.8619C28.9933 15.8082 29.094 18.9794 30.8893 20.7914C31.9128 21.8317 33.4564 22.3183 34.8825 22.033C36.2081 21.7981 37.3658 20.9089 38.0034 19.7344C39.1107 17.7377 38.7919 14.9861 37.0973 13.4257C36.0067 12.419 34.4127 11.9995 32.9698 12.3686Z" fill="#FA3913"/>
<path d="M50.2517 9.18071C52.7852 8.69414 55.5537 9.39883 57.4497 11.1774C60.5369 13.9458 60.8725 19.1304 58.2383 22.3183C56.6443 24.3317 54.0604 25.4391 51.5101 25.3217C49.0772 25.2545 46.6779 24.0465 45.2349 22.0498C43.6074 19.8519 43.255 16.8317 44.1779 14.2646C45.1007 11.6472 47.5168 9.65051 50.2517 9.18071ZM50.755 12.3686C49.849 12.6035 49.0101 13.1237 48.406 13.8451C46.7953 15.7579 46.8624 18.8787 48.5906 20.7076C49.6141 21.7982 51.2081 22.3351 52.6846 22.0331C53.9933 21.7814 55.1678 20.9089 55.8054 19.7344C56.896 17.721 56.5772 14.9693 54.8658 13.4089C53.7752 12.4022 52.1812 11.9995 50.755 12.3686Z" fill="#FCBD06"/>
<path d="M65.3356 10.1539C67.2651 8.94585 69.8322 8.61028 71.9128 9.65054C72.5671 9.93578 73.104 10.4224 73.6242 10.9089C73.6409 10.4559 73.6242 9.98612 73.6409 9.51632C74.7651 9.5331 75.8893 9.51632 77.0302 9.5331V24.3318C77.0134 26.5633 76.443 28.9291 74.8322 30.5566C73.0705 32.3519 70.3691 32.9056 67.9362 32.5364C65.3356 32.1505 63.0705 30.2546 62.0638 27.8552C63.0705 27.3687 64.1275 26.9828 65.1678 26.5297C65.755 27.9056 66.9463 29.0801 68.4396 29.3485C69.9329 29.617 71.6611 29.2479 72.6342 28.0063C73.6745 26.7311 73.6745 24.9861 73.6242 23.4257C72.8524 24.1807 71.9631 24.8519 70.8893 25.1036C68.5571 25.7579 65.9899 24.9526 64.1946 23.3754C62.3826 21.7982 61.3087 19.3653 61.4094 16.9492C61.4597 14.2143 63.0034 11.5801 65.3356 10.1539ZM68.8087 12.3016C67.7852 12.4693 66.8289 13.0398 66.1745 13.8284C64.5973 15.7076 64.5973 18.7109 66.1913 20.5566C67.0973 21.6472 68.5571 22.2512 69.9664 22.1002C71.292 21.966 72.5168 21.1271 73.1711 19.9693C74.2785 18.0063 74.094 15.3385 72.6007 13.6271C71.6779 12.57 70.2013 12.0499 68.8087 12.3016Z" fill="#3780FF"/>
<path d="M87.5 11.0096C89.5134 9.13039 92.6175 8.4928 95.2013 9.48273C97.651 10.4056 99.2114 12.7378 100 15.1371C96.3591 16.6472 92.7349 18.1405 89.094 19.6505C89.5973 20.6069 90.3691 21.4794 91.4094 21.8317C92.8691 22.3519 94.6141 22.1673 95.8389 21.1941C96.3255 20.825 96.7114 20.3384 97.0805 19.8686C98.0034 20.4894 98.9262 21.0935 99.849 21.7143C98.5403 23.6774 96.3423 25.0532 93.9765 25.2713C91.3591 25.5901 88.5738 24.5834 86.8792 22.5364C84.094 19.3149 84.3624 13.9123 87.5 11.0096ZM89.2953 14.1136C88.7248 14.9358 88.4899 15.9425 88.5067 16.9324C90.9396 15.9257 93.3725 14.919 95.8054 13.8955C95.4027 12.9559 94.4295 12.3854 93.4396 12.2344C91.8456 11.9492 90.1846 12.8049 89.2953 14.1136Z" fill="#FA3913"/>
</g>
<defs>
<clipPath id="clip0_256_289">
<rect width="100" height="32.64" fill="white"/>
</clipPath>
</defs>
</svg>
