<svg width="72" height="41" viewBox="0 0 72 41" fill="none" xmlns="http://www.w3.org/2000/svg">
<g clip-path="url(#clip0_256_397)">
<path fill-rule="evenodd" clip-rule="evenodd" d="M47.1423 41H37.3966V0H47.1423V41ZM33.9163 20.5498C33.9163 29.8824 26.3225 37.4345 16.9669 37.4345C7.61061 37.4345 0.00432014 29.87 0.00432014 20.5498C0.00432014 11.2296 7.59812 3.66438 16.9537 3.66438C26.31 3.66438 33.9163 11.2164 33.9163 20.5498ZM22.0819 20.5498C22.0825 19.8795 21.9504 19.2157 21.6931 18.5964C21.4359 17.9771 21.0587 17.4144 20.5829 16.9406C20.1072 16.4668 19.5423 16.0912 18.9207 15.8352C18.2991 15.5792 17.6329 15.448 16.9603 15.4489C16.2877 15.448 15.6215 15.5792 14.9999 15.8352C14.3783 16.0912 13.8135 16.4668 13.3377 16.9406C12.862 17.4144 12.4847 17.9771 12.2275 18.5964C11.9703 19.2157 11.8382 19.8795 11.8388 20.5498C11.8383 21.2199 11.9704 21.8836 12.2276 22.5028C12.4848 23.1219 12.8621 23.6845 13.3377 24.1582C13.8134 24.6319 14.3781 25.0075 14.9996 25.2635C15.6211 25.5195 16.2871 25.6508 16.9596 25.6499C17.6322 25.651 18.2984 25.5198 18.92 25.2639C19.5417 25.008 20.1066 24.6325 20.5824 24.1587C21.0582 23.685 21.4356 23.1224 21.6929 22.5031C21.9502 21.8838 22.0824 21.22 22.0819 20.5498ZM71.8794 10.2998H65.4024L61.5996 14.0842L57.7968 10.2991H51.3183V16.8591L55.0704 20.593L51.3183 24.3276V30.7998H57.8975L61.6113 27.1032L65.3252 30.7998H71.9044V24.3276L68.1523 20.5937L71.9044 16.8598V10.2998H71.8787H71.8794Z" fill="#002F34"/>
</g>
<defs>
<clipPath id="clip0_256_397">
<rect width="72" height="41" fill="white"/>
</clipPath>
</defs>
</svg>
