<svg width="89" height="31" viewBox="0 0 89 31" fill="none" xmlns="http://www.w3.org/2000/svg">
<path d="M89 15.5308C89.0305 23.9692 82.1057 31.0923 73.4095 31C64.9348 30.9077 58.0405 23.8615 58.1779 15.2384C58.3154 6.76152 65.3242 -0.176939 73.9287 -1.62441e-05C82.266 0.176907 89.0534 7.10768 89 15.5308ZM79.0823 15.5154C79.0899 12.5384 76.6315 9.99998 73.7302 9.99229C70.6228 9.9846 68.1186 12.4077 68.1109 15.4308C68.1033 18.4846 70.5465 21.0077 73.5164 21.0154C76.5933 21.0154 79.0746 18.5692 79.0823 15.5154Z" fill="#E6312B"/>
<path d="M30.8144 15.4922C30.8144 24.1384 23.9201 31.0307 15.2316 30.9922C6.84081 30.9461 -0.129851 23.9692 -5.74028e-05 15.2384C0.137371 6.67685 7.19202 -0.176991 15.7431 -6.82056e-05C24.1262 0.184547 30.8602 7.14608 30.8144 15.4922ZM20.8814 15.4922C20.8814 12.4922 18.423 9.99224 15.4759 9.99224C12.3914 9.99224 9.93294 12.4307 9.93294 15.5076C9.93294 18.5384 12.399 21.0076 15.4148 21.0076C18.4306 21.0076 20.889 18.5307 20.8814 15.4922Z" fill="#E6312B"/>
<path d="M44.5115 9.71539C44.8856 8.96924 45.2444 8.26155 45.6033 7.54616C46.7561 5.24616 47.9166 2.94616 49.0619 0.646163C49.1764 0.415393 49.3138 0.346163 49.5581 0.346163C53.0015 0.353855 56.4448 0.353855 59.8881 0.353855C60.3157 0.353855 60.3157 0.353855 60.1172 0.761547C56.9716 7.03078 53.8337 13.3154 50.6499 19.5692C50.1537 20.5385 49.9093 21.4923 49.9399 22.5923C50.0009 25.1462 49.9551 27.7077 49.9628 30.2615C49.9628 30.5692 49.8941 30.6692 49.5734 30.6692C46.1911 30.6539 42.8089 30.6539 39.4266 30.6692C39.1136 30.6692 39.022 30.6 39.0296 30.2769C39.0449 27.2846 39.0372 24.2923 39.0372 21.3C39.0372 21.1077 39.0143 20.9308 38.9303 20.7462C37.0369 16.9769 35.1434 13.2154 33.25 9.44616C31.7917 6.53847 30.3335 3.63078 28.8752 0.730778C28.6843 0.353855 28.6843 0.346163 29.0966 0.346163C32.5399 0.346163 35.9833 0.346163 39.4266 0.33847C39.7167 0.33847 39.8465 0.446163 39.9687 0.692317C41.4346 3.63078 42.9158 6.56924 44.3893 9.5077C44.4198 9.56924 44.4504 9.61539 44.5115 9.71539Z" fill="#E6312B"/>
</svg>
