<svg width="552" height="552" viewBox="0 0 552 552" fill="none" xmlns="http://www.w3.org/2000/svg">
<path d="M190.85 471.128C174.495 475.647 157.45 477.048 140.523 478.245C116.481 479.938 92.4282 481.274 68.3427 482.235C59.8473 482.579 51.2438 482.858 42.9099 481.156C38.7267 454.71 36.4519 427.401 36.2255 400.08C36.1177 387.219 36.4842 374.184 40.0745 361.84C43.6645 349.495 50.8234 337.743 61.7662 330.983C72.9573 324.063 86.6925 323.016 99.8349 322.326C133.893 320.548 168.727 320.04 203.41 331.209C204.349 345.657 206.408 360.029 209.567 374.151C193.566 371.575 177.244 371.078 162.689 373.472C162.981 398.161 164.242 422.828 166.463 447.411C166.765 450.752 167.121 454.213 168.738 457.157C170.571 460.499 173.816 462.795 177.072 464.767C181.654 467.561 186.484 469.932 190.85 471.128Z" fill="#99C2FF"/>
<path d="M164.791 260.485C164.425 273.575 162.765 286.738 158.333 299.061C157.158 302.338 155.671 305.703 152.889 307.782C151.412 308.894 149.633 309.573 147.833 310.025C144.156 310.975 140.264 311.072 136.534 310.316C135.93 313.832 135.003 317.378 133.849 320.903C133.213 322.856 132.523 324.806 131.779 326.725C131.143 328.354 130.41 330.068 128.965 331.049C127.973 331.717 126.766 331.954 125.58 332.041C119.338 332.505 113.473 329.066 108.686 325.054C106.325 323.082 104.082 320.914 102.616 318.219C101.182 315.578 100.589 312.57 100.18 309.595C99.2091 302.63 99.2091 295.568 99.22 288.538C99.22 281.369 97.1284 274.857 98.6808 268.357C100.223 261.865 103.004 255.731 106.055 249.791C109.365 243.366 113.203 236.896 119.155 232.789C123.683 229.661 129.127 228.142 134.528 227.161C137.957 226.524 141.526 226.105 144.889 227.052C149.288 228.292 152.684 231.722 155.735 235.128C158.635 238.363 161.46 241.78 163.045 245.824C164.856 250.437 164.932 255.526 164.791 260.485Z" fill="#FFC5A6"/>
<path d="M136.533 310.316C135.929 313.83 135.002 317.378 133.848 320.903C125.299 315.426 122.841 303.514 122.841 303.514C130.97 309.335 136.533 310.316 136.533 310.316Z" fill="#FF9F6B"/>
<path d="M97.9912 302.264C109.107 296.496 117.646 285.962 121.02 274.394C118.023 273.91 115.306 271.882 114.001 269.144C112.697 266.406 112.816 263.021 114.336 260.378C115.015 259.203 115.996 258.135 117.279 257.694C119.306 256.993 121.613 258.04 122.982 259.677C124.351 261.317 124.998 263.44 125.527 265.521C126.475 269.273 127.187 273.089 127.629 276.938C127.877 279.062 128.136 281.38 129.667 282.869C131.931 278.232 133.171 273.144 135.434 268.508C137.688 263.873 141.321 259.484 146.313 258.18C149.849 257.252 153.579 257.985 157.234 257.898C165.04 257.727 172.511 253.727 177.632 247.83C182.753 241.932 185.621 234.298 185.794 226.817C180.047 229.588 173.126 228.456 167.261 225.965C161.385 223.474 156.124 219.722 150.313 217.103C144.232 214.364 137.591 212.888 130.928 212.79C127.478 212.746 123.985 213.07 120.751 214.288C117.516 215.497 114.562 217.652 112.805 221.157C108.805 219.4 104.223 217.965 100.137 219.506C98.2608 220.208 96.6651 221.49 95.2527 222.914C88.7625 229.512 86.2721 239.086 85.4958 248.304C83.8679 267.172 88.4714 286.512 97.9912 302.264Z" fill="#203752"/>
<path d="M114.13 435.51C117.709 406.765 122.043 378.12 127.121 349.604C124.189 345.506 121.127 341.313 117.418 337.625C118.227 335.189 119.046 332.731 120.361 330.521C121.677 328.311 123.531 326.337 125.914 325.356C128.264 324.386 130.905 324.462 133.45 324.548C135.175 324.602 137.061 324.73 137.525 325.96C138.689 329.56 139.854 333.161 140.673 336.063C139.649 340.536 138.086 344.891 136.501 348.73C137.665 380.913 138.851 413.31 145.902 444.737C146.129 445.718 146.344 446.796 145.934 447.712C145.654 448.338 145.115 448.813 144.554 449.223C140.522 452.112 134.959 452.176 130.302 450.452C125.644 448.726 121.741 445.438 118.194 441.966C115.919 439.767 113.957 436.867 114.13 435.51Z" fill="#99C2FF"/>
<path d="M464.489 498.773C486.774 455.096 509.501 408.533 503.28 381.311C501.253 372.438 495.011 364.988 488.229 358.929C480.424 351.964 470.893 346.928 460.738 344.417C453.115 342.531 445.072 342.003 437.923 338.746C433.783 336.86 430.087 334.111 425.967 332.192C421.053 329.895 415.639 328.837 410.647 326.703C402.367 323.178 395.598 316.892 389.29 310.478C379.888 300.915 371.071 290.77 363.07 279.632C359.587 285.045 354.822 289.487 350.963 294.63C347.103 299.771 344.083 306.079 344.98 312.439C345.605 316.903 348.084 320.859 350.575 324.611C360.721 339.889 372.147 354.314 384.287 367.231C368.979 403.703 356.634 441.416 347.686 482.062C350.888 483.71 394.842 498.773 464.489 498.773Z" fill="#99C2FF"/>
<path d="M500.649 268.657C500.811 276.462 497.232 283.923 492.542 290.166C487.841 296.396 482.019 301.701 476.801 307.503C471.572 313.324 466.839 319.867 464.985 327.457C463.443 329.949 462.118 332.966 460.78 335.975C458.808 340.461 456.651 345.182 452.598 347.942C449.385 350.141 445.341 350.811 441.438 350.875C436.857 350.939 432.124 350.185 428.264 347.727C424.405 345.258 421.59 340.838 421.956 336.277C422.107 334.293 422.83 332.418 423.607 330.585C423.715 330.337 423.822 330.089 423.93 329.84C426.506 323.857 429.105 317.884 431.682 311.9C427.909 310.165 424.523 308.419 422.065 305.637C418.701 301.799 417.581 296.376 418.011 291.276C418.464 286.188 420.308 281.325 422.28 276.615C427.574 263.957 433.923 251.73 441.212 240.098C451.422 241.855 459.66 244.129 467.918 246.394C474.806 248.291 481.729 250.199 488.305 252.993C492.272 254.685 496.305 256.873 498.537 260.55C500.024 262.975 500.596 265.843 500.649 268.657Z" fill="#FFC5A6"/>
<path d="M449.534 316.863C443.929 320.182 438.323 323.481 432.716 326.802C429.87 328.484 426.895 330.208 423.618 330.587C423.724 330.339 423.833 330.09 423.94 329.842C426.518 323.858 429.116 317.886 431.692 311.902C435.605 313.735 442.354 315.924 449.534 316.863Z" fill="#FF9F6B"/>
<path d="M464.661 328.278C463.238 326.477 462.353 324.309 461.654 322.121C458.903 313.507 458.764 304.073 461.255 295.384C465.923 296.15 471.54 294.823 474.882 291.049C478.223 287.277 478.72 281.077 475.53 277.174C474.968 276.495 474.31 275.88 473.544 275.45C471.345 274.199 468.597 274.545 466.182 275.288C461.524 276.732 457.308 279.59 454.235 283.384C456.392 278.188 456.716 272.182 454.774 266.975C450.581 255.731 437.267 249.8 433.353 238.458C430.291 229.575 433.999 219.538 441.871 211.97C443.315 216.303 446.721 219.775 450.603 222.189C454.484 224.605 458.861 226.103 463.185 227.569C468.175 229.262 473.167 230.955 478.159 232.648C482.354 234.07 486.612 235.527 490.224 238.092C493.836 240.659 496.769 244.529 496.984 249.035C505.597 248.702 513.274 256.01 515.204 264.421C517.134 272.83 514.212 281.757 509.307 288.84C504.401 295.935 497.652 301.508 490.989 306.984C482.321 314.121 473.664 321.247 464.661 328.278Z" fill="#203752"/>
<path d="M368.653 464.628C371.231 470.427 373.408 476.402 375.165 482.503C377.807 482.319 380.135 480.746 382.302 479.226C386.702 476.153 391.111 473.092 395.51 470.019C403.444 435.195 412.556 399.228 422.021 363.359C422.236 362.541 422.451 361.72 422.862 360.977C423.487 359.834 424.501 358.96 425.482 358.108C429.32 354.831 433.158 351.554 436.996 348.277C436.963 343.835 436.996 339.771 437.028 335.717C434.882 334.552 432.468 333.689 430.01 332.924C428.803 332.547 427.574 332.192 426.312 332.159C424.113 332.116 421.978 333.086 420.241 334.444C418.506 335.802 417.115 337.539 415.735 339.263C415.316 345.009 414.959 350.691 414.743 356.211C397.569 390.625 381.914 425.794 368.653 464.628Z" fill="#203752"/>
<path d="M464.284 328.3C463.367 334.037 463.194 339.901 463.778 345.681C450.914 348.139 438.603 353.389 427.918 360.957C428.415 352.224 428.177 343.622 427.423 335.06C421.805 341.432 416.847 348.365 412.631 355.729C411.402 349.841 411.531 343.944 412.48 338.198C417.439 332.28 422.345 326.705 427.37 321.24C428.026 324.732 428.532 327.805 428.739 331.18C440.575 328.593 452.78 327.752 464.284 328.3Z" fill="#99C2FF"/>
<path d="M341.303 369.592C331.837 366.703 321.174 368.029 312.712 373.15C304.248 378.26 298.113 387.09 296.258 396.803C295.462 401.01 295.473 405.547 297.445 409.354C299.407 413.128 303.072 415.757 306.954 417.503C312.108 419.822 317.854 420.836 323.503 420.394C329.336 419.941 336.655 418.626 339.761 423.585C341.022 425.59 341.088 428.102 341.097 430.474C341.108 442.969 340.343 455.453 338.792 467.853C338.468 470.44 337.94 473.329 335.804 474.849C334.403 475.842 332.602 476.025 330.889 476.144C315.212 477.254 299.418 476.617 283.882 474.245C282.749 474.074 281.586 473.868 280.67 473.2C278.534 471.616 278.793 468.446 278.933 465.794C279.516 454.958 273.952 443.885 264.658 438.27C255.366 432.652 242.709 432.976 233.965 439.412C224.898 446.086 221.059 457.556 214.989 467.044C199.345 466.549 183.983 465.987 168.619 465.426C166.517 465.351 164.296 465.233 162.571 464.037C160.059 462.3 159.434 458.914 159.067 455.886C157.051 439.186 156.782 422.28 158.248 405.527C167.488 407.133 176.102 407.014 184.015 404.393C191.928 401.775 199.099 396.513 203.281 389.3C205.027 386.293 206.257 382.852 205.933 379.402C205.717 377.064 204.801 374.843 203.658 372.784C199.842 365.884 193.319 360.535 185.805 358.132C178.29 355.727 169.881 356.31 162.765 359.716C161.472 350.185 161.31 340.139 161.871 330.122C162.658 316.106 162.302 310.866 169.676 310.866C190.602 310.866 211.519 309.584 232.37 310.586C229.943 304.969 229.188 298.63 230.234 292.604C230.773 289.465 231.831 286.35 233.759 283.827C237.619 278.804 244.315 276.863 250.632 276.355C256.842 275.86 263.236 276.464 268.971 278.9C274.706 281.338 279.753 285.704 282.276 291.395C284.874 297.239 284.69 303.902 284.249 310.274C297.401 309.885 310.544 309.271 323.794 308.689C332.429 327.814 338.155 348.246 341.303 369.592Z" fill="#203752"/>
<path d="M363.049 92.5245C351.103 80.7623 338.273 69.8947 324.699 60.0623C320.096 56.72 315.039 53.3778 309.357 53.2378C301.606 53.0328 295.062 58.7469 289.769 64.4178C282.481 72.2234 275.86 80.6545 270.007 89.5921C268.896 91.2739 267.786 93.1284 267.871 95.1445C268.002 98.0015 270.471 100.125 272.767 101.829C278.287 105.926 284.151 109.828 288.14 115.424C295.677 126 294.49 141.903 285.456 151.228C276.421 160.554 260.574 162.279 249.76 155.088C244.854 151.821 240.111 146.754 234.278 147.585C230.839 148.07 228.079 150.56 225.588 152.975C213.598 164.608 202.549 177.211 192.597 190.624C190.819 193.016 188.985 195.776 189.384 198.731C189.719 201.189 191.518 203.151 193.233 204.941C206.849 219.129 220.725 233.069 234.848 246.772C237.954 249.78 242.256 253.015 246.17 251.182C248.542 250.071 249.749 247.495 251.053 245.23C256.906 235.128 268.552 228.552 280.206 229.198C291.861 229.845 302.879 237.91 306.608 248.972C310.34 260.032 306.264 273.369 296.744 280.118C294.63 281.617 291.968 283.45 292.356 286.004C292.551 287.277 293.487 288.28 294.384 289.196C308.991 304.117 324.915 317.766 341.918 329.906C343.114 330.769 344.558 331.664 345.972 331.233C346.866 330.963 347.514 330.219 348.117 329.518C361.808 313.422 375.502 297.326 389.193 281.229C392.987 276.765 396.987 270.598 394.034 265.532C392.59 263.074 389.872 261.725 387.403 260.292C377.592 254.599 369.658 245.209 367.124 234.147C364.591 223.085 368.052 210.514 376.816 203.324C387.307 194.72 403.532 195.379 414.788 202.946C418.55 205.48 422.065 208.757 426.518 209.631C430.97 210.503 451.562 184.339 459.132 174.581C461.104 172.036 463.174 168.921 462.215 165.848C461.364 163.11 458.484 161.654 455.908 160.393C440.835 153.04 427.241 142.701 416.136 130.13C424.643 126.184 430.152 116.966 430.571 107.597C430.992 98.2278 429.095 84.525 417.958 74.7787C407.91 65.9919 379.329 58.8871 363.049 92.5245Z" fill="#99C2FF"/>
<path d="M208.111 449.838C213.254 449.341 218.342 448.134 223.151 446.246C224.962 445.536 226.839 444.715 228.767 444.921C231.139 445.168 233.155 447.002 234.116 449.19C235.075 451.378 235.119 453.869 234.784 456.23C233.965 462.107 230.837 467.627 226.224 471.345C221.609 475.064 215.55 476.952 209.642 476.499C206.602 476.262 203.346 475.248 201.664 472.714C199.507 469.48 200.65 465.146 201.966 461.481C203.454 457.286 205.329 452.833 208.111 449.838Z" fill="#FFC5A6"/>
<path d="M337.842 289.476C335.923 277.143 332.808 264.991 328.57 253.252C328.031 251.775 327.417 250.211 326.143 249.305C324.073 247.828 321.012 248.733 319.288 250.599C317.562 252.465 316.84 255.03 316.173 257.477C313.703 252.087 305.283 251.116 301.239 255.451C299.32 257.51 298.393 260.281 297.509 262.965C295.73 268.399 293.995 274.522 296.593 279.612C300.161 286.608 309.972 287.934 314.759 294.166C316.117 295.935 317.078 298.102 318.942 299.32C321.001 300.667 323.772 300.505 326.026 299.502C328.28 298.5 330.112 296.775 331.836 295.018C333.929 292.904 335.954 290.727 337.842 289.476Z" fill="#FFC5A6"/>
<path d="M96.8691 363.382C115.704 382.335 125.795 408.405 143.66 428.275C146.775 431.747 150.236 435.088 154.56 436.845C156.759 437.741 159.109 438.194 161.449 438.603C178.192 441.513 195.292 442.387 212.034 440.435C213.685 444.262 214.914 446.894 215.808 450.754C216.132 452.176 216.66 453.762 216.875 455.207C217.188 457.363 217.361 459.735 217.372 461.912C217.392 465.783 217.414 469.976 216.746 473.804C216.378 475.896 216.174 478.159 215.733 480.176C215.549 481.027 215.269 481.318 214.601 481.717C212.143 483.195 208.864 483.712 206.19 484.726C202.623 486.073 198.72 486.148 194.946 486.352C191.561 486.536 188.164 486.763 184.789 486.816C183.259 486.838 181.847 487.249 180.316 487.302C178.526 487.355 176.694 487.41 174.904 487.302C170.225 487.042 165.524 486.419 160.91 485.62C159.293 485.34 157.654 485.318 156.026 485.092C154.031 484.822 151.994 484.316 150.01 483.938C145.557 483.086 141.051 481.815 136.749 480.391C131.951 478.807 127.682 476.315 123.089 474.3C119.089 472.543 115.025 470.569 111.661 467.767C106.712 463.638 102.669 458.732 98.357 453.967C94.8207 450.053 91.4354 445.999 87.8452 442.139C83.3494 437.298 80.1798 431.314 76.6326 425.805C75.2635 423.682 73.7433 421.849 72.622 419.573C71.1559 416.62 69.0535 413.505 68.6115 410.173C67.2961 400.362 70.6922 391.305 75.4359 382.939C78.5087 377.527 81.1392 371.954 85.4302 367.362C88.5998 363.965 92.6105 360.482 97.1387 359.091C96.6859 359.242 96.2546 359.404 96.8691 363.382Z" fill="#99C2FF"/>
<path d="M458.051 438.722C437.178 441.547 416.123 443.681 395.068 442.98C387.392 442.722 379.629 442.075 372.416 439.455C361.808 435.616 353.021 427.713 346.487 418.517C339.955 409.321 335.491 398.831 331.533 388.266C320.937 359.954 313.626 330.412 309.788 300.42C309.615 299.094 309.486 297.638 310.241 296.538C310.791 295.73 311.718 295.278 312.612 294.856C322.434 290.264 332.516 286.232 342.639 282.813C354.616 310.145 360.817 340.709 379.511 363.954C383.671 369.128 388.481 373.916 394.292 377.15C403.359 382.207 414.182 383.112 424.554 382.455C434.915 381.796 445.157 379.684 455.518 379.145C460.101 378.907 465.308 379.242 468.306 382.724C470.138 384.858 470.742 387.78 471.086 390.584C473.276 408.307 467.616 426.852 458.051 438.722Z" fill="#99C2FF"/>
<path d="M136.965 313.131C140.889 315.321 143.153 318.372 145.309 322.305C144.835 329.432 143.692 336.926 141.665 344.181C138.614 337.53 134.582 331.331 129.731 325.853C123.93 331.147 119.833 337.949 117.257 345.293C108.459 337.929 100.222 330.716 92.0068 323.492C94.1092 318.274 96.9877 311.223 99.9203 307.687C104.686 311.201 116.168 321.378 130.043 323.568C133.083 320.894 135.164 316.916 136.965 313.131Z" fill="#99C2FF"/>
<path d="M93.6561 325.474C101.882 331.189 109.537 337.657 116.566 344.794C117.03 345.269 117.946 345.182 118.259 344.557C121.526 338.002 125.536 331.868 130.248 326.261C129.741 326.261 129.234 326.272 128.728 326.272C133.967 330.812 137.967 336.611 140.242 343.156C140.598 344.19 141.956 344.201 142.323 343.165C144.662 336.567 146.107 329.722 146.7 322.758C146.818 321.367 144.662 321.367 144.544 322.747C143.972 329.527 142.517 336.19 140.242 342.617C140.932 342.617 141.633 342.617 142.323 342.626C139.908 335.717 135.768 329.538 130.226 324.742C129.816 324.385 129.094 324.278 128.706 324.753C123.876 330.499 119.736 336.773 116.383 343.489C116.944 343.414 117.515 343.338 118.076 343.252C110.928 335.986 103.101 329.41 94.7234 323.588C93.5806 322.8 92.5241 324.677 93.6561 325.474Z" fill="#203752"/>
<path d="M119.716 341.798C121.323 344.106 122.94 346.413 124.546 348.72C125.279 349.777 125.808 350.467 127.188 350.422C128.6 350.38 130.001 350.294 131.414 350.24C132.761 350.176 134.109 350.165 135.457 350.056C136.804 349.959 137.3 349.249 137.742 348.04C138.734 345.335 139.683 342.617 140.653 339.901C141.117 338.597 139.036 338.047 138.573 339.34C137.796 341.519 137.009 343.706 136.233 345.885C136.039 346.413 135.877 346.963 135.662 347.48C135.424 348.04 135.133 347.911 134.551 347.933C133.387 347.986 132.222 348.04 131.058 348.084C129.958 348.137 128.848 348.181 127.748 348.235C127.554 348.246 127.198 348.332 127.015 348.268C126.745 348.181 126.681 348.019 126.508 347.782C126.196 347.329 125.883 346.877 125.56 346.424C124.233 344.514 122.897 342.617 121.57 340.709C120.794 339.589 118.918 340.656 119.716 341.798Z" fill="#203752"/>
<path d="M125.214 350.757C123.241 364.719 121.268 378.692 119.295 392.654C119.101 394.012 121.182 394.583 121.376 393.214C123.349 379.252 125.322 365.281 127.295 351.319C127.489 349.959 125.408 349.377 125.214 350.757Z" fill="#203752"/>
<path d="M135.457 349.517C135.899 369.128 137.117 388.729 139.144 408.243C139.715 413.72 140.341 419.196 141.031 424.663C141.203 426.043 143.284 425.482 143.122 424.124C140.696 404.837 139.047 385.462 138.174 366.046C137.926 360.546 137.743 355.048 137.624 349.539C137.581 348.148 135.425 348.137 135.457 349.517Z" fill="#203752"/>
<path d="M160.651 365.27C162.387 380.503 162.926 395.856 162.268 411.176C162.215 412.567 164.371 412.567 164.425 411.187C165.082 395.867 164.532 380.514 162.807 365.281C162.657 363.912 160.49 363.89 160.651 365.27Z" fill="#203752"/>
<path d="M66.3149 346.143C92.783 351.512 107.575 377.15 121.256 397.904C125.245 403.963 129.245 410.022 133.234 416.081C136.695 421.33 139.994 426.906 144.501 431.336C153.126 439.799 165.449 441.363 176.963 442.064C191.41 442.947 206.676 443.929 220.379 438.354C221.65 437.837 221.122 435.745 219.84 436.264C207.528 441.265 194.041 440.823 181.017 440.133C169.513 439.519 156.489 439.013 147.347 431.035C142.517 426.819 139.175 421.191 135.692 415.897C131.703 409.838 127.703 403.779 123.714 397.72C116.394 386.604 109.364 375.089 100.459 365.139C91.5432 355.166 80.2012 346.757 66.8756 344.05C65.5171 343.782 64.9565 345.863 66.3149 346.143Z" fill="#203752"/>
<path d="M66.5085 415.196C78.8315 430.03 91.1868 444.919 105.052 458.364C111.811 464.918 118.884 471.399 126.711 476.659C134.377 481.813 142.915 485.037 152.025 486.535C162.408 488.238 172.963 488.023 183.442 487.753C184.833 487.721 184.844 485.565 183.453 485.598C165.146 486.071 146.085 486.222 129.989 476.218C122.086 471.312 115.067 464.94 108.35 458.546C101.515 452.046 95.0465 445.168 88.7826 438.117C81.6885 430.117 74.8533 421.892 68.0179 413.665C67.1446 412.598 65.6352 414.129 66.5085 415.196Z" fill="#203752"/>
<path d="M347.662 298.253C350.509 310.5 354.507 322.456 359.608 333.949C364.2 344.29 369.505 354.553 376.609 363.415C383.38 371.857 392.049 378.639 402.581 381.57C414.053 384.773 426.278 383.684 437.815 381.452C452.079 378.692 466.072 374.131 480.692 373.722C482.082 373.678 482.093 371.522 480.702 371.566C456.37 372.245 432.941 384.74 408.371 380.643C397.396 378.821 388.113 373.161 380.727 364.957C373.354 356.763 368.005 346.877 363.326 336.957C357.409 324.398 352.881 311.223 349.732 297.714C349.431 296.356 347.35 296.906 347.662 298.253Z" fill="#203752"/>
<path d="M393.839 346.542C389.118 353.411 385.301 360.839 382.4 368.644C381.916 369.949 384.006 370.499 384.481 369.205C387.316 361.571 391.101 354.316 395.705 347.609C396.502 346.466 394.627 345.399 393.839 346.542Z" fill="#203752"/>
<path d="M343.523 415.476C348.115 422.668 354.174 428.834 361.27 433.578C368.88 438.667 377.495 441.782 386.498 443.293C396.804 445.017 407.338 445.114 417.752 444.586C427.563 444.089 437.449 443.324 447.163 441.847C457.233 440.316 467.292 437.546 475.765 431.692C476.897 430.904 475.83 429.038 474.687 429.826C467.379 434.871 458.882 437.567 450.213 439.162C441.008 440.855 431.583 441.545 422.258 442.17C403.284 443.433 382.518 443.572 365.581 433.728C357.442 428.996 350.476 422.344 345.409 414.408C344.643 413.235 342.768 414.302 343.523 415.476Z" fill="#203752"/>
<path d="M425.266 322.21C423.218 324.646 421.169 327.082 419.11 329.518C417.397 331.557 415.207 333.605 414.226 336.128C413.246 338.661 413.374 341.561 413.148 344.225C412.868 347.458 412.48 350.682 411.972 353.885C411.821 354.866 412.986 355.782 413.785 354.919C419.467 348.807 423.853 341.703 428.177 334.608C427.509 334.424 426.83 334.253 426.161 334.069C426.571 342.326 426.97 350.597 427.379 358.855C427.412 359.481 428.037 360.16 428.727 359.9C440.413 355.534 452.112 351.168 463.798 346.812C465.093 346.327 464.554 344.235 463.259 344.72C451.573 349.087 439.874 353.453 428.188 357.808C428.641 358.154 429.082 358.509 429.535 358.855C429.127 350.597 428.727 342.326 428.317 334.069C428.264 333.001 426.884 332.58 426.3 333.529C422.076 340.463 417.805 347.427 412.254 353.4C412.857 353.744 413.461 354.09 414.064 354.434C414.506 351.642 414.874 348.829 415.154 346.014C415.422 343.254 415.26 340.225 416.026 337.541C416.782 334.92 419.11 332.839 420.825 330.814C422.819 328.44 424.814 326.079 426.808 323.708C427.691 322.662 426.161 321.143 425.266 322.21Z" fill="#203752"/>
<path d="M309.282 253.747C310.877 254.082 312.375 254.772 313.604 255.85C314.953 257.037 315.76 258.557 316.559 260.13C318.208 263.376 320.333 266.298 323.071 268.701C324.105 269.617 325.627 268.086 324.58 267.17C323.179 265.932 321.884 264.561 320.796 263.052C319.674 261.499 318.833 259.806 317.939 258.124C316.224 254.869 313.497 252.422 309.832 251.668C308.483 251.386 307.913 253.467 309.282 253.747Z" fill="#203752"/>
</svg>
