<svg width="242" height="70" viewBox="0 0 242 70" fill="none" xmlns="http://www.w3.org/2000/svg">
<path d="M18.135 18.545V42.35C18.135 44.75 17.4 46.685 15.93 48.155C14.46 49.595 12.495 50.315 10.035 50.315C7.485 50.315 5.445 49.55 3.915 48.02C2.415 46.46 1.665 44.36 1.665 41.72H4.86C4.89 43.43 5.31 44.825 6.12 45.905C6.96 46.985 8.265 47.525 10.035 47.525C11.715 47.525 12.96 47.03 13.77 46.04C14.58 45.05 14.985 43.82 14.985 42.35V18.545H18.135ZM36.8111 50.36C34.5011 50.36 32.4161 49.85 30.5561 48.83C28.7261 47.78 27.2711 46.31 26.1911 44.42C25.1411 42.5 24.6161 40.265 24.6161 37.715C24.6161 35.165 25.1561 32.945 26.2361 31.055C27.3161 29.135 28.7861 27.665 30.6461 26.645C32.5061 25.595 34.5911 25.07 36.9011 25.07C39.2111 25.07 41.2961 25.595 43.1561 26.645C45.0461 27.665 46.5161 29.135 47.5661 31.055C48.6461 32.945 49.1861 35.165 49.1861 37.715C49.1861 40.235 48.6461 42.455 47.5661 44.375C46.4861 46.295 45.0011 47.78 43.1111 48.83C41.2211 49.85 39.1211 50.36 36.8111 50.36ZM36.8111 47.615C38.4311 47.615 39.9311 47.255 41.3111 46.535C42.6911 45.785 43.8011 44.675 44.6411 43.205C45.5111 41.705 45.9461 39.875 45.9461 37.715C45.9461 35.555 45.5261 33.74 44.6861 32.27C43.8461 30.77 42.7361 29.66 41.3561 28.94C39.9761 28.19 38.4761 27.815 36.8561 27.815C35.2361 27.815 33.7361 28.19 32.3561 28.94C30.9761 29.66 29.8661 30.77 29.0261 32.27C28.2161 33.74 27.8111 35.555 27.8111 37.715C27.8111 39.875 28.2161 41.705 29.0261 43.205C29.8661 44.675 30.9611 45.785 32.3111 46.535C33.6911 47.255 35.1911 47.615 36.8111 47.615ZM58.0331 30.875C58.8431 29.165 60.0881 27.77 61.7681 26.69C63.4781 25.61 65.4881 25.07 67.7981 25.07C70.0481 25.07 72.0581 25.595 73.8281 26.645C75.5981 27.665 76.9781 29.135 77.9681 31.055C78.9881 32.945 79.4981 35.15 79.4981 37.67C79.4981 40.19 78.9881 42.41 77.9681 44.33C76.9781 46.25 75.5831 47.735 73.7831 48.785C72.0131 49.835 70.0181 50.36 67.7981 50.36C65.4581 50.36 63.4331 49.835 61.7231 48.785C60.0431 47.705 58.8131 46.31 58.0331 44.6V50H54.9281V16.7H58.0331V30.875ZM76.3031 37.67C76.3031 35.63 75.8981 33.875 75.0881 32.405C74.3081 30.905 73.2281 29.765 71.8481 28.985C70.4681 28.205 68.9081 27.815 67.1681 27.815C65.4881 27.815 63.9431 28.22 62.5331 29.03C61.1531 29.84 60.0581 30.995 59.2481 32.495C58.4381 33.995 58.0331 35.735 58.0331 37.715C58.0331 39.695 58.4381 41.435 59.2481 42.935C60.0581 44.435 61.1531 45.59 62.5331 46.4C63.9431 47.21 65.4881 47.615 67.1681 47.615C68.9081 47.615 70.4681 47.225 71.8481 46.445C73.2281 45.635 74.3081 44.48 75.0881 42.98C75.8981 41.45 76.3031 39.68 76.3031 37.67ZM108.559 28.58C108.559 30.41 108.139 32.09 107.299 33.62C106.459 35.12 105.169 36.335 103.429 37.265C101.689 38.195 99.5293 38.66 96.9493 38.66H92.1793V50H84.4843V18.41H96.9493C99.4693 18.41 101.599 18.845 103.339 19.715C105.079 20.585 106.384 21.785 107.254 23.315C108.124 24.845 108.559 26.6 108.559 28.58ZM96.3643 32.54C97.8343 32.54 98.9293 32.195 99.6493 31.505C100.369 30.815 100.729 29.84 100.729 28.58C100.729 27.32 100.369 26.345 99.6493 25.655C98.9293 24.965 97.8343 24.62 96.3643 24.62H92.1793V32.54H96.3643ZM158.405 29.075C159.305 27.695 160.43 26.615 161.78 25.835C163.13 25.025 164.63 24.62 166.28 24.62V32.765H164.165C162.245 32.765 160.805 33.185 159.845 34.025C158.885 34.835 158.405 36.275 158.405 38.345V50H150.71V24.89H158.405V29.075ZM183.953 43.475V50H180.038C177.248 50 175.073 49.325 173.513 47.975C171.953 46.595 171.173 44.36 171.173 41.27V31.28H168.113V24.89H171.173V18.77H178.868V24.89H183.908V31.28H178.868V41.36C178.868 42.11 179.048 42.65 179.408 42.98C179.768 43.31 180.368 43.475 181.208 43.475H183.953ZM186.709 37.4C186.709 34.82 187.189 32.555 188.149 30.605C189.139 28.655 190.474 27.155 192.154 26.105C193.834 25.055 195.709 24.53 197.779 24.53C199.549 24.53 201.094 24.89 202.414 25.61C203.764 26.33 204.799 27.275 205.519 28.445V24.89H213.214V50H205.519V46.445C204.769 47.615 203.719 48.56 202.369 49.28C201.049 50 199.504 50.36 197.734 50.36C195.694 50.36 193.834 49.835 192.154 48.785C190.474 47.705 189.139 46.19 188.149 44.24C187.189 42.26 186.709 39.98 186.709 37.4ZM205.519 37.445C205.519 35.525 204.979 34.01 203.899 32.9C202.849 31.79 201.559 31.235 200.029 31.235C198.499 31.235 197.194 31.79 196.114 32.9C195.064 33.98 194.539 35.48 194.539 37.4C194.539 39.32 195.064 40.85 196.114 41.99C197.194 43.1 198.499 43.655 200.029 43.655C201.559 43.655 202.849 43.1 203.899 41.99C204.979 40.88 205.519 39.365 205.519 37.445ZM226.476 16.7V50H218.781V16.7H226.476ZM235.653 50.36C234.303 50.36 233.193 49.97 232.323 49.19C231.483 48.38 231.063 47.39 231.063 46.22C231.063 45.02 231.483 44.015 232.323 43.205C233.193 42.395 234.303 41.99 235.653 41.99C236.973 41.99 238.053 42.395 238.893 43.205C239.763 44.015 240.198 45.02 240.198 46.22C240.198 47.39 239.763 48.38 238.893 49.19C238.053 49.97 236.973 50.36 235.653 50.36Z" fill="white"/>
<path d="M122.955 21.0204C122.897 20.7998 122.884 20.57 122.916 20.3443C122.948 20.1186 123.024 19.9013 123.139 19.7049C123.255 19.5086 123.408 19.3369 123.59 19.1998C123.772 19.0627 123.98 18.9629 124.201 18.9059C126.76 18.2451 129.446 18.2451 132.005 18.9059C132.231 18.9581 132.443 19.055 132.631 19.1907C132.818 19.3264 132.977 19.4982 133.097 19.6961C133.217 19.894 133.296 20.1139 133.33 20.3429C133.364 20.5719 133.351 20.8053 133.293 21.0294C133.235 21.2534 133.133 21.4637 132.993 21.6477C132.852 21.8317 132.677 21.9857 132.476 22.1007C132.275 22.2157 132.053 22.2894 131.823 22.3173C131.594 22.3453 131.361 22.3269 131.138 22.2634C129.147 21.7501 127.059 21.7501 125.068 22.2634C124.623 22.3785 124.15 22.3123 123.754 22.0792C123.358 21.8462 123.07 21.4653 122.955 21.0204ZM116.965 23.0858C115.114 24.9722 113.771 27.2975 113.063 29.8441C113.002 30.0637 112.985 30.2931 113.013 30.5193C113.041 30.7454 113.113 30.9639 113.225 31.1621C113.338 31.3603 113.488 31.5345 113.668 31.6746C113.847 31.8148 114.053 31.9181 114.273 31.9788C114.423 32.0199 114.579 32.0408 114.735 32.0409C115.114 32.0408 115.483 31.9163 115.785 31.6866C116.087 31.4569 116.305 31.1346 116.406 30.7691C116.957 28.7892 118.001 26.9815 119.441 25.5154C119.601 25.3528 119.727 25.1604 119.812 24.9492C119.897 24.7379 119.94 24.512 119.937 24.2842C119.935 24.0565 119.888 23.8314 119.799 23.6218C119.71 23.4122 119.581 23.2222 119.418 23.0627C119.255 22.9031 119.063 22.7772 118.852 22.692C118.641 22.6068 118.415 22.5641 118.187 22.5663C117.959 22.5684 117.734 22.6154 117.524 22.7045C117.315 22.7937 117.125 22.9232 116.965 23.0858ZM116.404 37.2701C116.274 36.8355 115.978 36.4694 115.581 36.2502C115.184 36.031 114.717 35.9762 114.279 36.0976C113.842 36.219 113.47 36.5069 113.243 36.8996C113.015 37.2922 112.951 37.7583 113.063 38.198C113.77 40.7458 115.113 43.0723 116.965 44.9591C117.294 45.2575 117.724 45.4188 118.167 45.4097C118.611 45.4006 119.034 45.2219 119.35 44.9104C119.666 44.5988 119.85 44.1781 119.865 43.7347C119.88 43.2913 119.725 42.859 119.431 42.5267C117.994 41.0588 116.952 39.2501 116.404 37.2701ZM131.138 45.7786C129.147 46.2927 127.058 46.2927 125.068 45.7786C124.845 45.7151 124.612 45.6968 124.382 45.7247C124.153 45.7527 123.931 45.8263 123.73 45.9413C123.529 46.0563 123.353 46.2103 123.213 46.3944C123.072 46.5784 122.97 46.7886 122.912 47.0127C122.855 47.2368 122.842 47.4702 122.876 47.6992C122.91 47.9281 122.989 48.148 123.109 48.3459C123.229 48.5438 123.387 48.7157 123.575 48.8514C123.762 48.9871 123.975 49.0839 124.201 49.1361C126.76 49.797 129.446 49.797 132.005 49.1361C132.231 49.0839 132.443 48.9871 132.631 48.8514C132.818 48.7157 132.977 48.5438 133.097 48.3459C133.217 48.148 133.296 47.9281 133.33 47.6992C133.364 47.4702 133.351 47.2368 133.293 47.0127C133.235 46.7886 133.133 46.5784 132.993 46.3944C132.852 46.2103 132.677 46.0563 132.476 45.9413C132.275 45.8263 132.053 45.7527 131.823 45.7247C131.594 45.6968 131.361 45.7151 131.138 45.7786ZM141.937 36.0632C141.495 35.9426 141.023 36.0021 140.624 36.2289C140.225 36.4556 139.932 36.831 139.81 37.273C139.259 39.2529 138.215 41.0606 136.775 42.5267C136.452 42.8548 136.274 43.2976 136.278 43.7575C136.282 44.2175 136.468 44.657 136.796 44.9794C137.125 45.3018 137.567 45.4806 138.027 45.4765C138.487 45.4724 138.927 45.2858 139.249 44.9577C141.1 43.0705 142.443 40.7449 143.151 38.198C143.212 37.978 143.229 37.7482 143.201 37.5217C143.172 37.2953 143.1 37.0766 142.987 36.8783C142.874 36.68 142.723 36.5059 142.543 36.3661C142.362 36.2262 142.156 36.1233 141.936 36.0632H141.937ZM139.803 30.772C139.933 31.2065 140.229 31.5727 140.626 31.7919C141.023 32.011 141.491 32.0658 141.928 31.9444C142.365 31.823 142.737 31.5351 142.965 31.1425C143.192 30.7498 143.256 30.2837 143.144 29.8441C142.437 27.2962 141.094 24.9697 139.242 23.0829C139.085 22.9078 138.895 22.7663 138.682 22.6671C138.469 22.5678 138.238 22.5128 138.004 22.5055C137.769 22.4981 137.535 22.5385 137.316 22.6241C137.098 22.7098 136.899 22.839 136.731 23.0039C136.564 23.1688 136.432 23.366 136.343 23.5834C136.254 23.8009 136.211 24.0341 136.215 24.2689C136.219 24.5038 136.271 24.7354 136.367 24.9496C136.463 25.1639 136.602 25.3563 136.775 25.5154C138.212 26.9833 139.253 28.7919 139.801 30.772H139.803Z" fill="white"/>
<path d="M128.107 26.2118C132.338 26.2118 135.906 29.8581 135.906 34.5302C135.905 39.2022 132.338 42.8485 128.107 42.8485C123.876 42.8483 120.309 39.202 120.309 34.5302C120.309 29.8582 123.876 26.212 128.107 26.2118Z" stroke="white" stroke-width="3"/>
</svg>
