<svg width="162" height="45" viewBox="0 0 162 45" fill="none" xmlns="http://www.w3.org/2000/svg">
<path d="M12.09 12.03V27.9C12.09 29.5 11.6 30.79 10.62 31.77C9.64 32.73 8.33 33.21 6.69 33.21C4.99 33.21 3.63 32.7 2.61 31.68C1.61 30.64 1.11 29.24 1.11 27.48H3.24C3.26 28.62 3.54 29.55 4.08 30.27C4.64 30.99 5.51 31.35 6.69 31.35C7.81 31.35 8.64 31.02 9.18 30.36C9.72 29.7 9.99 28.88 9.99 27.9V12.03H12.09ZM24.5407 33.24C23.0007 33.24 21.6107 32.9 20.3707 32.22C19.1507 31.52 18.1807 30.54 17.4607 29.28C16.7607 28 16.4107 26.51 16.4107 24.81C16.4107 23.11 16.7707 21.63 17.4907 20.37C18.2107 19.09 19.1907 18.11 20.4307 17.43C21.6707 16.73 23.0607 16.38 24.6007 16.38C26.1407 16.38 27.5307 16.73 28.7707 17.43C30.0307 18.11 31.0107 19.09 31.7107 20.37C32.4307 21.63 32.7907 23.11 32.7907 24.81C32.7907 26.49 32.4307 27.97 31.7107 29.25C30.9907 30.53 30.0007 31.52 28.7407 32.22C27.4807 32.9 26.0807 33.24 24.5407 33.24ZM24.5407 31.41C25.6207 31.41 26.6207 31.17 27.5407 30.69C28.4607 30.19 29.2007 29.45 29.7607 28.47C30.3407 27.47 30.6307 26.25 30.6307 24.81C30.6307 23.37 30.3507 22.16 29.7907 21.18C29.2307 20.18 28.4907 19.44 27.5707 18.96C26.6507 18.46 25.6507 18.21 24.5707 18.21C23.4907 18.21 22.4907 18.46 21.5707 18.96C20.6507 19.44 19.9107 20.18 19.3507 21.18C18.8107 22.16 18.5407 23.37 18.5407 24.81C18.5407 26.25 18.8107 27.47 19.3507 28.47C19.9107 29.45 20.6407 30.19 21.5407 30.69C22.4607 31.17 23.4607 31.41 24.5407 31.41ZM38.6888 20.25C39.2288 19.11 40.0588 18.18 41.1788 17.46C42.3188 16.74 43.6588 16.38 45.1988 16.38C46.6988 16.38 48.0388 16.73 49.2188 17.43C50.3988 18.11 51.3188 19.09 51.9788 20.37C52.6588 21.63 52.9988 23.1 52.9988 24.78C52.9988 26.46 52.6588 27.94 51.9788 29.22C51.3188 30.5 50.3888 31.49 49.1888 32.19C48.0088 32.89 46.6788 33.24 45.1988 33.24C43.6388 33.24 42.2888 32.89 41.1488 32.19C40.0288 31.47 39.2088 30.54 38.6888 29.4V33H36.6188V10.8H38.6888V20.25ZM50.8688 24.78C50.8688 23.42 50.5988 22.25 50.0587 21.27C49.5388 20.27 48.8188 19.51 47.8988 18.99C46.9788 18.47 45.9388 18.21 44.7788 18.21C43.6588 18.21 42.6288 18.48 41.6888 19.02C40.7688 19.56 40.0388 20.33 39.4988 21.33C38.9588 22.33 38.6888 23.49 38.6888 24.81C38.6888 26.13 38.9588 27.29 39.4988 28.29C40.0388 29.29 40.7688 30.06 41.6888 30.6C42.6288 31.14 43.6588 31.41 44.7788 31.41C45.9388 31.41 46.9788 31.15 47.8988 30.63C48.8188 30.09 49.5388 29.32 50.0587 28.32C50.5988 27.3 50.8688 26.12 50.8688 24.78ZM72.3729 18.72C72.3729 19.94 72.0929 21.06 71.5329 22.08C70.9729 23.08 70.1129 23.89 68.9529 24.51C67.7929 25.13 66.3529 25.44 64.6329 25.44H61.4529V33H56.3229V11.94H64.6329C66.3129 11.94 67.7329 12.23 68.8929 12.81C70.0529 13.39 70.9229 14.19 71.5029 15.21C72.0829 16.23 72.3729 17.4 72.3729 18.72ZM64.2429 21.36C65.2229 21.36 65.9529 21.13 66.4329 20.67C66.9129 20.21 67.1529 19.56 67.1529 18.72C67.1529 17.88 66.9129 17.23 66.4329 16.77C65.9529 16.31 65.2229 16.08 64.2429 16.08H61.4529V21.36H64.2429ZM105.603 19.05C106.203 18.13 106.953 17.41 107.853 16.89C108.753 16.35 109.753 16.08 110.853 16.08V21.51H109.443C108.163 21.51 107.203 21.79 106.563 22.35C105.923 22.89 105.603 23.85 105.603 25.23V33H100.473V16.26H105.603V19.05ZM122.635 28.65V33H120.025C118.165 33 116.715 32.55 115.675 31.65C114.635 30.73 114.115 29.24 114.115 27.18V20.52H112.075V16.26H114.115V12.18H119.245V16.26H122.605V20.52H119.245V27.24C119.245 27.74 119.365 28.1 119.605 28.32C119.845 28.54 120.245 28.65 120.805 28.65H122.635ZM124.473 24.6C124.473 22.88 124.793 21.37 125.433 20.07C126.093 18.77 126.983 17.77 128.103 17.07C129.223 16.37 130.473 16.02 131.853 16.02C133.033 16.02 134.063 16.26 134.943 16.74C135.843 17.22 136.533 17.85 137.013 18.63V16.26H142.143V33H137.013V30.63C136.513 31.41 135.813 32.04 134.913 32.52C134.033 33 133.003 33.24 131.823 33.24C130.463 33.24 129.223 32.89 128.103 32.19C126.983 31.47 126.093 30.46 125.433 29.16C124.793 27.84 124.473 26.32 124.473 24.6ZM137.013 24.63C137.013 23.35 136.653 22.34 135.933 21.6C135.233 20.86 134.373 20.49 133.353 20.49C132.333 20.49 131.463 20.86 130.743 21.6C130.043 22.32 129.693 23.32 129.693 24.6C129.693 25.88 130.043 26.9 130.743 27.66C131.463 28.4 132.333 28.77 133.353 28.77C134.373 28.77 135.233 28.4 135.933 27.66C136.653 26.92 137.013 25.91 137.013 24.63ZM150.984 10.8V33H145.854V10.8H150.984ZM157.102 33.24C156.202 33.24 155.462 32.98 154.882 32.46C154.322 31.92 154.042 31.26 154.042 30.48C154.042 29.68 154.322 29.01 154.882 28.47C155.462 27.93 156.202 27.66 157.102 27.66C157.982 27.66 158.702 27.93 159.262 28.47C159.842 29.01 160.132 29.68 160.132 30.48C160.132 31.26 159.842 31.92 159.262 32.46C158.702 32.98 157.982 33.24 157.102 33.24Z" fill="#2651BC"/>
<path d="M81.9189 13.8392C81.8792 13.6838 81.87 13.5219 81.8921 13.3628C81.9141 13.2037 81.9668 13.0507 82.0472 12.9123C82.1277 12.7739 82.2342 12.6529 82.3608 12.5563C82.4873 12.4597 82.6314 12.3894 82.7848 12.3493C84.5639 11.8836 86.4304 11.8836 88.2094 12.3493C88.3661 12.3861 88.514 12.4543 88.6443 12.5499C88.7746 12.6455 88.8848 12.7666 88.9682 12.906C89.0516 13.0455 89.1067 13.2004 89.1301 13.3618C89.1536 13.5231 89.1449 13.6876 89.1047 13.8455C89.0645 14.0034 88.9935 14.1516 88.8959 14.2812C88.7983 14.4109 88.6761 14.5194 88.5365 14.6005C88.3969 14.6815 88.2427 14.7334 88.083 14.7531C87.9233 14.7728 87.7614 14.7598 87.6067 14.7151C86.2229 14.3534 84.7713 14.3534 83.3876 14.7151C83.0783 14.7962 82.7498 14.7495 82.4744 14.5853C82.1991 14.4211 81.9992 14.1527 81.9189 13.8392ZM77.756 15.2946C76.4691 16.6238 75.5359 18.2623 75.0437 20.0567C75.0015 20.2115 74.9897 20.3731 75.0091 20.5325C75.0284 20.6919 75.0786 20.8458 75.1567 20.9855C75.2348 21.1252 75.3393 21.2479 75.4641 21.3466C75.589 21.4454 75.7319 21.5182 75.8845 21.561C75.9893 21.5899 76.0974 21.6047 76.206 21.6048C76.4696 21.6046 76.7259 21.5169 76.9356 21.3551C77.1454 21.1932 77.297 20.9661 77.3673 20.7085C77.7501 19.3134 78.4759 18.0396 79.4768 17.0065C79.5877 16.892 79.6753 16.7564 79.7345 16.6076C79.7937 16.4587 79.8234 16.2995 79.8219 16.139C79.8204 15.9785 79.7877 15.8199 79.7258 15.6722C79.6638 15.5246 79.5738 15.3907 79.4608 15.2783C79.3478 15.1659 79.214 15.0771 79.0672 15.0171C78.9204 14.9571 78.7634 14.927 78.6051 14.9285C78.4468 14.93 78.2903 14.9631 78.1446 15.0259C77.999 15.0887 77.8669 15.18 77.756 15.2946ZM77.3663 25.2894C77.2756 24.9832 77.0701 24.7252 76.794 24.5708C76.5179 24.4163 76.193 24.3777 75.8892 24.4633C75.5853 24.5488 75.3266 24.7517 75.1686 25.0284C75.0105 25.305 74.9657 25.6335 75.0437 25.9433C75.5352 27.7386 76.4685 29.3779 77.756 30.7075C77.9842 30.9177 78.2832 31.0313 78.5915 31.025C78.8998 31.0186 79.1939 30.8926 79.4134 30.6731C79.6329 30.4536 79.7611 30.1571 79.7716 29.8447C79.7821 29.5322 79.6741 29.2276 79.4698 28.9935C78.4708 27.9591 77.747 26.6847 77.3663 25.2894ZM87.6067 31.2849C86.223 31.6471 84.7713 31.6471 83.3876 31.2849C83.2329 31.2402 83.0709 31.2272 82.9112 31.2469C82.7515 31.2666 82.5974 31.3185 82.4577 31.3995C82.3181 31.4806 82.196 31.5891 82.0984 31.7188C82.0008 31.8484 81.9298 31.9966 81.8896 32.1545C81.8493 32.3124 81.8407 32.4769 81.8641 32.6382C81.8876 32.7996 81.9426 32.9545 82.0261 33.094C82.1095 33.2334 82.2196 33.3545 82.3499 33.4501C82.4802 33.5457 82.6281 33.6139 82.7848 33.6507C84.5639 34.1164 86.4304 34.1164 88.2094 33.6507C88.3661 33.6139 88.514 33.5457 88.6443 33.4501C88.7746 33.3545 88.8848 33.2334 88.9682 33.094C89.0516 32.9545 89.1067 32.7996 89.1301 32.6382C89.1536 32.4769 89.1449 32.3124 89.1047 32.1545C89.0645 31.9966 88.9935 31.8484 88.8959 31.7188C88.7983 31.5891 88.6761 31.4806 88.5365 31.3995C88.3969 31.3185 88.2427 31.2666 88.083 31.2469C87.9233 31.2272 87.7614 31.2402 87.6067 31.2849ZM95.1127 24.439C94.8052 24.354 94.4769 24.396 94.1998 24.5557C93.9226 24.7155 93.7192 24.98 93.634 25.2915C93.2512 26.6866 92.5254 27.9604 91.5245 28.9935C91.3004 29.2247 91.1761 29.5366 91.1789 29.8608C91.1818 30.1849 91.3115 30.4946 91.5395 30.7217C91.7676 30.9489 92.0753 31.0749 92.395 31.072C92.7147 31.0692 93.0202 30.9377 93.2443 30.7065C94.531 29.3767 95.4641 27.7379 95.9565 25.9433C95.9988 25.7883 96.0104 25.6263 95.9907 25.4668C95.9711 25.3072 95.9206 25.1531 95.8421 25.0134C95.7636 24.8736 95.6587 24.751 95.5334 24.6524C95.408 24.5539 95.2647 24.4814 95.1117 24.439H95.1127ZM93.629 20.7106C93.7197 21.0168 93.9251 21.2748 94.2012 21.4292C94.4774 21.5837 94.8022 21.6223 95.1061 21.5367C95.41 21.4512 95.6687 21.2483 95.8267 20.9716C95.9848 20.695 96.0296 20.3665 95.9515 20.0567C95.46 18.2614 94.5268 16.6221 93.2392 15.2925C93.1304 15.1692 92.998 15.0695 92.8501 14.9995C92.7021 14.9296 92.5417 14.8908 92.3785 14.8856C92.2154 14.8804 92.0528 14.9089 91.9008 14.9693C91.7488 15.0296 91.6105 15.1207 91.4943 15.2369C91.378 15.3531 91.2863 15.492 91.2246 15.6452C91.1629 15.7985 91.1325 15.9628 91.1353 16.1283C91.1382 16.2937 91.1741 16.4569 91.241 16.6079C91.3079 16.7589 91.4043 16.8945 91.5245 17.0065C92.5235 18.0409 93.2472 19.3153 93.628 20.7106H93.629Z" fill="#2651BC"/>
<path d="M85.5 17C88.4691 17 91 19.6152 91 23C91 26.3848 88.4691 29 85.5 29C82.5309 29 80 26.3848 80 23C80 19.6152 82.5309 17 85.5 17Z" stroke="#2651BC" stroke-width="2"/>
</svg>
