<svg width="106" height="56" viewBox="0 0 106 56" fill="none" xmlns="http://www.w3.org/2000/svg">
<path d="M3.25256 3.34416C3.61391 3.57161 3.85481 3.91278 3.97527 4.25396C4.21618 4.59514 4.21618 5.05004 4.21618 5.61867V17.901C4.21618 18.4696 4.09573 19.0383 3.97527 19.3794C3.85481 19.7206 3.61391 20.0618 3.25256 20.2893C2.8912 20.5167 2.52983 20.6304 2.16848 20.6304C1.80712 20.6304 0.963952 20.7442 0.361617 20.7442C0.241165 20.7442 0.120719 20.7442 0.120719 20.8579C0.000266717 20.9716 0.000266717 20.9716 0.000266717 21.0853V22.1089C0.000266717 22.2226 0.000266717 22.3363 0.120719 22.3363C0.241173 22.45 0.241173 22.45 0.361617 22.45H12.4069C12.6478 22.45 12.7682 22.3363 12.7682 22.1089V21.0853C12.7682 20.8579 12.6478 20.7442 12.4069 20.7442H11.5637C11.0819 20.7442 10.7205 20.7442 10.2387 20.6304C9.87735 20.6304 9.51599 20.403 9.15462 20.2893C8.79327 20.0618 8.55237 19.8343 8.43191 19.4932C8.19101 19.152 8.19101 18.6971 8.19101 18.1285V11.8736C8.19101 11.4187 8.19101 10.85 8.31145 10.1677C8.31145 9.59906 8.43191 9.03043 8.55237 8.34808C8.67283 7.77945 8.79327 7.0971 9.03418 6.52847C9.27508 5.95984 9.51599 5.39122 9.75689 4.93631C9.99781 4.48141 10.3592 4.14024 10.841 3.79906C11.2023 3.57161 11.6841 3.34416 12.166 3.34416C13.0091 3.34416 13.4909 3.57161 13.8523 4.02651C14.0932 4.48141 14.3341 5.16376 14.3341 6.07357C14.3341 6.30102 14.4546 6.41475 14.6955 6.41475C15.1773 6.41475 15.6591 6.30102 16.1409 6.18729C16.6227 6.07357 16.9841 5.84612 17.3455 5.61867C17.7067 5.39122 17.8273 5.05004 18.0681 4.70886C18.1887 4.36769 18.309 3.91278 18.309 3.57161C18.309 2.6618 17.9476 1.97945 17.225 1.41082C16.5023 0.955923 15.4181 0.614746 13.8523 0.614746C12.8887 0.614746 12.166 0.728472 11.5637 0.955923C10.9614 1.41082 10.4796 1.752 9.99781 2.09318C9.51599 2.54808 9.27508 3.00298 8.91372 3.45788C8.79327 3.79906 8.55237 4.14024 8.31145 4.59514C8.31145 4.70886 8.19101 4.70886 8.07056 4.70886C7.9501 4.59514 7.9501 4.59514 7.9501 4.48141V2.88926C7.9501 1.97945 7.10693 1.18337 6.14324 1.18337H0.361585C0.120687 1.2971 0.000229359 1.41082 0.000229359 1.52455C0.000229359 2.2069 0.602499 2.88926 1.32521 2.88926H2.04792C2.52973 3.00298 2.8912 3.23043 3.25256 3.34416Z" fill="#27B6C1"/>
<path d="M53.3615 10.1681C50.2297 10.2818 47.8208 10.8504 46.2548 11.874C44.689 12.8975 43.8458 14.4897 43.8458 16.5367C43.8458 17.5603 43.9662 18.5838 44.3276 19.3799C44.5684 20.1759 45.0502 20.7446 45.6525 21.3132C46.2548 21.8818 46.9776 22.223 47.7002 22.4504C48.5434 22.6779 49.3866 22.7916 50.2297 22.7916C51.0729 22.7916 51.7956 22.6779 52.3978 22.5642C53.0001 22.3367 53.6024 22.1093 54.0842 21.7681C54.5661 21.4269 55.0479 20.972 55.4093 20.5171C55.7705 20.0622 56.8547 19.0387 56.8547 19.0387V20.7446C56.8547 21.6544 57.5774 22.3367 58.5411 22.3367H62.8773C63.1181 22.3367 63.2387 22.223 63.2387 21.9955V20.972C63.2387 20.8583 63.1181 20.6308 62.8773 20.6308C62.5159 20.6308 62.1546 20.6308 61.9137 20.5171C61.5523 20.4034 61.3114 20.2897 61.0706 20.0622C60.8295 19.8348 60.7092 19.4936 60.5886 19.1524C60.4683 18.6975 60.4683 18.2426 60.4683 17.7877V7.55241C60.4683 6.30143 60.3478 5.2779 59.9864 4.3681C59.7455 3.57202 59.2637 2.88967 58.5411 2.20731C57.9388 1.63869 57.0956 1.29751 56.1319 1.07006C55.1682 0.842607 54.0842 0.728882 52.7592 0.728882C51.7956 0.728882 50.832 0.842607 49.8683 0.956333C49.0252 1.07006 48.3025 1.29751 47.4594 1.63869C46.8571 1.86614 46.2548 2.32104 45.8934 2.77594C45.773 3.34457 45.6525 3.91319 45.6525 4.59555C45.6525 5.50535 45.8934 6.1877 46.4957 6.52888C46.9776 6.87006 47.8208 7.09751 48.7843 7.09751C48.9048 7.09751 49.0252 7.09751 49.0252 6.98378C49.1457 6.87006 49.1457 6.87006 49.1457 6.75633C49.1457 6.30143 49.1457 5.84653 49.266 5.39163C49.3866 4.93672 49.5071 4.48182 49.8683 4.02692C50.1092 3.68574 50.5911 3.34457 51.0729 3.11712C51.5547 2.88967 52.157 2.77594 53.0001 2.77594C53.8433 2.77594 54.5661 2.88967 55.0479 3.11712C55.5296 3.34457 55.891 3.68574 56.2524 4.14065C56.3728 4.70927 56.6137 5.16418 56.6137 5.7328C56.7342 6.41515 56.7342 6.98378 56.7342 7.66613V9.71319C56.7342 9.94064 56.6137 10.0544 56.3728 10.0544L53.3615 10.1681ZM56.7342 14.8308C56.7342 15.6269 56.6137 16.423 56.3728 17.1053C56.1319 17.7877 55.7705 18.3563 55.2887 18.8112C54.807 19.2661 54.2047 19.721 53.4819 19.9485C52.7592 20.1759 52.0366 20.2897 51.1934 20.2897C50.1092 20.2897 49.1457 19.9485 48.6639 19.3799C48.0616 18.8112 47.8208 17.9014 47.8208 16.6504C47.8208 15.9681 47.9411 15.2857 48.182 14.6034C48.4229 14.0348 48.7843 13.4661 49.266 13.125C49.748 12.6701 50.3503 12.4426 51.1934 12.2152C52.0366 11.9877 53.0001 11.874 54.0842 11.7603L56.3728 11.6465C56.4933 11.6465 56.6137 11.6465 56.6137 11.7603C56.7342 11.874 56.7342 11.874 56.7342 11.9877V14.8308Z" fill="#27B6C1"/>
<path d="M19.3944 1.52652C19.3944 2.20888 19.9965 2.89123 20.7193 2.89123H20.8397C21.2011 2.89123 21.5625 3.11868 21.9239 3.23241C22.2852 3.45986 22.526 3.68731 22.6466 4.02848C22.7671 4.59711 22.8874 5.05201 22.8874 5.62064V15.0599C22.8874 16.4246 23.008 17.5618 23.3692 18.5853C23.7306 19.6089 24.092 20.405 24.6943 20.9736C25.2966 21.6559 26.0192 22.1108 26.8624 22.3383C27.8261 22.6795 28.7896 22.7932 29.7533 22.7932C30.3556 22.7932 31.0782 22.7932 31.6805 22.6795C33.0055 22.452 34.21 21.8834 35.0532 21.0873C35.4146 20.7461 36.0169 20.0638 36.3781 19.6089C36.3781 19.6089 36.4986 19.4951 36.619 19.6089L36.7395 19.7226C36.7395 21.201 38.0645 22.452 39.6304 22.452H43.6054C43.8463 22.452 43.9666 22.3383 43.9666 22.1108V21.0873C43.9666 20.9736 43.8463 20.7461 43.6054 20.7461C43.244 20.7461 42.7622 20.7461 42.5213 20.6324C42.1599 20.6324 41.7985 20.5187 41.4371 20.2912C41.0759 20.0638 40.835 19.8363 40.7145 19.4951C40.4736 19.154 40.4736 18.6991 40.4736 18.1304V1.64025C40.4736 1.4128 40.3531 1.29907 40.1122 1.29907H33.3669C33.126 1.29907 33.0055 1.4128 33.0055 1.64025C33.0055 2.3226 33.6077 3.00495 34.3306 3.00495H34.4509C34.8123 3.00495 35.1737 3.23241 35.535 3.34613C35.8964 3.57358 36.1372 3.91476 36.2578 4.25593C36.4987 4.59711 36.4987 5.16574 36.4987 5.73437V13.9226C36.4987 14.8324 36.3781 15.6285 36.1372 16.5383C36.0169 17.2206 35.6555 17.903 35.1737 18.5853C34.6918 19.154 34.21 19.6089 33.6077 19.8363C33.0055 20.1775 32.1623 20.2912 31.1988 20.2912C30.3556 20.2912 29.6328 20.1775 29.151 19.95C28.6693 19.7226 28.1873 19.3814 27.8261 18.9265C27.4647 18.3579 27.2238 17.7893 27.1033 17.2206C26.9829 16.4246 26.8624 15.7422 26.8624 14.9461V1.64025C26.8624 1.52652 26.8624 1.4128 26.7419 1.4128C26.6215 1.29907 26.6215 1.29907 26.501 1.29907H19.7557C19.5148 1.29907 19.3944 1.4128 19.3944 1.52652Z" fill="#27B6C1"/>
<path d="M86.7277 22.6784C86.2457 23.1333 85.8845 23.5882 85.5231 24.1569C85.2822 24.7255 85.0413 25.4079 85.0413 26.2039C85.0413 28.0235 85.764 29.3882 87.2094 30.4118C88.6549 31.4353 90.823 31.8902 93.7139 31.8902C95.6411 31.8902 97.2071 31.6628 98.6524 31.3216C100.098 30.9804 101.182 30.5255 102.146 29.8431C102.989 29.2745 103.712 28.4784 104.193 27.5686C104.675 26.5451 104.916 25.5216 104.796 24.4981C104.796 23.702 104.675 22.9059 104.434 22.1098C104.193 21.4275 103.832 20.7451 103.23 20.1765C102.627 19.6079 101.905 19.2667 101.062 18.9255C100.218 18.5843 99.1343 18.4706 97.9297 18.4706H93.2321H92.1481C91.907 18.4706 91.5458 18.3569 91.3049 18.2432C91.0639 18.1294 90.9435 18.0157 90.823 17.7882C90.7026 17.5608 90.5821 17.3333 90.5821 16.9922C90.5821 16.7647 90.5821 16.4235 90.7026 16.1961C90.823 15.9686 90.9435 15.7412 91.1844 15.5137C91.4253 15.2863 91.5458 15.1726 91.7867 14.9451C92.0275 14.8314 92.1479 14.7177 92.3889 14.604C92.5093 14.604 92.6298 14.4902 92.7502 14.604H92.9912H93.5934H94.1956H94.7979C96.0025 14.604 97.2071 14.4902 98.0502 14.1491C98.8934 13.8079 99.7366 13.353 100.339 12.6706C100.941 12.102 101.423 11.3059 101.784 10.5098C102.146 9.60005 102.266 8.69024 102.266 7.78044C102.266 6.64318 102.146 5.73338 101.784 4.9373C101.543 4.36867 101.182 3.80005 100.821 3.23142C100.821 3.11769 100.7 3.00397 100.821 3.00397C100.821 2.89024 100.941 2.89024 101.062 2.77652C101.182 2.66279 101.423 2.66279 101.543 2.54907C101.905 2.43534 102.146 2.43534 102.507 2.43534C102.748 2.43534 102.989 2.43534 103.23 2.54907C103.35 2.66279 103.591 2.77652 103.591 2.89024C103.712 3.00397 103.712 3.11769 103.832 3.34515V3.5726C103.832 3.68632 104.073 3.91377 104.193 3.80005C104.434 3.80005 104.675 3.68632 104.796 3.68632C105.036 3.5726 105.277 3.45887 105.518 3.23142C105.639 3.00397 105.88 2.77652 105.88 2.54907C106 2.66279 106 2.32162 106 2.09416C106 1.86671 106 1.52554 105.88 1.29809C105.759 1.07064 105.639 0.843185 105.398 0.615734C105.157 0.388283 104.916 0.274558 104.675 0.160832C104.314 0.0471066 103.952 -0.0666188 103.591 0.0471066C103.109 0.0471066 102.748 0.160832 102.266 0.274558C101.905 0.388283 101.543 0.615734 101.182 0.843185C100.821 1.07064 100.58 1.29809 100.218 1.52554C99.9775 1.63926 99.8569 1.86671 99.7366 1.98044C99.6161 2.09417 99.4955 2.09417 99.2547 1.98044C99.0138 1.86671 98.8934 1.75299 98.6524 1.63926C98.2911 1.52554 97.9297 1.29809 97.5683 1.18436C97.0866 1.07064 96.7251 0.95691 96.2434 0.843185C95.7616 0.729459 95.2797 0.729459 94.7979 0.729459C93.473 0.729459 92.389 0.843185 91.3049 1.18436C90.3412 1.52554 89.498 1.98044 88.8958 2.66279C88.1731 3.34514 87.6912 4.14122 87.4503 4.9373C87.0889 5.84711 86.9685 6.87063 86.9685 8.00789C86.9685 8.69024 87.0889 9.25887 87.2094 9.94122C87.3299 10.5098 87.5708 11.0785 87.9321 11.6471C88.2935 12.2157 88.6549 12.6706 89.1366 13.0118C89.498 13.2393 89.7389 13.4667 90.1003 13.6942C90.2207 13.8079 90.3412 13.9216 90.3412 14.0353C90.3412 14.1491 90.3412 14.2628 90.2207 14.3765C89.6184 14.8314 89.0163 15.2863 88.7752 15.7412C88.2935 16.3098 88.1731 16.9922 88.1731 17.7882C88.1731 18.1294 88.2935 18.5843 88.414 18.9255C88.5344 19.2667 88.7752 19.6079 88.8958 19.8353L89.6184 20.5177C89.7389 20.6314 89.8594 20.7451 89.9798 20.7451C90.1003 20.7451 90.1003 20.8588 90.1003 20.8588C90.1003 20.9726 89.9798 20.9726 89.9798 20.9726C89.498 21.0863 88.8958 21.2 88.414 21.4275C87.6912 21.9961 87.2094 22.3373 86.7277 22.6784ZM91.7867 4.14119C92.3889 3.23139 93.3525 2.89021 94.6776 2.89021C96.0025 2.89021 96.966 3.34511 97.5683 4.14119C98.1706 4.93727 98.4115 6.30198 98.4115 8.12158C98.4115 8.91766 98.4115 9.60002 98.1706 10.3961C98.0502 10.9647 97.8092 11.4196 97.5683 11.9882C97.3274 12.3294 96.8457 12.6706 96.3639 12.8981C95.882 13.1255 95.2797 13.2392 94.6776 13.2392C93.3525 13.2392 92.3889 12.8981 91.7867 12.102C91.1844 11.3059 90.9435 10.0549 90.9435 8.34903C90.9435 6.30198 91.1844 4.93727 91.7867 4.14119ZM88.8958 24.0431C89.1366 23.5882 89.498 23.2471 89.8594 22.9059C90.3412 22.6784 90.823 22.451 91.3049 22.3373C91.907 22.2235 92.3889 22.2235 92.9912 22.2235H97.0866C97.6888 22.2235 98.2911 22.2235 98.8934 22.3373C99.3752 22.451 99.8569 22.5647 100.218 22.7922C100.58 23.0196 100.821 23.3608 101.062 23.702C101.302 24.0431 101.302 24.6118 101.302 25.1804C101.302 25.8628 101.182 26.4314 100.941 27.1137C100.7 27.6824 100.339 28.251 99.7366 28.5922C99.1343 29.0471 98.4115 29.3882 97.448 29.6157C96.4843 29.8431 95.2797 29.9569 93.7139 29.9569C92.6298 29.9569 91.7867 29.8431 91.0639 29.6157C90.3412 29.3882 89.8594 29.1608 89.3775 28.8196C89.0163 28.4784 88.6549 28.0235 88.5344 27.5686C88.414 27 88.2935 26.5451 88.2935 25.9765C88.414 25.1804 88.6549 24.4981 88.8958 24.0431Z" fill="#27B6C1"/>
<path d="M82.2706 5.05062C81.9092 4.14081 81.4273 3.34473 80.8252 2.66238C80.2229 2.09375 79.5001 1.52513 78.6569 1.29768C77.6934 0.956499 76.7297 0.842773 75.7661 0.842773C75.1639 0.842773 74.4411 0.842773 73.8388 0.956499C73.2366 1.07022 72.6344 1.18395 72.1524 1.52513C71.5501 1.8663 71.0684 2.20748 70.5866 2.66238C70.3457 3.00356 69.7434 3.57218 69.382 4.02709C69.382 4.14081 69.2617 4.14081 69.1412 4.14081C69.0206 4.14081 69.0206 4.02709 69.0206 3.91336V3.00356C69.0206 1.98003 68.1775 1.18395 67.0934 1.18395H62.0344C61.7935 1.18395 61.6732 1.29768 61.6732 1.52513C61.6732 2.20748 62.2753 2.88983 62.9981 2.88983H63.1185C63.4799 3.00356 63.8413 3.11728 64.2027 3.23101C64.5639 3.45846 64.8048 3.68591 64.9253 4.02709C65.1662 4.36826 65.1662 4.82316 65.1662 5.39179V21.882C65.1662 22.1094 65.2867 22.2232 65.5276 22.2232H72.273C72.5138 22.2232 72.6344 22.1094 72.6344 21.882V20.8585C72.6344 20.7447 72.5138 20.5173 72.273 20.5173C71.9115 20.5173 71.4298 20.5173 71.1889 20.4036C70.8275 20.4036 70.4661 20.2898 70.1048 20.0624C69.7434 19.8349 69.5026 19.6075 69.382 19.2663C69.1412 18.9251 69.1412 18.4702 69.1412 17.9016V9.82709C69.1412 9.03101 69.2617 8.23493 69.382 7.43885C69.5026 6.7565 69.8638 6.07415 70.2252 5.39179C70.5866 4.82316 71.1889 4.36826 71.7912 4.02709C72.3933 3.68591 73.2365 3.45846 74.2002 3.45846C75.0433 3.45846 75.7661 3.57218 76.3683 3.79964C76.9706 4.02709 77.4525 4.36826 77.8137 4.82316C78.1751 5.27807 78.416 5.96042 78.5365 6.52905C78.6569 7.32513 78.7774 8.00748 78.7774 8.80356V22.1094C78.7774 22.3369 78.8978 22.4506 79.1388 22.4506H85.7636C86.0045 22.4506 86.125 22.3369 86.125 22.1094V21.0859C86.125 20.9722 86.0045 20.7447 85.7636 20.7447C85.4022 20.7447 84.9205 20.7447 84.6796 20.631C84.3182 20.631 83.9569 20.4036 83.7159 20.2898C83.475 20.0624 83.2341 19.7212 83.1136 19.38C82.9933 19.0388 82.8727 18.4702 82.8727 17.9016V8.5761C82.7524 7.2114 82.5115 6.07414 82.2706 5.05062Z" fill="#27B6C1"/>
<path d="M19.2726 46.3333C19.0317 45.651 18.6703 44.9686 18.068 44.5137C17.4657 43.9451 16.7431 43.4902 15.8999 43.2627C15.0567 42.9215 13.9727 42.8078 12.7681 42.8078H8.07052H7.10689C6.866 42.8078 6.50463 42.6941 6.26373 42.5804C6.02281 42.4666 5.90237 42.3529 5.78191 42.1255C5.66146 41.898 5.54102 41.6706 5.54102 41.3294C5.54102 41.1019 5.54102 40.7608 5.66146 40.5333C5.78191 40.3059 5.90237 40.0784 6.14327 39.851C6.38418 39.6235 6.50462 39.5098 6.74554 39.2823C6.98644 39.1686 7.22735 38.9412 7.46825 38.8274H7.95006H8.55233H9.15459H9.75686C10.9614 38.8274 12.166 38.7137 13.009 38.3725C13.852 38.0313 14.6953 37.5764 15.2976 37.0078C15.8999 36.4392 16.3817 35.6431 16.7431 34.847C17.1044 33.9372 17.2249 33.0274 17.2249 32.1176C17.2249 30.9804 17.1044 30.0706 16.7431 29.2745C16.3817 28.4784 15.8999 27.6823 15.2976 27C15.1772 26.8863 15.0567 26.7725 14.9363 26.6588C14.8158 26.5451 14.8158 26.4314 14.9363 26.3176C15.0567 26.2039 15.1772 25.9765 15.2976 25.8627C15.5385 25.6353 15.7794 25.4078 16.0203 25.2941C16.2612 25.1804 16.5022 25.0666 16.6226 25.0666C16.8635 25.0666 16.984 25.0666 17.1044 25.1804C17.2249 25.2941 17.3454 25.2941 17.4658 25.4078L17.5863 25.5215C17.7066 25.6353 17.9475 25.6353 18.068 25.6353C18.3089 25.5216 18.4295 25.4078 18.5498 25.1804C18.6703 24.9529 18.7907 24.7255 18.9112 24.498V23.7019C18.9112 23.4745 18.7907 23.1333 18.5498 22.9059C18.4295 22.6784 18.1886 22.451 18.068 22.3372C17.8272 22.2235 17.5863 21.9961 17.3454 21.9961C17.1044 21.8823 16.7431 21.8823 16.5022 21.9961C16.1408 22.1098 15.7794 22.2235 15.5385 22.3372C15.1772 22.5647 14.8158 22.7921 14.5749 23.1333C14.334 23.4745 14.0931 23.8157 13.8522 24.1568C13.7317 24.498 13.4908 24.8392 13.3704 25.1804V25.2941C13.3704 25.4078 13.2499 25.4078 13.2499 25.5215H13.009C12.8886 25.5215 12.7681 25.4078 12.5272 25.4078C12.0454 25.2941 11.684 25.1804 11.2022 25.0666C10.7204 24.9529 10.2386 24.9529 9.75679 24.9529C8.43181 24.9529 7.34781 25.0666 6.38412 25.4078C5.42043 25.749 4.57726 26.2039 3.97497 26.8863C3.37269 27.5686 2.77045 28.3647 2.52954 29.1608C2.16818 30.0706 2.04772 31.0941 2.04772 32.2314C2.04772 32.9137 2.16818 33.4823 2.28864 34.1647C2.4091 34.7333 2.64999 35.3019 3.01135 35.8706C3.3727 36.4392 3.73408 36.8941 4.21589 37.2353C4.69769 37.6902 5.1795 37.9176 5.78177 38.1451C4.81814 38.7137 4.09543 39.2823 3.73403 39.851C2.89086 40.8745 2.7704 42.1255 3.13176 43.149C3.25221 43.4902 3.49311 43.8313 3.61357 44.0588C3.85447 44.2863 4.09538 44.5137 4.33628 44.7412C4.5772 44.9686 4.81809 45.0823 5.17945 45.1961C4.45674 45.3098 3.85447 45.5372 3.25223 45.7647C2.64996 45.9921 2.04769 46.3333 1.5659 46.7882C1.08408 47.2431 0.722727 47.698 0.481813 48.2666C0.120457 48.949 0 49.6313 0 50.3137C0 52.1333 0.722711 53.498 2.1681 54.5215C3.61354 55.5451 5.78165 56 8.67256 56C10.5998 56 12.1658 55.7725 13.611 55.4313C14.936 55.0902 16.1406 54.6353 17.1041 53.9529C17.9472 53.3843 18.6701 52.5882 19.1518 51.6784C19.6336 50.7686 19.8746 49.6313 19.7541 48.6078C19.6336 47.9255 19.5135 47.1294 19.2726 46.3333ZM6.6249 28.251C7.22717 27.3412 8.1908 27 9.51581 27C10.8408 27 11.8044 27.4549 12.4067 28.251C13.009 29.047 13.2499 30.4117 13.2499 32.2314C13.2499 33.0274 13.2499 33.7098 13.009 34.5059C12.8885 35.0745 12.6476 35.5294 12.4067 35.9843C12.1658 36.3255 11.684 36.6666 11.3227 36.8941C10.8408 37.1215 10.2386 37.2353 9.63632 37.2353C8.31134 37.2353 7.34769 36.8941 6.74541 36.098C6.02268 35.1882 5.78178 33.9372 5.78178 32.2314C5.78178 30.4117 6.02265 29.1608 6.6249 28.251ZM15.8998 51.2235C15.6589 51.7921 15.2975 52.3608 14.6952 52.7019C14.093 53.1568 13.3702 53.498 12.4066 53.7255C11.443 53.9529 10.2385 54.0666 8.67253 54.0666C7.58845 54.0666 6.74531 53.9529 6.0225 53.7255C5.29978 53.498 4.81796 53.2706 4.33617 52.9294C3.97481 52.5882 3.61346 52.1333 3.493 51.6784C3.37254 51.1098 3.2521 50.6549 3.2521 50.0862C3.2521 49.2902 3.37254 48.6078 3.61346 48.1529C3.85436 47.698 4.21573 47.3568 4.69752 47.0157C5.17934 46.7882 5.66115 46.5608 6.14296 46.447C6.74523 46.3333 7.22704 46.3333 7.8293 46.3333H12.0451C12.6474 46.3333 13.2497 46.3333 13.852 46.447C14.3338 46.5608 14.8156 46.6745 15.177 46.9019C15.5383 47.1294 15.7792 47.4706 16.0201 47.8117C16.261 48.1529 16.261 48.7215 16.261 49.2902C16.261 49.9725 16.1407 50.6549 15.8998 51.2235Z" fill="#27B6C1"/>
<path d="M19.3944 25.749C19.3944 26.4314 19.9965 27.1137 20.7193 27.1137H20.8397C21.2011 27.1137 21.5625 27.3412 21.9239 27.4549C22.2852 27.6823 22.526 27.9098 22.6466 28.251C22.8874 28.5922 22.8874 29.047 22.8874 29.6157V39.0549C22.8874 40.4196 23.008 41.5569 23.3692 42.5804C23.7306 43.6039 24.092 44.4 24.6943 44.9686C25.2966 45.651 26.0192 46.1059 26.8624 46.3333C27.8261 46.6745 28.7896 46.7882 29.7533 46.7882C30.3556 46.7882 31.0782 46.7882 31.6805 46.6745C33.0055 46.447 34.21 45.8784 35.0532 45.0823C35.4146 44.7412 36.0169 44.0588 36.3781 43.6039C36.3781 43.6039 36.4986 43.4902 36.619 43.6039L36.7395 43.7176C36.7395 44.4 36.9804 45.1961 37.5827 45.651C38.0645 46.2196 38.9076 46.447 39.6304 46.447H43.6054C43.8463 46.447 43.9666 46.3333 43.9666 46.1059V45.0823C43.9666 44.9686 43.8463 44.7412 43.6054 44.7412C43.244 44.7412 42.7622 44.7412 42.5213 44.6274C42.1599 44.6274 41.7985 44.5137 41.4371 44.2863C41.0759 44.0588 40.835 43.8314 40.7145 43.4902C40.4736 43.149 40.4736 42.6941 40.4736 42.1255V25.749C40.4736 25.6353 40.4736 25.5216 40.3531 25.5216C40.2327 25.4078 40.2327 25.4078 40.1122 25.4078H33.3669C33.2463 25.4078 33.126 25.4078 33.126 25.5216C33.0055 25.6353 33.0055 25.6353 33.0055 25.749C33.0055 26.4314 33.6077 27.1137 34.3306 27.1137H34.4509C34.8123 27.1137 35.1737 27.3412 35.535 27.4549C35.8964 27.6823 36.1372 28.0235 36.2578 28.3647C36.4987 28.7059 36.4987 29.2745 36.4987 29.8431V38.0314C36.4987 38.9412 36.3781 39.7372 36.1372 40.647C36.0169 41.3294 35.6555 42.0118 35.1737 42.6941C34.6918 43.2627 34.21 43.7176 33.6077 43.9451C33.0055 44.2863 32.1623 44.4 31.1988 44.4C30.3556 44.4 29.6328 44.2863 29.151 44.0588C28.6693 43.8314 28.1873 43.4902 27.8261 43.0353C27.4647 42.4667 27.2238 41.898 27.1033 41.3294C26.9829 40.5333 26.8624 39.851 26.8624 39.0549V25.749C26.8624 25.5216 26.7419 25.4078 26.501 25.4078H19.7557C19.5148 25.4078 19.3944 25.5216 19.3944 25.749Z" fill="#27B6C1"/>
<path d="M59.5046 25.7475C58.7819 25.2926 57.6977 24.9514 56.1319 24.9514C55.1682 24.9514 54.4456 25.0651 53.8433 25.2926C53.241 25.52 52.7592 25.8612 52.2775 26.2024C51.9161 26.6573 51.5547 27.1122 51.1933 27.5671C51.0729 27.7946 50.832 28.2495 50.5911 28.5906C50.5911 28.7044 50.4706 28.7044 50.3501 28.7044C50.2297 28.7044 50.2297 28.5906 50.2297 28.4769V26.9985C50.2297 26.0887 49.3866 25.2926 48.4229 25.2926H42.6412C42.4003 25.2926 42.2798 25.4063 42.2798 25.6338C42.2798 26.3161 42.8821 26.9985 43.6047 26.9985H44.3276C44.6888 26.9985 45.0502 27.2259 45.4116 27.3397C45.773 27.5671 46.0139 27.7946 46.1343 28.1357C46.3751 28.4769 46.3751 28.9318 46.3751 29.5004V45.9906C46.3751 46.2181 46.4957 46.3318 46.7365 46.3318H54.4456C54.6865 46.3318 54.807 46.2181 54.807 45.9906V44.9671C54.807 44.7396 54.6865 44.6259 54.4456 44.6259H53.6024C53.1206 44.6259 52.7592 44.6259 52.2775 44.5122C51.9161 44.5122 51.5547 44.2847 51.1933 44.171C50.832 43.9436 50.5911 43.7161 50.4706 43.3749C50.2297 43.0338 50.2297 42.5789 50.2297 42.0102V35.7553C50.2297 35.3004 50.2297 34.7318 50.3501 34.0495C50.3501 33.4808 50.4706 32.7985 50.5911 32.2298C50.7115 31.6612 50.832 30.9789 51.0729 30.4102C51.3138 29.8416 51.5547 29.3867 51.7955 28.8181C52.0364 28.3632 52.3978 28.022 52.8796 27.6808C53.241 27.4534 53.7228 27.2259 54.2047 27.2259C55.0479 27.2259 55.5296 27.4534 55.891 27.9083C56.1319 28.3632 56.3728 29.0455 56.3728 29.9553C56.3728 30.1828 56.4933 30.2965 56.7342 30.2965C57.216 30.2965 57.6977 30.1828 58.1796 30.0691C58.6614 29.9553 59.0228 29.7279 59.3841 29.5004C59.7455 29.273 59.866 28.9318 60.1069 28.5906C60.2272 28.2495 60.3477 27.7946 60.3477 27.4534C60.5886 26.9985 60.2272 26.3161 59.5046 25.7475Z" fill="#27B6C1"/>
<path d="M85.6426 44.9686C85.2812 44.9686 84.9198 44.9686 84.7995 44.8549C84.4381 44.8549 84.0767 44.7412 83.7152 44.5137C83.354 44.2863 83.1131 44.0588 82.9926 43.7176C82.7517 43.3765 82.7517 42.9216 82.7517 42.3529V25.749C82.7517 25.6353 82.7517 25.5216 82.6312 25.5216C82.5108 25.4078 82.5108 25.4078 82.3903 25.4078H75.645C75.4041 25.4078 75.2836 25.5216 75.2836 25.749C75.2836 26.4314 75.8859 27.1137 76.6087 27.1137H76.729C77.0904 27.1137 77.4518 27.3412 77.8131 27.4549C78.1745 27.6823 78.4154 28.0235 78.5359 28.3647C78.7768 28.7059 78.7768 29.2745 78.7768 29.8431V38.0314C78.7768 38.9412 78.6562 39.7372 78.4154 40.647C78.295 41.3294 77.9336 42.0118 77.4518 42.6941C76.9699 43.2627 76.4881 43.7176 75.8859 43.9451C75.2836 44.2863 74.4404 44.4 73.4769 44.4C72.6337 44.4 71.9109 44.2863 71.4291 44.0588C70.9474 43.8314 70.4654 43.4902 70.1042 43.0353C69.7428 42.4667 69.5019 41.898 69.3814 41.3294C69.261 40.5333 69.1405 39.851 69.1405 39.0549V25.749C69.1405 25.5216 69.02 25.4078 68.7791 25.4078H62.0338C61.7929 25.4078 61.6725 25.5216 61.6725 25.749C61.6725 26.4314 62.2746 27.1137 62.9975 27.1137H63.1178C63.4792 27.1137 63.8406 27.3412 64.202 27.4549C64.5633 27.6823 64.8042 27.9098 64.9247 28.251C65.1656 28.5922 65.1656 29.047 65.1656 29.6157V39.0549C65.1656 40.4196 65.2861 41.5569 65.6473 42.5804C66.0087 43.6039 66.3701 44.4 66.9724 44.9686C67.5747 45.651 68.2973 46.1059 69.1405 46.3333C70.1042 46.6745 71.0677 46.7882 72.0314 46.7882C72.6337 46.7882 73.3564 46.7882 73.9586 46.6745C75.2836 46.447 76.4881 45.8784 77.3313 45.0823C77.6927 44.7412 78.295 44.0588 78.6562 43.6039C78.6562 43.6039 78.7768 43.4902 78.8971 43.6039L79.0176 43.7176C79.0176 44.4 79.2585 45.1961 79.8608 45.651C80.3426 46.2196 81.1857 46.447 81.9086 46.447H104.554C104.675 46.447 104.795 46.3333 104.795 46.2196V45.0823C104.795 44.9686 104.675 44.8549 104.554 44.8549L85.6426 44.9686Z" fill="#27B6C1"/>
</svg>
