<svg width="105" height="102" viewBox="0 0 105 102" fill="none" xmlns="http://www.w3.org/2000/svg">
<rect width="105" height="102" rx="5" fill="#99C2FF"/>
<path d="M26.625 23.625V77.375H80.375V23.625H26.625ZM55.8906 63.9219C55.8906 70.5312 52.6875 72.7344 47.9375 72.7344C46.6961 72.7327 45.4626 72.5376 44.2812 72.1563L44.8125 68.625C45.6773 68.9213 46.5859 69.0692 47.5 69.0625C50 69.0625 51.5156 67.9375 51.5156 63.7812V48.4062H55.8906V63.9219ZM66.0781 72.7031C63.8279 72.7073 61.6096 72.1715 59.6094 71.1406L60.5781 67.5156C62.3442 68.5117 64.332 69.0489 66.3594 69.0781C69.125 69.0938 70.6875 67.7813 70.6875 65.8281C70.6875 63.875 69.5 63 66.4688 61.8594C62.5156 60.4531 60 58.3281 60 54.9062C60 50.9844 63.2656 48.0312 68.4688 48.0312C70.447 47.971 72.4115 48.3778 74.2031 49.2188L73.1563 52.7344C71.6757 51.9815 70.0359 51.5957 68.375 51.6094C65.5938 51.6094 64.4219 53.0781 64.4219 54.4844C64.4219 56.3281 65.8125 57.1875 69 58.4062C73.1562 59.9687 75.1563 62.0781 75.1563 65.5156C75.1563 69.375 72.25 72.7031 66.0781 72.7031Z" fill="#0A65CC"/>
</svg>
