<svg width="105" height="102" viewBox="0 0 105 102" fill="none" xmlns="http://www.w3.org/2000/svg">
<rect width="105" height="102" rx="5" fill="#ED6B23"/>
<path d="M81.125 70.1875V53C81.125 51.1025 79.445 49.5625 77.375 49.5625H69.875C67.805 49.5625 66.125 51.1025 66.125 53V70.1875C66.125 72.085 67.805 73.625 69.875 73.625H77.375C79.445 73.625 81.125 72.085 81.125 70.1875Z" fill="#F44336"/>
<path d="M56.75 73.625C58.82 73.625 60.5 72.085 60.5 70.1875V35.8125C60.5 33.915 58.82 32.375 56.75 32.375H49.25C47.1825 32.375 45.5 33.915 45.5 35.8125V70.1875C45.5 72.085 47.1825 73.625 49.25 73.625H56.75Z" fill="#2196F3"/>
<path d="M24.875 70.1875C24.875 72.085 26.5575 73.625 28.625 73.625H36.125C38.195 73.625 39.875 72.085 39.875 70.1875V46.125C39.875 44.2275 38.195 42.6875 36.125 42.6875H28.625C26.5575 42.6875 24.875 44.2275 24.875 46.125V70.1875Z" fill="#FFC107"/>
<path d="M77.61 75.5H69.64C66.6675 75.5 64.25 73.1175 64.25 70.1875V53C64.25 50.07 66.6675 47.6875 69.64 47.6875H77.61C80.5825 47.6875 83 50.07 83 53V70.1875C83 73.1175 80.5825 75.5 77.61 75.5ZM69.64 51.4375C68.735 51.4375 68 52.1375 68 53V70.1875C68 71.05 68.735 71.75 69.64 71.75H77.61C78.515 71.75 79.25 71.05 79.25 70.1875V53C79.25 52.1375 78.515 51.4375 77.61 51.4375H69.64ZM56.4375 75.5H49.5625C46.6325 75.5 44.25 73.1175 44.25 70.1875V35.8125C44.25 32.8825 46.6325 30.5 49.5625 30.5H56.4375C59.3675 30.5 61.75 32.8825 61.75 35.8125V70.1875C61.75 73.1175 59.3675 75.5 56.4375 75.5ZM49.5625 34.25C48.7 34.25 48 34.95 48 35.8125V70.1875C48 71.05 48.7 71.75 49.5625 71.75H56.4375C57.3 71.75 58 71.05 58 70.1875V35.8125C58 34.95 57.3 34.25 56.4375 34.25H49.5625ZM36.36 75.5H28.39C25.4175 75.5 23 73.1175 23 70.1875V46.125C23 43.195 25.4175 40.8125 28.39 40.8125H36.36C39.3325 40.8125 41.75 43.195 41.75 46.125V70.1875C41.75 73.1175 39.3325 75.5 36.36 75.5ZM28.39 44.5625C27.485 44.5625 26.75 45.2625 26.75 46.125V70.1875C26.75 71.05 27.485 71.75 28.39 71.75H36.36C37.265 71.75 38 71.05 38 70.1875V46.125C38 45.2625 37.265 44.5625 36.36 44.5625H28.39Z" fill="black"/>
</svg>
