<svg width="105" height="107" viewBox="0 0 105 107" fill="none" xmlns="http://www.w3.org/2000/svg">
<rect width="105" height="102" rx="5" fill="#7928AA"/>
<path d="M28.5241 88.3443H26.1401C25.6868 88.3443 25.3193 88.7118 25.3193 89.165V100.939C25.3193 101.392 25.6868 101.76 26.1401 101.76H28.5241C28.9773 101.76 29.3448 101.392 29.3448 100.939V89.165C29.3448 88.7118 28.9773 88.3443 28.5241 88.3443Z" fill="#FF832F"/>
<path d="M24.592 42.2598C25.0025 42.45 25.3813 42.7022 25.7152 43.0074C26.3901 43.6389 26.8631 44.456 27.0745 45.3557C27.0952 44.5528 27.3957 43.7823 27.9242 43.1773C28.3685 42.6822 28.9479 42.3278 29.5911 42.1578C29.0336 42.079 28.5064 41.8559 28.0618 41.5104C27.4281 41.0001 27.0046 40.2742 26.8723 39.4713C26.8612 40.0425 26.6841 40.5981 26.3626 41.0703C25.938 41.6702 25.3079 42.0935 24.592 42.2598ZM28.75 44.6217C28.8881 44.6868 29.0158 44.7722 29.1289 44.8749C29.3566 45.0871 29.5163 45.362 29.5877 45.665C29.5921 45.4172 29.6775 45.1777 29.831 44.9832C29.9844 44.7886 30.1974 44.6497 30.4373 44.5877C30.2515 44.5603 30.0759 44.4854 29.9275 44.3702C29.7159 44.1997 29.5734 43.9582 29.5265 43.6905C29.5238 43.8828 29.4648 44.0701 29.3566 44.2292C29.2104 44.4311 28.9941 44.5711 28.75 44.6217ZM24.3269 40.3362C24.4212 40.3793 24.5083 40.4366 24.5852 40.5062C24.741 40.652 24.8503 40.8406 24.8995 41.0482C24.9025 40.8786 24.9612 40.7147 25.0665 40.5818C25.1718 40.4488 25.318 40.3542 25.4824 40.3125C25.354 40.2945 25.2327 40.2429 25.1306 40.1629C24.984 40.0453 24.886 39.8777 24.8554 39.6922C24.8532 39.843 24.8001 39.9887 24.7048 40.1056C24.6095 40.2224 24.4776 40.3037 24.3303 40.3362H24.3269ZM55.8763 27.3219C56.1743 27.4606 56.4493 27.644 56.6919 27.8657C57.1818 28.3223 57.5258 28.9134 57.6809 29.5649C57.6909 29.0309 57.8751 28.5149 58.2055 28.0953C58.5358 27.6756 58.9942 27.3755 59.5109 27.2404C59.1049 27.1854 58.7208 27.0235 58.3979 26.7714C57.9372 26.3999 57.6294 25.8719 57.533 25.288C57.5256 25.7056 57.3962 26.1119 57.1609 26.457C56.8533 26.8932 56.3961 27.201 55.8763 27.3219ZM58.8975 29.0347C58.9983 29.0811 59.0912 29.143 59.1728 29.2183C59.341 29.3714 59.4594 29.5715 59.5126 29.7926C59.5184 29.5959 59.5923 29.4073 59.7216 29.259C59.8302 29.1376 59.972 29.0508 60.1294 29.0093C59.9924 28.991 59.8628 28.9365 59.7539 28.8512C59.5988 28.7262 59.4954 28.5483 59.4634 28.3517C59.46 28.4913 59.4164 28.6271 59.3376 28.7425C59.232 28.8909 59.0753 28.995 58.8975 29.0347ZM55.6826 25.9184C55.7873 25.9672 55.8793 26.0395 55.9515 26.1297C56.0237 26.2199 56.0742 26.3255 56.0989 26.4383C56.1031 26.3038 56.1535 26.1748 56.2416 26.073C56.316 25.9905 56.4129 25.9314 56.5203 25.9031C56.4268 25.8908 56.3382 25.8538 56.2637 25.796C56.1584 25.7106 56.0878 25.5898 56.0649 25.4562C56.0624 25.5519 56.0329 25.6449 55.98 25.7247C55.9072 25.8228 55.8017 25.8915 55.6826 25.9184ZM39.9257 85.3401L30.4866 85.4114C31.0586 81.6437 31.6307 77.8777 32.2028 74.1133H41.6419C41.0733 77.855 40.5012 81.5972 39.9257 85.3401Z" fill="#FFB833"/>
<path d="M56.8687 84.7912H24.6125C24.0419 84.7912 23.5793 85.2537 23.5793 85.8243V85.9518C23.5793 86.5223 24.0419 86.9849 24.6125 86.9849H56.8687C57.4393 86.9849 57.9019 86.5223 57.9019 85.9518V85.8243C57.9019 85.2537 57.4393 84.7912 56.8687 84.7912Z" fill="#FF832F"/>
<path d="M60.172 78.5805H20.9676C20.4981 78.5811 20.045 78.4077 19.6958 78.0939C19.3466 77.7802 19.1259 77.3482 19.0764 76.8813L16.5496 52.2953C16.5223 52.0306 16.5508 51.763 16.6334 51.51C16.716 51.2569 16.8508 51.0241 17.029 50.8264C17.2073 50.6288 17.4251 50.4707 17.6683 50.3626C17.9115 50.2544 18.1747 50.1985 18.4408 50.1985H55.9205C56.3678 50.1995 56.8004 50.3582 57.1422 50.6466C57.4841 50.935 57.7133 51.3347 57.7897 51.7754L62.0377 76.3563C62.0849 76.6286 62.0721 76.908 62.0002 77.175C61.9283 77.4419 61.799 77.6899 61.6214 77.9017C61.4437 78.1135 61.222 78.284 60.9717 78.4012C60.7213 78.5185 60.4484 78.5797 60.172 78.5805Z" fill="#FF832F"/>
<path d="M20.9677 76.8644C20.921 76.8649 20.8758 76.8477 20.8414 76.8161C20.807 76.7845 20.7859 76.741 20.7825 76.6944L18.2574 52.1152C18.2536 52.0895 18.2558 52.0633 18.2638 52.0385C18.2717 52.0138 18.2852 51.9912 18.3033 51.9725C18.32 51.9524 18.3411 51.9364 18.365 51.9258C18.3888 51.9152 18.4148 51.9103 18.4409 51.9113H55.9206C55.9647 51.9108 56.0074 51.9261 56.0411 51.9545C56.0748 51.9829 56.0972 52.0225 56.1041 52.066L60.3522 76.6452C60.3566 76.6718 60.3552 76.699 60.348 76.7251C60.3408 76.7511 60.3281 76.7752 60.3106 76.7957C60.2931 76.8163 60.2714 76.8328 60.2468 76.844C60.2223 76.8553 60.1956 76.8611 60.1687 76.861L20.9677 76.8644Z" fill="#FFF3E3"/>
<path d="M73.8353 86.9832H15.1987C14.8636 86.9832 14.592 87.2548 14.592 87.5898V89.4811C14.592 89.8161 14.8636 90.0877 15.1987 90.0877H73.8353C74.1703 90.0877 74.4419 89.8161 74.4419 89.4811V87.5898C74.4419 87.2548 74.1703 86.9832 73.8353 86.9832Z" fill="#FFB833"/>
<path d="M51.3496 33.2097H38.1569C35.3321 33.2097 33.0422 35.4996 33.0422 38.3244V38.9463C33.0422 41.771 35.3321 44.0609 38.1569 44.0609H51.3496C54.1744 44.0609 56.4643 41.771 56.4643 38.9463V38.3244C56.4643 35.4996 54.1744 33.2097 51.3496 33.2097Z" fill="#FFB833"/>
<path d="M48.1245 42.8834C48.0672 43.5018 48.1763 44.1243 48.4405 44.6863C49.0319 45.9097 50.2485 46.428 51.1151 46.6472C51.1975 46.6676 51.2841 46.6642 51.3647 46.6372C51.4452 46.6102 51.5164 46.5609 51.5699 46.4949C51.6234 46.4289 51.657 46.3491 51.6667 46.2647C51.6764 46.1803 51.6619 46.0949 51.6249 46.0185C51.1095 44.9461 50.9724 43.7309 51.2358 42.5707L48.1245 42.8834Z" fill="#FFB833"/>
<path d="M75.2186 54.9682C81.892 54.9682 87.3018 49.5584 87.3018 42.8851C87.3018 36.2117 81.892 30.8019 75.2186 30.8019C68.5453 30.8019 63.1355 36.2117 63.1355 42.8851C63.1355 49.5584 68.5453 54.9682 75.2186 54.9682Z" fill="#FFDB99"/>
<path d="M80.5507 53.235C80.7376 55.4881 81.3884 58.5026 83.6552 60.7115C84.8056 61.8279 85.6603 62.0437 86.5218 62.6283C90.5761 65.3827 89.8692 73.0326 89.7503 78.7182C89.6449 83.7445 89.9202 90.6433 91.5888 99.1632C91.5888 99.1632 76.8056 105.01 61.8049 99.1632C61.8049 99.1632 62.5815 96.9389 63.3342 93.8956C64.3538 89.8175 64.6001 86.3833 64.7361 83.7122C65.4158 70.5041 62.6104 66.3071 65.5993 63.5866C67.9595 61.4388 71.0691 62.8169 72.736 60.0183C72.736 60.0183 73.1387 59.3386 74.0002 54.1543L80.5507 53.235Z" fill="#FFDB99"/>
<path d="M80.2636 55.116C71.6367 57.9843 67.8763 56.6844 66.0326 55.0294C60.935 50.4517 63.1355 36.5708 63.1355 36.5691C63.1355 36.5691 72.8023 25.6941 82.2959 33.0908C82.9603 33.6005 85.6943 35.6396 86.7835 39.2538C88.3689 44.5401 85.7793 50.8799 80.2636 55.116Z" fill="#FFDB99"/>
<path d="M67.9426 42.3566C67.3431 41.9871 66.6439 41.812 65.9409 41.8554C65.4634 41.8792 64.8177 41.908 64.6461 42.2955C64.6072 42.3796 64.5914 42.4726 64.6003 42.5649C64.6093 42.6572 64.6427 42.7454 64.6971 42.8205C64.9418 43.1043 65.4821 42.7933 66.3963 42.7203C67.5858 42.6251 68.398 43.021 68.4643 42.8443C68.505 42.7169 68.1006 42.4586 67.9426 42.3566Z" fill="#383333"/>
<path d="M70.9159 47.4694C70.9206 47.0133 70.3304 46.6374 69.5975 46.6297C68.8646 46.6221 68.2666 46.9856 68.2618 47.4416C68.257 47.8977 68.8473 48.2736 69.5802 48.2813C70.3131 48.289 70.9111 47.9255 70.9159 47.4694Z" fill="#FFC871"/>
<path d="M74.1345 43.3303C74.3197 43.08 74.5543 42.8703 74.8238 42.7142C75.0933 42.5581 75.3919 42.459 75.7012 42.4229C76.077 42.3791 76.4568 42.4584 76.7836 42.6489C77.8473 43.3728 77.9187 46.1714 76.4234 47.1264C75.5874 47.6582 74.5746 47.4169 74.2297 47.3184C74.198 45.985 74.1662 44.6557 74.1345 43.3303Z" fill="#FFDB99"/>
<path d="M75.6417 46.3787C75.6275 46.3791 75.6135 46.3743 75.6026 46.3651C75.596 46.3601 75.5905 46.3538 75.5863 46.3467C75.5821 46.3395 75.5794 46.3316 75.5783 46.3234C75.5772 46.3152 75.5777 46.3068 75.5799 46.2988C75.582 46.2908 75.5857 46.2833 75.5907 46.2767C75.9068 45.8604 76.0172 45.4679 75.9221 45.1094C75.7522 44.4857 75.0164 44.1629 75.0096 44.1595C74.9965 44.154 74.9856 44.1444 74.9786 44.1321C74.9715 44.1198 74.9687 44.1056 74.9705 44.0915C74.973 44.0774 74.98 44.0645 74.9904 44.0547C75.0008 44.0449 75.0141 44.0388 75.0283 44.0371L76.5865 43.8672C76.5947 43.8663 76.6031 43.867 76.6111 43.8693C76.6191 43.8716 76.6265 43.8755 76.633 43.8807C76.6395 43.8859 76.6449 43.8924 76.6489 43.8997C76.6528 43.907 76.6553 43.915 76.6561 43.9233C76.6573 43.9316 76.6568 43.9401 76.6546 43.9481C76.6524 43.9562 76.6485 43.9638 76.6432 43.9703C76.638 43.9768 76.6314 43.9822 76.624 43.9861C76.6166 43.99 76.6084 43.9924 76.6001 43.993L75.2509 44.1408C75.5007 44.2869 75.9187 44.5945 76.0461 45.0737C76.1515 45.473 76.0325 45.9029 75.6927 46.3515C75.6869 46.3597 75.6793 46.3664 75.6704 46.3711C75.6616 46.3758 75.6517 46.3784 75.6417 46.3787Z" fill="#383333"/>
<path fill-rule="evenodd" clip-rule="evenodd" d="M66.3317 46.0745C66.2031 46.2248 66.0327 46.3336 65.8422 46.3869C65.6517 46.4403 65.4496 46.4359 65.2616 46.3744C65.0736 46.3128 64.9081 46.1968 64.7861 46.041C64.6641 45.8853 64.5911 45.6968 64.5763 45.4996C64.5615 45.3023 64.6056 45.105 64.703 44.9328C64.8005 44.7607 64.9468 44.6213 65.1235 44.5323C65.3003 44.4434 65.4994 44.409 65.6957 44.4333C65.8921 44.4577 66.0767 44.5398 66.2264 44.6693C66.4261 44.842 66.5492 45.0868 66.569 45.3502C66.5887 45.6135 66.5034 45.8739 66.3317 46.0745Z" fill="#383333"/>
<path d="M73.5448 56.7813C73.5223 56.7813 73.5007 56.7724 73.4848 56.7564C73.4688 56.7405 73.4599 56.7189 73.4599 56.6964C73.4599 56.6738 73.4688 56.6522 73.4848 56.6363C73.5007 56.6203 73.5223 56.6114 73.5448 56.6114C75.4616 56.5026 78.9195 55.4542 78.9535 55.4423C78.9753 55.4364 78.9986 55.4391 79.0185 55.4499C79.0384 55.4606 79.0535 55.4786 79.0605 55.5001C79.0668 55.5217 79.0643 55.545 79.0534 55.5647C79.0426 55.5845 79.0244 55.5991 79.0027 55.6055C78.9688 55.6156 75.4922 56.6709 73.555 56.7813H73.5448ZM65.7743 52.1153C65.6925 52.1154 65.6107 52.1097 65.5296 52.0983C65.5213 52.0972 65.5133 52.0945 65.5061 52.0904C65.4989 52.0862 65.4925 52.0806 65.4875 52.074C65.4824 52.0673 65.4787 52.0598 65.4766 52.0517C65.4745 52.0436 65.4741 52.0352 65.4753 52.0269C65.4761 52.0185 65.4786 52.0104 65.4827 52.003C65.4868 51.9957 65.4924 51.9892 65.4991 51.9841C65.5058 51.979 65.5135 51.9754 65.5216 51.9734C65.5298 51.9714 65.5383 51.9711 65.5466 51.9725C65.8162 52.0109 66.0912 51.9804 66.3458 51.8839C66.6005 51.7873 66.8265 51.6278 67.0029 51.4203C67.0138 51.4073 67.0293 51.3992 67.0461 51.3976C67.063 51.396 67.0798 51.4011 67.0929 51.4118C67.0989 51.4176 67.1037 51.4246 67.107 51.4324C67.1102 51.4401 67.1119 51.4484 67.1119 51.4568C67.1119 51.4652 67.1102 51.4735 67.107 51.4812C67.1037 51.489 67.0989 51.496 67.0929 51.5018C66.9302 51.6946 66.7272 51.8495 66.4982 51.9554C66.2692 52.0614 66.0198 52.116 65.7675 52.1153H65.7743Z" fill="#383333"/>
<path d="M62.6818 43.0856C62.6818 43.0856 62.799 44.7169 61.737 45.5427C60.675 46.3685 61.7166 48.0915 64.0004 47.5019C64.0004 47.5019 64.1176 42.9157 62.6818 43.0856Z" fill="#FFDB99"/>
<path d="M64.7344 83.7105C64.5984 86.3817 64.3453 89.8107 63.3325 93.8939C62.5781 96.9372 61.8032 99.1615 61.8032 99.1615C76.8107 105.009 91.5871 99.1615 91.5871 99.1615C89.9253 90.6416 89.6432 83.7428 89.7486 78.7165C89.8675 73.0309 90.5744 65.381 86.5201 62.6266C85.995 62.2698 85.4716 62.0506 84.8837 61.6801C79.956 63.4252 70.9722 61.5867 70.9722 61.5867C69.3223 62.3105 67.2832 62.0608 65.601 63.585C62.6121 66.3054 65.4141 70.5025 64.7344 83.7105Z" fill="#383333"/>
<path d="M24.2318 54.8918H22.7025C22.6309 54.8918 22.5622 54.8633 22.5115 54.8127C22.4608 54.762 22.4324 54.6933 22.4324 54.6216C22.4324 54.55 22.4608 54.4812 22.5115 54.4306C22.5622 54.3799 22.6309 54.3514 22.7025 54.3514H24.2318C24.3035 54.3514 24.3722 54.3799 24.4229 54.4306C24.4736 54.4812 24.502 54.55 24.502 54.6216C24.502 54.6933 24.4736 54.762 24.4229 54.8127C24.3722 54.8633 24.3035 54.8918 24.2318 54.8918ZM25.7781 54.6216C25.7781 54.55 25.8066 54.4812 25.8573 54.4306C25.9079 54.3799 25.9767 54.3514 26.0483 54.3514C26.12 54.3514 26.1887 54.3799 26.2394 54.4306C26.29 54.4812 26.3185 54.55 26.3185 54.6216C26.3185 54.6933 26.29 54.762 26.2394 54.8127C26.1887 54.8633 26.12 54.8918 26.0483 54.8918C25.9767 54.8918 25.9079 54.8633 25.8573 54.8127C25.8066 54.762 25.7781 54.6933 25.7781 54.6216Z" fill="#FFB833"/>
<path d="M47.1221 54.8917C47.0687 54.8917 47.0164 54.8759 46.972 54.8462C46.9276 54.8165 46.8929 54.7743 46.8725 54.7249C46.852 54.6756 46.8467 54.6213 46.8571 54.5688C46.8675 54.5164 46.8933 54.4683 46.931 54.4305C46.9688 54.3927 47.017 54.367 47.0694 54.3566C47.1218 54.3461 47.1761 54.3515 47.2255 54.3719C47.2748 54.3924 47.317 54.427 47.3467 54.4715C47.3764 54.5159 47.3923 54.5681 47.3923 54.6216C47.3923 54.6932 47.3638 54.7619 47.3131 54.8126C47.2625 54.8633 47.1937 54.8917 47.1221 54.8917ZM45.3073 54.8917H42.2181C42.1504 54.8922 42.085 54.8673 42.0346 54.8221C41.9858 54.8676 41.9213 54.8925 41.8545 54.8917C41.7829 54.8917 41.7141 54.8633 41.6635 54.8126C41.6128 54.7619 41.5843 54.6932 41.5843 54.6216C41.5843 54.5499 41.6128 54.4812 41.6635 54.4305C41.7141 54.3798 41.7829 54.3514 41.8545 54.3514C41.9215 54.3513 41.9859 54.3768 42.0346 54.4228C42.0848 54.377 42.1502 54.3516 42.2181 54.3514H45.3073C45.379 54.3514 45.4477 54.3798 45.4984 54.4305C45.549 54.4812 45.5775 54.5499 45.5775 54.6216C45.5775 54.6932 45.549 54.7619 45.4984 54.8126C45.4477 54.8633 45.379 54.8917 45.3073 54.8917ZM40.0397 54.8917H36.9489C36.8816 54.8924 36.8166 54.8675 36.767 54.8221C36.7177 54.8678 36.6525 54.8928 36.5852 54.8917C36.5412 54.8919 36.4978 54.8814 36.4589 54.861C36.4199 54.8406 36.3864 54.8109 36.3615 54.7747C36.3366 54.7384 36.3209 54.6966 36.3158 54.6529C36.3106 54.6092 36.3163 54.5649 36.3322 54.5239C36.3481 54.4829 36.3738 54.4463 36.407 54.4175C36.4403 54.3887 36.48 54.3684 36.5229 54.3584C36.5658 54.3484 36.6104 54.3491 36.6529 54.3603C36.6955 54.3715 36.7347 54.393 36.767 54.4228C36.8165 54.3768 36.8814 54.3513 36.9489 54.3514H40.038C40.1097 54.3514 40.1784 54.3798 40.2291 54.4305C40.2798 54.4812 40.3082 54.5499 40.3082 54.6216C40.3082 54.6932 40.2798 54.7619 40.2291 54.8126C40.1784 54.8633 40.1097 54.8917 40.038 54.8917H40.0397ZM34.7722 54.8917H31.6796C31.6124 54.8922 31.5474 54.8674 31.4978 54.8221C31.4484 54.8678 31.3833 54.8928 31.316 54.8917C31.2443 54.8917 31.1756 54.8633 31.1249 54.8126C31.0742 54.7619 31.0458 54.6932 31.0458 54.6216C31.0458 54.5499 31.0742 54.4812 31.1249 54.4305C31.1756 54.3798 31.2443 54.3514 31.316 54.3514C31.3835 54.351 31.4486 54.3765 31.4978 54.4228C31.5473 54.377 31.6122 54.3515 31.6796 54.3514H34.7688C34.8404 54.3514 34.9091 54.3798 34.9598 54.4305C35.0105 54.4812 35.0389 54.5499 35.0389 54.6216C35.0389 54.6932 35.0105 54.7619 34.9598 54.8126C34.9091 54.8633 34.8404 54.8917 34.7688 54.8917H34.7722ZM29.5046 54.8917H26.4103C26.3387 54.8917 26.2699 54.8633 26.2193 54.8126C26.1686 54.7619 26.1401 54.6932 26.1401 54.6216C26.1401 54.5499 26.1686 54.4812 26.2193 54.4305C26.2699 54.3798 26.3387 54.3514 26.4103 54.3514H29.4995C29.5711 54.3514 29.6399 54.3798 29.6905 54.4305C29.7412 54.4812 29.7697 54.5499 29.7697 54.6216C29.7697 54.6932 29.7412 54.7619 29.6905 54.8126C29.6399 54.8633 29.5711 54.8917 29.4995 54.8917H29.5046Z" fill="#FFB833"/>
<path d="M49.0182 54.8918H47.4889C47.4173 54.8918 47.3486 54.8633 47.2979 54.8127C47.2472 54.762 47.2188 54.6933 47.2188 54.6216C47.2188 54.55 47.2472 54.4812 47.2979 54.4306C47.3486 54.3799 47.4173 54.3514 47.4889 54.3514H49.0182C49.0899 54.3514 49.1586 54.3799 49.2093 54.4306C49.26 54.4812 49.2884 54.55 49.2884 54.6216C49.2884 54.6933 49.26 54.762 49.2093 54.8127C49.1586 54.8633 49.0899 54.8918 49.0182 54.8918ZM24.8927 57.7873H23.3634C23.2918 57.7873 23.2231 57.7588 23.1724 57.7081C23.1217 57.6575 23.0933 57.5887 23.0933 57.5171C23.0933 57.4454 23.1217 57.3767 23.1724 57.326C23.2231 57.2754 23.2918 57.2469 23.3634 57.2469H24.8927C24.9644 57.2469 25.0331 57.2754 25.0838 57.326C25.1344 57.3767 25.1629 57.4454 25.1629 57.5171C25.1629 57.5887 25.1344 57.6575 25.0838 57.7081C25.0331 57.7588 24.9644 57.7873 24.8927 57.7873ZM26.575 57.5171C26.5754 57.4453 26.6043 57.3766 26.6552 57.3259C26.7061 57.2753 26.775 57.2469 26.8468 57.2469C26.9182 57.2474 26.9865 57.276 27.0368 57.3266C27.0871 57.3773 27.1153 57.4457 27.1153 57.5171C27.1153 57.5884 27.0871 57.6569 27.0368 57.7075C26.9865 57.7581 26.9182 57.7868 26.8468 57.7873C26.775 57.7873 26.7061 57.7589 26.6552 57.7082C26.6043 57.6576 26.5754 57.5889 26.575 57.5171Z" fill="#FFB833"/>
<path d="M38.1773 57.7872C38.1238 57.7872 38.0716 57.7714 38.0272 57.7417C37.9827 57.712 37.9481 57.6698 37.9277 57.6205C37.9072 57.5711 37.9019 57.5168 37.9123 57.4644C37.9227 57.4119 37.9484 57.3638 37.9862 57.326C38.024 57.2882 38.0721 57.2625 38.1246 57.2521C38.177 57.2417 38.2313 57.247 38.2807 57.2675C38.33 57.2879 38.3722 57.3225 38.4019 57.367C38.4316 57.4114 38.4474 57.4636 38.4474 57.5171C38.4474 57.5525 38.4405 57.5877 38.4269 57.6205C38.4133 57.6532 38.3934 57.683 38.3683 57.7081C38.3432 57.7332 38.3134 57.7531 38.2807 57.7667C38.2479 57.7803 38.2127 57.7872 38.1773 57.7872ZM36.2232 57.7872H32.9029C32.8662 57.7873 32.83 57.7797 32.7963 57.7651C32.7627 57.7505 32.7325 57.7291 32.7075 57.7023C32.6768 57.7349 32.6385 57.7593 32.596 57.7734C32.5536 57.7876 32.5082 57.7909 32.4642 57.7832C32.4201 57.7755 32.3786 57.7569 32.3435 57.7292C32.3083 57.7015 32.2806 57.6655 32.2628 57.6244C32.2451 57.5833 32.2378 57.5385 32.2416 57.4939C32.2454 57.4493 32.2603 57.4063 32.2848 57.3689C32.3094 57.3315 32.3428 57.3007 32.3822 57.2794C32.4216 57.2581 32.4656 57.247 32.5104 57.2469C32.5471 57.2471 32.5834 57.2546 32.6172 57.2688C32.6511 57.2831 32.6817 57.304 32.7075 57.3302C32.7328 57.3039 32.7631 57.283 32.7967 57.2686C32.8303 57.2543 32.8664 57.2469 32.9029 57.2469H36.2232C36.2948 57.2469 36.3635 57.2754 36.4142 57.326C36.4649 57.3767 36.4933 57.4454 36.4933 57.5171C36.4933 57.5887 36.4649 57.6574 36.4142 57.7081C36.3635 57.7588 36.2948 57.7872 36.2232 57.7872ZM30.5563 57.7872H27.236C27.1643 57.7872 27.0956 57.7588 27.045 57.7081C26.9943 57.6574 26.9658 57.5887 26.9658 57.5171C26.9658 57.4454 26.9943 57.3767 27.045 57.326C27.0956 57.2754 27.1643 57.2469 27.236 57.2469H30.5563C30.6279 57.2469 30.6966 57.2754 30.7473 57.326C30.798 57.3767 30.8264 57.4454 30.8264 57.5171C30.8264 57.5887 30.798 57.6574 30.7473 57.7081C30.6966 57.7588 30.6279 57.7872 30.5563 57.7872Z" fill="#FFB833"/>
<path d="M40.0956 57.7872H38.5663C38.4947 57.7872 38.426 57.7588 38.3753 57.7081C38.3246 57.6574 38.2962 57.5887 38.2962 57.5171C38.2962 57.4454 38.3246 57.3767 38.3753 57.326C38.426 57.2754 38.4947 57.2469 38.5663 57.2469H40.0956C40.1673 57.2469 40.236 57.2754 40.2867 57.326C40.3374 57.3767 40.3658 57.4454 40.3658 57.5171C40.3658 57.5887 40.3374 57.6574 40.2867 57.7081C40.236 57.7588 40.1673 57.7872 40.0956 57.7872ZM24.8927 60.4618H23.3634C23.2918 60.4618 23.2231 60.4333 23.1724 60.3827C23.1217 60.332 23.0933 60.2633 23.0933 60.1916C23.0933 60.12 23.1217 60.0513 23.1724 60.0006C23.2231 59.9499 23.2918 59.9215 23.3634 59.9215H24.8927C24.9644 59.9215 25.0331 59.9499 25.0838 60.0006C25.1344 60.0513 25.1629 60.12 25.1629 60.1916C25.1629 60.2633 25.1344 60.332 25.0838 60.3827C25.0331 60.4333 24.9644 60.4618 24.8927 60.4618ZM26.3796 60.1899C26.3796 60.1183 26.408 60.0496 26.4587 59.9989C26.5094 59.9482 26.5781 59.9198 26.6497 59.9198C26.6853 59.9195 26.7207 59.9264 26.7536 59.9398C26.7866 59.9533 26.8166 59.9732 26.8419 59.9983C26.8671 60.0234 26.8872 60.0533 26.9009 60.0861C26.9146 60.119 26.9216 60.1543 26.9216 60.1899C26.9216 60.262 26.893 60.3312 26.842 60.3822C26.791 60.4332 26.7218 60.4618 26.6497 60.4618C26.5779 60.4614 26.5092 60.4325 26.4586 60.3816C26.408 60.3306 26.3795 60.2617 26.3796 60.1899Z" fill="#FFB833"/>
<path d="M47.0505 60.4618C46.9966 60.4621 46.9439 60.4465 46.899 60.4168C46.854 60.3871 46.8189 60.3448 46.7981 60.2951C46.7773 60.2455 46.7716 60.1908 46.7819 60.1379C46.7922 60.0851 46.818 60.0365 46.8559 59.9983C46.8939 59.9601 46.9423 59.934 46.9951 59.9234C47.0479 59.9128 47.1027 59.918 47.1524 59.9386C47.2022 59.9591 47.2448 59.9939 47.2747 60.0387C47.3047 60.0834 47.3207 60.1361 47.3207 60.1899C47.3207 60.2617 47.2923 60.3306 47.2416 60.3815C47.191 60.4325 47.1223 60.4613 47.0505 60.4618ZM45.2901 60.4618H42.3046C42.242 60.4596 42.1821 60.4363 42.1346 60.3955C42.0879 60.4374 42.0275 60.4609 41.9647 60.4618C41.8966 60.4564 41.8329 60.4255 41.7865 60.3752C41.7401 60.325 41.7143 60.2591 41.7143 60.1907C41.7143 60.1224 41.7401 60.0565 41.7865 60.0063C41.8329 59.956 41.8966 59.9251 41.9647 59.9197C42.0272 59.9208 42.0872 59.9437 42.1346 59.9843C42.1826 59.9446 42.2424 59.9219 42.3046 59.9197H45.2935C45.3309 59.9168 45.3685 59.9216 45.4039 59.9338C45.4394 59.9461 45.4719 59.9656 45.4995 59.9911C45.527 60.0165 45.549 60.0474 45.564 60.0818C45.5791 60.1161 45.5868 60.1532 45.5868 60.1907C45.5868 60.2283 45.5791 60.2654 45.564 60.2997C45.549 60.3341 45.527 60.365 45.4995 60.3904C45.4719 60.4159 45.4394 60.4354 45.4039 60.4477C45.3685 60.4599 45.3309 60.4647 45.2935 60.4618H45.2901ZM40.1924 60.4618H37.2069C37.1442 60.4603 37.0841 60.4369 37.037 60.3955C37.0037 60.4239 36.964 60.4437 36.9213 60.4534C36.8787 60.463 36.8343 60.4622 36.792 60.4509C36.7498 60.4396 36.7109 60.4182 36.6787 60.3886C36.6465 60.3589 36.6221 60.3219 36.6073 60.2807C36.5926 60.2395 36.5881 60.1954 36.5943 60.1521C36.6004 60.1087 36.6169 60.0676 36.6425 60.0321C36.668 59.9966 36.7018 59.9678 36.7409 59.9482C36.78 59.9286 36.8233 59.9189 36.8671 59.9197C36.9293 59.9216 36.9892 59.9444 37.037 59.9843C37.0847 59.9442 37.1446 59.9214 37.2069 59.9197H40.1975C40.2657 59.9251 40.3293 59.956 40.3758 60.0063C40.4222 60.0565 40.4479 60.1224 40.4479 60.1907C40.4479 60.2591 40.4222 60.325 40.3758 60.3752C40.3293 60.4255 40.2657 60.4564 40.1975 60.4618H40.1924ZM35.0948 60.4618H32.1093C32.0465 60.4609 31.9861 60.4374 31.9393 60.3955C31.8919 60.4363 31.8319 60.4596 31.7694 60.4618C31.7012 60.4564 31.6376 60.4255 31.5912 60.3752C31.5448 60.325 31.519 60.2591 31.519 60.1907C31.519 60.1224 31.5448 60.0565 31.5912 60.0063C31.6376 59.956 31.7012 59.9251 31.7694 59.9197C31.8316 59.9219 31.8914 59.9446 31.9393 59.9843C31.9867 59.9437 32.0468 59.9208 32.1093 59.9197H35.0999C35.1681 59.9251 35.2317 59.956 35.2781 60.0063C35.3245 60.0565 35.3503 60.1224 35.3503 60.1907C35.3503 60.2591 35.3245 60.325 35.2781 60.3752C35.2317 60.4255 35.1681 60.4564 35.0999 60.4618H35.0948ZM29.9971 60.4618H27.0065C26.9383 60.4564 26.8747 60.4255 26.8283 60.3752C26.7819 60.325 26.7561 60.2591 26.7561 60.1907C26.7561 60.1224 26.7819 60.0565 26.8283 60.0063C26.8747 59.956 26.9383 59.9251 27.0065 59.9197H29.9971C30.0653 59.9251 30.1289 59.956 30.1753 60.0063C30.2218 60.0565 30.2475 60.1224 30.2475 60.1907C30.2475 60.2591 30.2218 60.325 30.1753 60.3752C30.1289 60.4255 30.0653 60.4564 29.9971 60.4618Z" fill="#FFB833"/>
<path d="M48.9315 60.4618H47.4022C47.3306 60.4618 47.2619 60.4333 47.2112 60.3827C47.1605 60.332 47.1321 60.2633 47.1321 60.1916C47.1321 60.12 47.1605 60.0512 47.2112 60.0006C47.2619 59.9499 47.3306 59.9214 47.4022 59.9214H48.9315C49.0032 59.9214 49.0719 59.9499 49.1226 60.0006C49.1733 60.0512 49.2017 60.12 49.2017 60.1916C49.2017 60.2633 49.1733 60.332 49.1226 60.3827C49.0719 60.4333 49.0032 60.4618 48.9315 60.4618ZM25.4381 63.1907H23.9088C23.8372 63.1907 23.7685 63.1623 23.7178 63.1116C23.6671 63.0609 23.6387 62.9922 23.6387 62.9206C23.6387 62.8489 23.6671 62.7802 23.7178 62.7295C23.7685 62.6789 23.8372 62.6504 23.9088 62.6504H25.4381C25.5098 62.6504 25.5785 62.6789 25.6292 62.7295C25.6799 62.7802 25.7083 62.8489 25.7083 62.9206C25.7083 62.9922 25.6799 63.0609 25.6292 63.1116C25.5785 63.1623 25.5098 63.1907 25.4381 63.1907ZM26.6565 62.9223C26.6563 62.8866 26.6631 62.8513 26.6766 62.8184C26.69 62.7854 26.7099 62.7554 26.735 62.7301C26.7601 62.7049 26.79 62.6848 26.8229 62.6711C26.8558 62.6574 26.891 62.6504 26.9267 62.6504C26.998 62.6508 27.0663 62.6795 27.1166 62.7301C27.1669 62.7807 27.1951 62.8492 27.1951 62.9206C27.1951 62.9919 27.1669 63.0604 27.1166 63.111C27.0663 63.1616 26.998 63.1903 26.9267 63.1907C26.8553 63.1907 26.7868 63.1625 26.7362 63.1122C26.6856 63.0619 26.6569 62.9936 26.6565 62.9223Z" fill="#FFB833"/>
<path d="M35.5553 63.1924C35.5019 63.1921 35.4497 63.1759 35.4055 63.146C35.3612 63.116 35.3269 63.0736 35.3067 63.0241C35.2866 62.9746 35.2816 62.9202 35.2923 62.8679C35.3031 62.8156 35.3291 62.7676 35.3672 62.73C35.4052 62.6925 35.4535 62.6671 35.506 62.657C35.5584 62.6469 35.6127 62.6526 35.662 62.6733C35.7112 62.6941 35.7532 62.729 35.7826 62.7736C35.812 62.8182 35.8275 62.8705 35.8272 62.924C35.8269 62.9595 35.8197 62.9945 35.806 63.0272C35.7922 63.0599 35.7721 63.0896 35.7468 63.1145C35.7216 63.1394 35.6917 63.1592 35.6588 63.1725C35.626 63.1859 35.5908 63.1927 35.5553 63.1924ZM34.0668 63.1924H31.5383C31.4855 63.193 31.4338 63.1769 31.3905 63.1466C31.3464 63.1765 31.2943 63.1924 31.241 63.1924C31.1693 63.1924 31.1006 63.164 31.0499 63.1133C30.9993 63.0626 30.9708 62.9939 30.9708 62.9223C30.9708 62.8506 30.9993 62.7819 31.0499 62.7312C31.1006 62.6806 31.1693 62.6521 31.241 62.6521C31.294 62.6523 31.3459 62.6676 31.3905 62.6963C31.4343 62.6672 31.4858 62.6518 31.5383 62.6521H34.0668C34.1039 62.6491 34.1413 62.6539 34.1766 62.6661C34.2118 62.6783 34.2441 62.6977 34.2715 62.723C34.2989 62.7483 34.3208 62.7789 34.3357 62.8131C34.3506 62.8473 34.3584 62.8841 34.3584 62.9214C34.3584 62.9587 34.3506 62.9956 34.3357 63.0297C34.3208 63.0639 34.2989 63.0946 34.2715 63.1199C34.2441 63.1452 34.2118 63.1645 34.1766 63.1767C34.1413 63.1889 34.1039 63.1937 34.0668 63.1907V63.1924ZM29.7525 63.1924H27.2223C27.1507 63.1924 27.0819 63.164 27.0313 63.1133C26.9806 63.0626 26.9521 62.9939 26.9521 62.9223C26.9521 62.8506 26.9806 62.7819 27.0313 62.7312C27.0819 62.6806 27.1507 62.6521 27.2223 62.6521H29.7508C29.8224 62.6521 29.8911 62.6806 29.9418 62.7312C29.9925 62.7819 30.0209 62.8506 30.0209 62.9223C30.0209 62.9939 29.9925 63.0626 29.9418 63.1133C29.8911 63.164 29.8224 63.1924 29.7508 63.1924H29.7525Z" fill="#FFB833"/>
<path d="M37.3854 63.1942H35.8561C35.7844 63.1942 35.7157 63.1657 35.665 63.115C35.6144 63.0644 35.5859 62.9956 35.5859 62.924C35.5859 62.8523 35.6144 62.7836 35.665 62.7329C35.7157 62.6823 35.7844 62.6538 35.8561 62.6538H37.3854C37.4535 62.6592 37.5172 62.6901 37.5636 62.7403C37.61 62.7906 37.6358 62.8564 37.6358 62.9248C37.6358 62.9932 37.61 63.0591 37.5636 63.1093C37.5172 63.1596 37.4535 63.1905 37.3854 63.1959V63.1942ZM25.9921 65.9503H24.4628C24.3911 65.9503 24.3224 65.9218 24.2718 65.8712C24.2211 65.8205 24.1926 65.7518 24.1926 65.6801C24.1926 65.6085 24.2211 65.5397 24.2718 65.4891C24.3224 65.4384 24.3911 65.4099 24.4628 65.4099H25.9921C26.0638 65.4099 26.1325 65.4384 26.1831 65.4891C26.2338 65.5397 26.2623 65.6085 26.2623 65.6801C26.2623 65.7518 26.2338 65.8205 26.1831 65.8712C26.1325 65.9218 26.0638 65.9503 25.9921 65.9503ZM27.4347 65.6801C27.4352 65.6088 27.4638 65.5405 27.5145 65.4902C27.5651 65.4399 27.6335 65.4116 27.7049 65.4116C27.7763 65.4116 27.8447 65.4399 27.8954 65.4902C27.946 65.5405 27.9746 65.6088 27.9751 65.6801C27.9751 65.7518 27.9466 65.8205 27.896 65.8712C27.8453 65.9218 27.7766 65.9503 27.7049 65.9503C27.6333 65.9503 27.5645 65.9218 27.5139 65.8712C27.4632 65.8205 27.4347 65.7518 27.4347 65.6801Z" fill="#FFB833"/>
<path d="M42.6446 65.9554C42.5729 65.9554 42.5042 65.9269 42.4535 65.8762C42.4028 65.8256 42.3744 65.7568 42.3744 65.6852C42.3744 65.6135 42.4028 65.5448 42.4535 65.4941C42.5042 65.4435 42.5729 65.415 42.6446 65.415C42.6803 65.4146 42.7158 65.4215 42.7488 65.4352C42.7818 65.4489 42.8117 65.4692 42.8366 65.4949C42.8619 65.5195 42.882 65.5492 42.8954 65.5819C42.9089 65.6147 42.9154 65.6498 42.9147 65.6852C42.9147 65.7568 42.8863 65.8256 42.8356 65.8762C42.7849 65.9269 42.7162 65.9554 42.6446 65.9554ZM40.9283 65.9554H38.0057C37.9438 65.9547 37.8839 65.9331 37.8358 65.8942C37.7831 65.9355 37.7173 65.9564 37.6504 65.953C37.5836 65.9496 37.5202 65.922 37.4721 65.8755C37.4472 65.8505 37.4274 65.8209 37.414 65.7882C37.4005 65.7555 37.3937 65.7205 37.394 65.6852C37.3939 65.634 37.4084 65.5838 37.4358 65.5405C37.4632 65.4972 37.5023 65.4625 37.5486 65.4406C37.5949 65.4187 37.6465 65.4104 37.6973 65.4167C37.7482 65.423 37.7962 65.4436 37.8358 65.4762C37.8839 65.4373 37.9438 65.4157 38.0057 65.415H40.9249C40.9604 65.415 40.9955 65.4221 41.0281 65.4358C41.0608 65.4495 41.0904 65.4696 41.1153 65.4949C41.1408 65.5195 41.161 65.5491 41.1747 65.5818C41.1885 65.6145 41.1954 65.6497 41.1951 65.6852C41.1947 65.7565 41.166 65.8248 41.1154 65.8751C41.0648 65.9254 40.9963 65.9537 40.9249 65.9537L40.9283 65.9554ZM35.9496 65.9554H33.0287C32.9668 65.9543 32.9071 65.9328 32.8588 65.8942C32.8192 65.9266 32.7712 65.9471 32.7204 65.9534C32.6697 65.9596 32.6182 65.9513 32.5719 65.9294C32.5257 65.9075 32.4866 65.8729 32.4592 65.8297C32.4319 65.7864 32.4174 65.7363 32.4174 65.6852C32.4174 65.634 32.4319 65.5839 32.4592 65.5407C32.4866 65.4975 32.5257 65.4629 32.5719 65.441C32.6182 65.4191 32.6697 65.4108 32.7204 65.417C32.7712 65.4232 32.8192 65.4438 32.8588 65.4762C32.9069 65.4373 32.9668 65.4157 33.0287 65.415H35.9479C36.0196 65.415 36.0883 65.4435 36.139 65.4941C36.1896 65.5448 36.2181 65.6135 36.2181 65.6852C36.2181 65.7568 36.1896 65.8256 36.139 65.8762C36.0883 65.9269 36.0196 65.9554 35.9479 65.9554H35.9496ZM30.9709 65.9554H28.05C27.9783 65.9554 27.9096 65.9269 27.8589 65.8762C27.8083 65.8256 27.7798 65.7568 27.7798 65.6852C27.7802 65.6138 27.8089 65.5455 27.8595 65.4952C27.9101 65.4449 27.9786 65.4167 28.05 65.4167H30.9675C31.0392 65.4167 31.1079 65.4452 31.1586 65.4958C31.2092 65.5465 31.2377 65.6152 31.2377 65.6869C31.2377 65.7585 31.2092 65.8273 31.1586 65.8779C31.1079 65.9286 31.0392 65.9571 30.9675 65.9571L30.9709 65.9554Z" fill="#FFB833"/>
<path d="M44.5136 65.9554H42.9843C42.9126 65.9554 42.8439 65.9269 42.7933 65.8763C42.7426 65.8256 42.7141 65.7569 42.7141 65.6852C42.7141 65.6136 42.7426 65.5448 42.7933 65.4942C42.8439 65.4435 42.9126 65.415 42.9843 65.415H44.5136C44.5852 65.415 44.654 65.4435 44.7046 65.4942C44.7553 65.5448 44.7838 65.6136 44.7838 65.6852C44.7838 65.7569 44.7553 65.8256 44.7046 65.8763C44.654 65.9269 44.5852 65.9554 44.5136 65.9554ZM26.5461 68.7421H25.0168C24.9451 68.7421 24.8764 68.7136 24.8257 68.663C24.775 68.6123 24.7466 68.5436 24.7466 68.4719C24.7466 68.4003 24.775 68.3316 24.8257 68.2809C24.8764 68.2302 24.9451 68.2018 25.0168 68.2018H26.5461C26.6142 68.2072 26.6779 68.2381 26.7243 68.2883C26.7707 68.3385 26.7965 68.4044 26.7965 68.4728C26.7965 68.5412 26.7707 68.607 26.7243 68.6573C26.6779 68.7075 26.6142 68.7384 26.5461 68.7438V68.7421ZM28.2962 68.4702C28.2967 68.3989 28.3254 68.3306 28.376 68.2803C28.4266 68.23 28.4951 68.2018 28.5664 68.2018C28.6381 68.2018 28.7068 68.2302 28.7575 68.2809C28.8081 68.3316 28.8366 68.4003 28.8366 68.4719C28.8366 68.5436 28.8081 68.6123 28.7575 68.663C28.7068 68.7136 28.6381 68.7421 28.5664 68.7421C28.4946 68.7417 28.4259 68.7128 28.3753 68.6619C28.3247 68.6109 28.2962 68.542 28.2962 68.4702Z" fill="#FFB833"/>
<path d="M40.2877 68.7472C40.216 68.7472 40.1473 68.7187 40.0966 68.6681C40.0459 68.6174 40.0175 68.5487 40.0175 68.477C40.0175 68.4054 40.0459 68.3367 40.0966 68.286C40.1473 68.2353 40.216 68.2069 40.2877 68.2069C40.3234 68.2065 40.3588 68.2135 40.3918 68.2272C40.4248 68.2409 40.4547 68.2612 40.4797 68.2867C40.5045 68.3113 40.5241 68.3408 40.5373 68.3732C40.5504 68.4056 40.5568 68.4404 40.5561 68.4753C40.5564 68.5108 40.5496 68.546 40.5362 68.5789C40.5228 68.6117 40.5031 68.6416 40.4782 68.6669C40.4533 68.6921 40.4236 68.7122 40.3909 68.726C40.3582 68.7398 40.3231 68.747 40.2877 68.7472ZM38.2673 68.7472H34.8315C34.7933 68.7474 34.7555 68.7395 34.7206 68.724C34.6858 68.7085 34.6546 68.6857 34.6293 68.6572C34.5928 68.6979 34.5448 68.7267 34.4916 68.7396C34.4384 68.7525 34.3826 68.749 34.3315 68.7294C34.2804 68.7099 34.2364 68.6753 34.2053 68.6303C34.1743 68.5852 34.1577 68.5318 34.1577 68.477C34.1577 68.4223 34.1743 68.3689 34.2053 68.3238C34.2364 68.2788 34.2804 68.2442 34.3315 68.2246C34.3826 68.2051 34.4384 68.2016 34.4916 68.2145C34.5448 68.2274 34.5928 68.2561 34.6293 68.2969C34.6547 68.2685 34.6859 68.2458 34.7207 68.2302C34.7556 68.2147 34.7933 68.2067 34.8315 68.2069H38.2673C38.3027 68.2069 38.3378 68.2139 38.3705 68.2276C38.4032 68.2414 38.4328 68.2614 38.4576 68.2867C38.4827 68.3116 38.5026 68.3412 38.516 68.3739C38.5295 68.4066 38.5362 68.4417 38.5358 68.477C38.5358 68.5484 38.5075 68.6169 38.4572 68.6675C38.4069 68.7181 38.3386 68.7468 38.2673 68.7472ZM32.4067 68.7472H28.9709C28.8992 68.7472 28.8305 68.7187 28.7798 68.6681C28.7291 68.6174 28.7007 68.5487 28.7007 68.477C28.7007 68.4054 28.7291 68.3367 28.7798 68.286C28.8305 68.2353 28.8992 68.2069 28.9709 68.2069H32.4067C32.4422 68.2065 32.4774 68.2134 32.5101 68.2271C32.5428 68.2408 32.5724 68.2611 32.597 68.2867C32.6225 68.3114 32.6427 68.341 32.6565 68.3737C32.6702 68.4064 32.6771 68.4416 32.6769 68.477C32.6755 68.5478 32.6465 68.6152 32.5959 68.6648C32.5454 68.7144 32.4775 68.7421 32.4067 68.7421V68.7472Z" fill="#FFB833"/>
<path d="M42.2248 68.7489H40.6955C40.6239 68.7489 40.5551 68.7204 40.5045 68.6698C40.4538 68.6191 40.4253 68.5504 40.4253 68.4787C40.4253 68.4071 40.4538 68.3384 40.5045 68.2877C40.5551 68.237 40.6239 68.2086 40.6955 68.2086H42.2248C42.2965 68.2086 42.3652 68.237 42.4159 68.2877C42.4665 68.3384 42.495 68.4071 42.495 68.4787C42.495 68.5504 42.4665 68.6191 42.4159 68.6698C42.3652 68.7204 42.2965 68.7489 42.2248 68.7489ZM27.1103 71.5628H25.581C25.5128 71.5574 25.4492 71.5265 25.4027 71.4763C25.3563 71.4261 25.3306 71.3602 25.3306 71.2918C25.3306 71.2234 25.3563 71.1575 25.4027 71.1073C25.4492 71.0571 25.5128 71.0262 25.581 71.0208H27.1103C27.1819 71.0208 27.2506 71.0492 27.3013 71.0999C27.352 71.1506 27.3804 71.2193 27.3804 71.2909C27.3804 71.3626 27.352 71.4313 27.3013 71.482C27.2506 71.5327 27.1819 71.5611 27.1103 71.5611V71.5628ZM28.643 71.2943C28.643 71.2227 28.6714 71.154 28.7221 71.1033C28.7728 71.0526 28.8415 71.0242 28.9131 71.0242C28.9486 71.0242 28.9837 71.0312 29.0165 71.0447C29.0493 71.0583 29.0791 71.0782 29.1042 71.1033C29.1293 71.1284 29.1492 71.1582 29.1627 71.1909C29.1763 71.2237 29.1833 71.2589 29.1833 71.2943C29.1833 71.366 29.1548 71.4347 29.1042 71.4854C29.0535 71.536 28.9848 71.5645 28.9131 71.5645C28.8416 71.5641 28.7732 71.5355 28.7226 71.4849C28.672 71.4343 28.6434 71.3659 28.643 71.2943Z" fill="#FFB833"/>
<path d="M49.8339 71.5713C49.7895 71.5713 49.7459 71.5603 49.7067 71.5394C49.6676 71.5184 49.6343 71.4882 49.6096 71.4514C49.5849 71.4145 49.5697 71.3721 49.5653 71.328C49.5609 71.2838 49.5674 71.2393 49.5843 71.1982C49.6012 71.1572 49.6279 71.121 49.6621 71.0928C49.6964 71.0645 49.737 71.0451 49.7805 71.0363C49.824 71.0275 49.8689 71.0295 49.9114 71.0422C49.954 71.0549 49.9927 71.0779 50.0242 71.1091C50.0751 71.1601 50.1038 71.2291 50.1041 71.3011C50.1041 71.3366 50.0971 71.3717 50.0835 71.4045C50.0699 71.4373 50.05 71.4671 50.0249 71.4922C49.9999 71.5172 49.9701 71.5371 49.9373 71.5507C49.9045 71.5643 49.8694 71.5713 49.8339 71.5713ZM48.0293 71.5713H44.9707C44.9044 71.5715 44.8403 71.5473 44.7906 71.5033C44.738 71.5476 44.671 71.5708 44.6023 71.5686C44.5336 71.5664 44.4681 71.5389 44.4185 71.4914C44.3934 71.4665 44.3736 71.4368 44.3602 71.4042C44.3468 71.3715 44.34 71.3364 44.3403 71.3011C44.3402 71.2489 44.3551 71.1977 44.3834 71.1538C44.4118 71.11 44.4522 71.0752 44.4998 71.0538C44.5475 71.0324 44.6003 71.0253 44.6519 71.0333C44.7035 71.0413 44.7517 71.0641 44.7906 71.0989C44.8378 71.0574 44.8978 71.0334 44.9605 71.0309H48.0276C48.0993 71.0309 48.168 71.0594 48.2187 71.1101C48.2693 71.1607 48.2978 71.2295 48.2978 71.3011C48.2978 71.3728 48.2693 71.4415 48.2187 71.4922C48.168 71.5428 48.0993 71.5713 48.0276 71.5713H48.0293ZM42.7991 71.5713H39.7405C39.6742 71.5717 39.61 71.5475 39.5604 71.5033C39.5097 71.5466 39.4453 71.5707 39.3786 71.5713C39.3069 71.5713 39.2382 71.5428 39.1876 71.4922C39.1369 71.4415 39.1084 71.3728 39.1084 71.3011C39.1084 71.2295 39.1369 71.1607 39.1876 71.1101C39.2382 71.0594 39.3069 71.0309 39.3786 71.0309C39.4462 71.0295 39.5118 71.0538 39.5621 71.0989C39.6109 71.0534 39.6756 71.029 39.7422 71.0309H42.8008C42.8725 71.0309 42.9412 71.0594 42.9919 71.1101C43.0425 71.1607 43.071 71.2295 43.071 71.3011C43.071 71.3728 43.0425 71.4415 42.9919 71.4922C42.9412 71.5428 42.8725 71.5713 42.8008 71.5713H42.7991ZM37.5689 71.5713H34.5103C34.4429 71.5713 34.3779 71.5458 34.3285 71.4999C34.2801 71.545 34.2163 71.5699 34.1501 71.5696C34.1129 71.5725 34.0756 71.5678 34.0403 71.5556C34.0051 71.5434 33.9728 71.524 33.9454 71.4987C33.918 71.4734 33.8961 71.4427 33.8812 71.4086C33.8662 71.3744 33.8585 71.3375 33.8585 71.3003C33.8585 71.263 33.8662 71.2261 33.8812 71.1919C33.8961 71.1578 33.918 71.1271 33.9454 71.1018C33.9728 71.0765 34.0051 71.0571 34.0403 71.045C34.0756 71.0328 34.1129 71.028 34.1501 71.0309C34.2171 71.0298 34.2821 71.0541 34.3319 71.0989C34.3809 71.0537 34.4455 71.0294 34.512 71.0309H37.5706C37.6062 71.0306 37.6415 71.0373 37.6745 71.0507C37.7075 71.0642 37.7374 71.084 37.7626 71.1091C37.7883 71.134 37.8086 71.1639 37.8223 71.1969C37.8361 71.2299 37.8429 71.2654 37.8425 71.3011C37.8412 71.3725 37.8116 71.4404 37.7604 71.4901C37.7091 71.5397 37.6403 71.5671 37.5689 71.5662V71.5713ZM32.3404 71.5713H29.2733C29.2017 71.5713 29.133 71.5428 29.0823 71.4922C29.0316 71.4415 29.0032 71.3728 29.0032 71.3011C29.0032 71.2295 29.0316 71.1607 29.0823 71.1101C29.133 71.0594 29.2017 71.0309 29.2733 71.0309H32.3319C32.4036 71.0309 32.4723 71.0594 32.523 71.1101C32.5737 71.1607 32.6021 71.2295 32.6021 71.3011C32.6021 71.3728 32.5737 71.4415 32.523 71.4922C32.4723 71.5428 32.4036 71.5713 32.3319 71.5713H32.3404Z" fill="#FFB833"/>
<path d="M51.727 71.573H50.1977C50.126 71.573 50.0573 71.5445 50.0066 71.4939C49.9559 71.4432 49.9275 71.3745 49.9275 71.3028C49.9275 71.2312 49.9559 71.1625 50.0066 71.1118C50.0573 71.0611 50.126 71.0327 50.1977 71.0327H51.727C51.7951 71.0381 51.8588 71.069 51.9052 71.1192C51.9516 71.1694 51.9774 71.2353 51.9774 71.3037C51.9774 71.3721 51.9516 71.4379 51.9052 71.4882C51.8588 71.5384 51.7951 71.5693 51.727 71.5747V71.573ZM27.6813 74.4158H26.152C26.0838 74.4104 26.0202 74.3795 25.9738 74.3293C25.9274 74.279 25.9016 74.2132 25.9016 74.1448C25.9016 74.0764 25.9274 74.0105 25.9738 73.9603C26.0202 73.91 26.0838 73.8792 26.152 73.8737H27.6813C27.753 73.8737 27.8217 73.9022 27.8723 73.9529C27.923 74.0035 27.9515 74.0723 27.9515 74.1439C27.9515 74.2156 27.923 74.2843 27.8723 74.335C27.8217 74.3856 27.753 74.4141 27.6813 74.4141V74.4158ZM29.2293 74.1456C29.2295 74.1101 29.2367 74.0751 29.2505 74.0424C29.2643 74.0097 29.2844 73.98 29.3096 73.9551C29.3349 73.9301 29.3648 73.9104 29.3976 73.8971C29.4305 73.8837 29.4657 73.8769 29.5012 73.8771C29.5725 73.8776 29.6408 73.9063 29.6911 73.9569C29.7414 74.0075 29.7696 74.076 29.7696 74.1473C29.7696 74.219 29.7412 74.2877 29.6905 74.3384C29.6398 74.389 29.5711 74.4175 29.4995 74.4175C29.4277 74.4171 29.3589 74.3882 29.3083 74.3373C29.2577 74.2863 29.2293 74.2174 29.2293 74.1456Z" fill="#FFB833"/>
<path d="M45.3241 74.4277C45.2792 74.428 45.2349 74.4172 45.1952 74.3963C45.1555 74.3753 45.1215 74.3449 45.0965 74.3076C45.0714 74.2703 45.0559 74.2274 45.0515 74.1828C45.047 74.1381 45.0537 74.093 45.0709 74.0515C45.0882 74.01 45.1154 73.9734 45.1502 73.9451C45.185 73.9167 45.2263 73.8974 45.2704 73.8888C45.3145 73.8803 45.3601 73.8829 45.4029 73.8962C45.4458 73.9096 45.4847 73.9334 45.5162 73.9655C45.5415 73.9902 45.5617 74.0198 45.5754 74.0525C45.5891 74.0852 45.5961 74.1203 45.596 74.1558C45.596 74.2279 45.5674 74.297 45.5164 74.348C45.4654 74.399 45.3963 74.4277 45.3241 74.4277ZM43.506 74.4277H40.4134C40.346 74.4292 40.2807 74.4042 40.2316 74.358C40.1793 74.4032 40.1121 74.4273 40.043 74.4257C39.974 74.4242 39.9079 74.397 39.8578 74.3495C39.8204 74.3114 39.7951 74.2631 39.785 74.2107C39.7748 74.1583 39.7804 74.1041 39.8008 74.0549C39.8213 74.0056 39.8558 73.9634 39.9001 73.9336C39.9444 73.9038 39.9964 73.8877 40.0498 73.8873C40.1169 73.8873 40.1817 73.9121 40.2316 73.957C40.2815 73.9121 40.3463 73.8873 40.4134 73.8873H43.506C43.5776 73.8873 43.6464 73.9158 43.697 73.9664C43.7477 74.0171 43.7762 74.0858 43.7762 74.1575C43.7762 74.2291 43.7477 74.2979 43.697 74.3485C43.6464 74.3992 43.5776 74.4277 43.506 74.4277ZM38.2384 74.4277H35.1441C35.077 74.4278 35.0121 74.403 34.9623 74.358C34.9105 74.4034 34.8435 74.4277 34.7746 74.4262C34.7057 74.4246 34.6399 74.3972 34.5902 74.3495C34.5527 74.3117 34.5272 74.2637 34.5169 74.2115C34.5066 74.1593 34.5119 74.1052 34.5323 74.056C34.5526 74.0068 34.587 73.9647 34.6312 73.935C34.6753 73.9053 34.7273 73.8893 34.7805 73.889C34.8477 73.8883 34.9127 73.9132 34.9623 73.9587C35.0127 73.9134 35.0781 73.8886 35.1458 73.889H38.2265C38.2982 73.889 38.3669 73.9175 38.4176 73.9681C38.4682 74.0188 38.4967 74.0875 38.4967 74.1592C38.4967 74.2308 38.4682 74.2996 38.4176 74.3502C38.3669 74.4009 38.2982 74.4294 38.2265 74.4294L38.2384 74.4277ZM32.9708 74.4277H29.863C29.8275 74.4276 29.7924 74.4206 29.7598 74.4069C29.7271 74.3932 29.6975 74.3731 29.6726 74.3478C29.6343 74.3103 29.6081 74.2623 29.5973 74.2098C29.5865 74.1573 29.5917 74.1027 29.6122 74.0532C29.6326 74.0037 29.6674 73.9614 29.7121 73.9319C29.7568 73.9023 29.8094 73.8868 29.863 73.8873H32.9589C33.0306 73.8873 33.0993 73.9158 33.15 73.9664C33.2006 74.0171 33.2291 74.0858 33.2291 74.1575C33.2291 74.2291 33.2006 74.2979 33.15 74.3485C33.0993 74.3992 33.0306 74.4277 32.9589 74.4277H32.9708Z" fill="#FFB833"/>
<path d="M47.2223 74.4277H45.693C45.6214 74.4277 45.5527 74.3992 45.502 74.3485C45.4513 74.2979 45.4229 74.2292 45.4229 74.1575C45.4229 74.0858 45.4513 74.0171 45.502 73.9665C45.5527 73.9158 45.6214 73.8873 45.693 73.8873H47.2223C47.294 73.8873 47.3627 73.9158 47.4134 73.9665C47.464 74.0171 47.4925 74.0858 47.4925 74.1575C47.4925 74.2292 47.464 74.2979 47.4134 74.3485C47.3627 74.3992 47.294 74.4277 47.2223 74.4277Z" fill="#FFB833"/>
<path d="M41.2121 41.6939C41.1264 41.6941 41.0439 41.6619 40.981 41.6039L38.1127 38.9446C38.0792 38.9134 38.0522 38.8758 38.0333 38.8341C38.0143 38.7924 38.0038 38.7474 38.0022 38.7016C38.0015 38.6559 38.01 38.6105 38.0273 38.5682C38.0445 38.5259 38.0701 38.4874 38.1025 38.4552L40.9725 35.5852C41.0362 35.5213 41.1228 35.4852 41.2132 35.4851C41.3035 35.4849 41.3902 35.5206 41.4542 35.5844C41.5182 35.6482 41.5542 35.7347 41.5544 35.8251C41.5546 35.9154 41.5188 36.0021 41.4551 36.0661L38.8332 38.6914L41.4432 41.1094C41.4935 41.1558 41.5286 41.2163 41.5439 41.283C41.5593 41.3497 41.5541 41.4195 41.5291 41.4832C41.5042 41.5469 41.4605 41.6016 41.404 41.6401C41.3474 41.6786 41.2805 41.6992 41.2121 41.699V41.6939ZM48.2519 41.6939C48.2053 41.6938 48.1593 41.6841 48.1166 41.6654C48.0739 41.6466 48.0355 41.6194 48.0038 41.5852C47.9734 41.5524 47.9498 41.514 47.9343 41.472C47.9188 41.4301 47.9117 41.3855 47.9134 41.3409C47.9151 41.2962 47.9257 41.2523 47.9444 41.2117C47.9631 41.1711 47.9897 41.1346 48.0225 41.1043L50.6308 38.6914L48.0123 36.0661C47.9486 36.0024 47.9127 35.9159 47.9127 35.8257C47.9127 35.7355 47.9486 35.649 48.0123 35.5852C48.0761 35.5215 48.1626 35.4857 48.2528 35.4857C48.343 35.4857 48.4294 35.5215 48.4932 35.5852L51.3632 38.4552C51.3954 38.4876 51.4208 38.5262 51.4378 38.5686C51.4548 38.611 51.4631 38.6564 51.4621 38.7021C51.4612 38.7478 51.451 38.7928 51.4323 38.8345C51.4135 38.8761 51.3866 38.9136 51.353 38.9446L48.483 41.6039C48.4201 41.6619 48.3376 41.6941 48.2519 41.6939ZM43.0761 42.7339C43.0397 42.7342 43.0036 42.7284 42.9691 42.7169C42.9266 42.7028 42.8874 42.6806 42.8536 42.6514C42.8198 42.6222 42.7921 42.5866 42.772 42.5467C42.752 42.5067 42.74 42.4632 42.7368 42.4187C42.7336 42.3741 42.7392 42.3294 42.7533 42.287L45.2732 34.6966C45.2853 34.652 45.3064 34.6103 45.3352 34.5742C45.364 34.5381 45.3998 34.5082 45.4406 34.4863C45.4813 34.4645 45.526 34.4512 45.5721 34.4473C45.6181 34.4433 45.6645 34.4488 45.7083 34.4634C45.7521 34.478 45.7926 34.5013 45.8271 34.5321C45.8616 34.5628 45.8895 34.6002 45.909 34.6421C45.9286 34.6839 45.9394 34.7293 45.9408 34.7755C45.9422 34.8217 45.9342 34.8677 45.9172 34.9107L43.3973 42.5011C43.3748 42.5686 43.3318 42.6274 43.2742 42.6692C43.2166 42.7109 43.1473 42.7336 43.0761 42.7339Z" fill="#FFF3E3"/>
<path d="M44.5138 81.4047C44.5138 81.4047 38.2267 81.4947 37.0372 81.7343C35.8478 81.9739 30.7501 84.4089 31.1494 85.1905C31.5487 85.9722 32.3049 85.8294 33.2293 85.3893C34.1536 84.9492 35.9871 84.9696 37.5793 85.4114C39.1714 85.8532 42.4067 86.9322 43.778 86.6926C45.1493 86.453 44.5138 81.4047 44.5138 81.4047Z" fill="#FFDB99"/>
<path d="M68.4608 62.2494C67.5297 62.3038 66.1091 62.5247 64.799 63.4388C62.8891 64.7693 62.4201 66.7234 60.9231 71.1907C60.3895 72.7743 59.5467 75.2076 58.3981 78.222L43.5265 81.1957C42.9044 81.9864 42.4881 82.919 42.3149 83.9101C42.1417 84.9011 42.2171 85.9197 42.5342 86.8745C50.2129 88.0979 55.8594 87.8787 59.3904 87.5049C60.6988 87.3672 61.9069 87.1888 63.2663 86.5142C68.2586 84.0368 69.6282 77.6987 70.0258 75.2841C70.0258 75.2824 70.9519 64.4873 68.4608 62.2494ZM61.8696 30.5165C61.8696 30.5165 59.0574 33.6923 61.319 36.4824C63.5807 39.2726 67.946 37.332 71.4226 37.5207C74.8992 37.7093 69.477 44.671 74.1413 46.3124C74.1413 46.3124 73.4514 43.3218 74.7394 42.7644C76.0275 42.2071 77.1591 42.4501 77.4378 43.6582C77.7165 44.8664 77.3783 47.3744 75.4412 47.4832C73.5041 47.5919 76.9705 57.0736 81.3885 54.9597C85.5652 52.9666 91.9236 40.8562 86.6968 34.0441C84.2925 30.9124 79.2458 28.8699 74.9586 29.5666C71.1218 30.1953 68.437 32.9141 64.4677 31.7994C63.5316 31.5314 62.6515 31.0968 61.8696 30.5165Z" fill="#383333"/>
<path d="M64.6172 85.877C64.6038 85.8769 64.5907 85.8737 64.5789 85.8675C64.567 85.8613 64.5569 85.8523 64.5492 85.8413C64.5363 85.8229 64.5311 85.8003 64.5345 85.7781C64.538 85.7559 64.55 85.7359 64.5679 85.7224C69.6112 82.0062 69.5636 72.4583 69.5619 72.3614C69.5619 72.3392 69.5706 72.3178 69.5862 72.3019C69.6018 72.2861 69.6229 72.2769 69.6452 72.2765C69.6674 72.2765 69.6888 72.2852 69.7047 72.3007C69.7206 72.3163 69.7297 72.3375 69.7301 72.3597C69.7301 72.4566 69.7811 82.0911 64.6665 85.86C64.652 85.8703 64.6349 85.8762 64.6172 85.877ZM67.0046 36.6014C65.5925 36.6014 64.5339 36.2258 63.8508 35.4833C62.7837 34.321 63.0403 32.6949 63.0522 32.6269C63.0558 32.6044 63.0682 32.5842 63.0867 32.5708C63.1052 32.5574 63.1282 32.5519 63.1508 32.5555C63.1733 32.5591 63.1935 32.5715 63.2069 32.59C63.2203 32.6085 63.2257 32.6315 63.2221 32.6541C63.2221 32.6711 62.969 34.2683 63.9817 35.3728C64.7361 36.1953 65.9919 36.5419 67.7098 36.406C67.7307 36.4059 67.7509 36.4137 67.7664 36.4279C67.7818 36.4421 67.7913 36.4615 67.793 36.4824C67.794 36.4936 67.7927 36.5048 67.7892 36.5155C67.7858 36.5261 67.7803 36.536 67.773 36.5446C67.7658 36.5531 67.7569 36.5601 67.7469 36.5652C67.7369 36.5703 67.726 36.5733 67.7149 36.5742C67.4719 36.5912 67.234 36.6014 67.0046 36.6014ZM74.9535 41.439H74.9433C74.7296 41.4227 74.5231 41.3549 74.3414 41.2412C74.1597 41.1276 74.0082 40.9716 73.9 40.7865C73.1269 39.4713 74.1515 36.6218 74.4098 35.937C67.9918 37.1264 66.5509 34.5946 66.4914 34.4841C66.4861 34.4745 66.4827 34.4638 66.4815 34.4528C66.4804 34.4418 66.4814 34.4307 66.4845 34.4201C66.4877 34.4095 66.493 34.3996 66.5 34.3911C66.507 34.3825 66.5156 34.3755 66.5254 34.3703C66.5352 34.3649 66.546 34.3615 66.5571 34.3603C66.5683 34.3591 66.5795 34.3601 66.5903 34.3633C66.601 34.3664 66.611 34.3717 66.6197 34.3787C66.6284 34.3857 66.6356 34.3944 66.641 34.4043C66.6546 34.4298 68.1193 36.9752 74.5287 35.7416C74.5439 35.739 74.5595 35.7405 74.5738 35.7459C74.5882 35.7513 74.6009 35.7604 74.6106 35.7724C74.6203 35.7843 74.6266 35.7986 74.6289 35.8138C74.6313 35.829 74.6295 35.8445 74.6239 35.8588C74.6103 35.8928 73.2203 39.3048 74.0411 40.7016C74.1349 40.8641 74.2675 41.001 74.427 41.1C74.5865 41.199 74.7679 41.2571 74.9552 41.2691C74.9664 41.2704 74.9773 41.2739 74.9871 41.2793C74.9969 41.2848 75.0056 41.2922 75.0125 41.3011C75.0195 41.3099 75.0246 41.3201 75.0276 41.3309C75.0306 41.3418 75.0314 41.3531 75.03 41.3643C75.0278 41.3836 75.0189 41.4016 75.005 41.4152C74.9911 41.4288 74.9729 41.4372 74.9535 41.439ZM83.2168 51.5936C83.2004 51.5942 83.1842 51.5899 83.1703 51.5813C83.1563 51.5728 83.1451 51.5603 83.1382 51.5454C83.1313 51.5305 83.129 51.5139 83.1315 51.4977C83.134 51.4815 83.1412 51.4664 83.1523 51.4542C87.2304 46.727 87.1607 37.9879 87.159 37.8996C87.159 37.8773 87.1677 37.856 87.1833 37.8401C87.1989 37.8242 87.2201 37.815 87.2423 37.8146C87.2534 37.8144 87.2644 37.8164 87.2747 37.8204C87.285 37.8245 87.2944 37.8306 87.3023 37.8384C87.3102 37.8461 87.3165 37.8554 87.3208 37.8656C87.325 37.8758 87.3273 37.8868 87.3273 37.8979C87.3273 37.9862 87.3986 46.7882 83.278 51.5647C83.2706 51.5738 83.2613 51.5811 83.2507 51.5861C83.2401 51.5911 83.2286 51.5936 83.2168 51.5936ZM78.9739 51.2945C78.9514 51.2963 78.929 51.2891 78.9118 51.2744C78.8946 51.2598 78.8839 51.2389 78.8821 51.2163C78.8803 51.1938 78.8876 51.1715 78.9022 51.1543C78.9169 51.1371 78.9378 51.1264 78.9603 51.1246C83.3783 50.4211 84.6833 44.1085 84.6952 44.0439C84.6972 44.0329 84.7014 44.0224 84.7076 44.013C84.7138 44.0036 84.7218 43.9956 84.7312 43.9894C84.7405 43.9832 84.751 43.979 84.7621 43.977C84.7731 43.975 84.7845 43.9752 84.7954 43.9777C84.8173 43.9826 84.8364 43.9958 84.8488 44.0144C84.8611 44.0331 84.8657 44.0559 84.8617 44.0779C84.8498 44.1425 83.5244 50.5706 78.9875 51.2928L78.9739 51.2945ZM78.5899 47.2521C78.5741 47.2523 78.5586 47.2481 78.5451 47.24C78.5316 47.2319 78.5206 47.2202 78.5134 47.2062C78.5082 47.1963 78.505 47.1855 78.5041 47.1743C78.5031 47.1632 78.5044 47.152 78.5079 47.1413C78.5114 47.1307 78.517 47.1209 78.5244 47.1125C78.5317 47.1041 78.5407 47.0972 78.5508 47.0923C80.1515 46.2733 80.9161 44.5588 81.1149 44.0507C80.3469 44.2207 79.7216 44.0898 79.2458 43.6769C77.9493 42.5367 78.3027 39.6192 78.318 39.4951C78.3209 39.4726 78.3327 39.4522 78.3507 39.4383C78.3687 39.4244 78.3915 39.4183 78.414 39.4212C78.4365 39.4241 78.457 39.4359 78.4708 39.4539C78.4847 39.4719 78.4908 39.4947 78.4879 39.5172C78.4879 39.5461 78.1311 42.4688 79.3613 43.5495C79.815 43.9505 80.442 44.0592 81.222 43.8502C81.2367 43.8464 81.2522 43.8465 81.2669 43.8507C81.2815 43.8549 81.2948 43.863 81.3052 43.874C81.3156 43.8849 81.3228 43.8984 81.326 43.9131C81.3293 43.9277 81.3286 43.943 81.3239 43.9573C81.3239 43.9811 80.5695 46.2478 78.6222 47.2436C78.6122 47.2488 78.6011 47.2517 78.5899 47.2521ZM74.1345 31.7042C74.1179 31.7045 74.1016 31.6998 74.0876 31.6907C74.0737 31.6816 74.0628 31.6686 74.0564 31.6532C74.0519 31.643 74.0494 31.6319 74.0492 31.6207C74.049 31.6095 74.051 31.5984 74.0551 31.588C74.0592 31.5775 74.0654 31.568 74.0731 31.56C74.0809 31.5519 74.0902 31.5455 74.1005 31.5411C74.1362 31.5258 77.6383 30.0696 79.9951 31.5411C80.014 31.5533 80.0273 31.5724 80.0324 31.5942C80.0375 31.6161 80.0339 31.6391 80.0223 31.6583C80.0101 31.6772 79.9909 31.6905 79.969 31.6953C79.947 31.7001 79.924 31.696 79.9051 31.6838C77.623 30.2531 74.2008 31.6838 74.1668 31.6838C74.158 31.6934 74.1469 31.7004 74.1345 31.7042Z" fill="white"/>
<path d="M65.3002 51.3472C65.1162 51.3502 64.9326 51.3313 64.753 51.2911C64.7313 51.2848 64.713 51.2702 64.7019 51.2505C64.6908 51.2308 64.6878 51.2076 64.6936 51.1858C64.7003 51.1643 64.7149 51.1462 64.7345 51.1352C64.754 51.1241 64.7771 51.1209 64.7989 51.1263C64.8142 51.1263 66.3639 51.5341 67.64 50.0201C67.6471 50.0115 67.6558 50.0044 67.6656 49.9992C67.6754 49.994 67.6862 49.9908 67.6973 49.9899C67.7084 49.9889 67.7196 49.9902 67.7302 49.9936C67.7407 49.9971 67.7505 50.0026 67.7589 50.0099C67.7676 50.0169 67.7747 50.0256 67.7799 50.0355C67.7851 50.0453 67.7882 50.0561 67.7892 50.0672C67.7901 50.0783 67.7888 50.0895 67.7854 50.1001C67.782 50.1106 67.7764 50.1204 67.7691 50.1288C66.8991 51.1637 65.9017 51.3472 65.3002 51.3472Z" fill="#383333"/>
</svg>
