<svg width="105" height="112" viewBox="0 0 105 112" fill="none" xmlns="http://www.w3.org/2000/svg">
<rect width="105" height="102" rx="5" fill="#7928AA"/>
<path d="M75.5875 58.85C74.6625 62.9167 73.8333 64.0833 71.2042 64.0833C67.7521 64.0833 65.2062 61.6896 65.2062 58.8354C65.2062 55.9813 68.0042 53.6667 71.4563 53.6667C75.5375 53.6667 76.5312 54.7021 75.5875 58.85ZM30.4125 58.85C31.3375 62.9167 32.1667 64.0833 34.7958 64.0833C38.2479 64.0833 40.7938 61.6896 40.7938 58.8354C40.7938 55.9813 37.9958 53.6667 34.5438 53.6667C30.4625 53.6667 29.4688 54.7021 30.4125 58.85Z" fill="#FB8C00"/>
<path d="M80.1187 89.3354C77.1979 85.35 61.3333 78.6667 61.3333 78.6667H53H44.6667C44.6667 78.6667 28.8021 85.35 25.8812 89.3354C22.3521 94.1521 21.75 101.583 21.75 101.583H84.25C84.25 101.583 83.6479 94.1521 80.1187 89.3354Z" fill="#BF360C"/>
<path d="M44.6667 59.9167V78.6667C44.6667 84.8313 53.0001 89.0833 53.0001 89.0833C53.0001 89.0833 61.3334 84.8938 61.3334 78.6667V59.9167H44.6667Z" fill="#FB8C00"/>
<path d="M32.1667 48.9708C32.1667 69.7896 43.3772 78.6667 53.0001 78.6667V30.75C40.9417 30.75 32.1667 41.1979 32.1667 48.9708ZM73.8334 48.9708C73.8334 69.7896 62.623 78.6667 53.0001 78.6667V30.75C65.0584 30.75 73.8334 41.1979 73.8334 48.9708Z" fill="#FFB74D"/>
<path d="M52.9999 22.4167C41.4937 22.4167 30.0833 29.6604 30.0833 41.1667C30.0833 49.975 33.352 59.9167 33.352 59.9167C33.352 59.9167 34.2499 53.2333 34.2499 47.4167C53.3478 47.4167 63.4166 37 63.4166 37C63.4166 37 64.9791 44.9854 71.7499 47.4167C72.1687 56.4 72.6333 59.9167 72.6333 59.9167C72.6333 59.9167 75.9166 48.5875 75.9166 41.1667C75.9166 32.7688 71.8145 26.5833 63.4166 26.5833C63.4166 26.5833 60.0708 22.4167 52.9999 22.4167Z" fill="#8D6E63"/>
<path d="M65.5 57.8333C65.5 57.8333 63.6354 59.9167 61.3333 59.9167C59.0312 59.9167 57.1667 57.8333 57.1667 57.8333C57.1667 57.8333 59.0312 55.75 61.3333 55.75C63.6354 55.75 65.5 57.8333 65.5 57.8333ZM48.8333 57.8333C48.8333 57.8333 46.9688 59.9167 44.6667 59.9167C42.3646 59.9167 40.5 57.8333 40.5 57.8333C40.5 57.8333 42.3646 55.75 44.6667 55.75C46.9688 55.75 48.8333 57.8333 48.8333 57.8333Z" fill="white"/>
<path d="M49.9104 65.5563C49.9104 65.5563 51.2792 66.1458 53 66.1458C54.7208 66.1458 56.0896 65.5563 56.0896 65.5563C56.0896 65.5563 55.2021 67.7792 53 67.7792C50.7979 67.7792 49.9104 65.5563 49.9104 65.5563Z" fill="#FCA230"/>
<path d="M66.5416 52.4104C66.5416 52.4104 64.2353 51.5833 61.3333 51.5833C58.4312 51.5833 57.1666 51.5667 57.1666 50.5375C57.1666 49.5104 58.6458 49.5 61.3333 49.5C65.0458 49.5 66.5416 52.4104 66.5416 52.4104ZM39.4583 52.4104C39.4583 52.4104 41.7645 51.5833 44.6666 51.5833C47.5687 51.5833 48.8333 51.5667 48.8333 50.5375C48.8333 49.5104 47.3541 49.5 44.6666 49.5C40.9541 49.5 39.4583 52.4104 39.4583 52.4104Z" fill="#6D4C41"/>
<path d="M69.3376 68.25H36.6626C40.8126 75.4 47.1876 78.6667 53.0001 78.6667C58.8126 78.6667 65.1855 75.4 69.3376 68.25Z" fill="#FFCC80"/>
<path d="M76.0645 99.6604L77.827 76.7437C77.9208 75.5333 76.9645 74.5 75.7499 74.5H30.2499C29.0354 74.5 28.0791 75.5333 28.1729 76.7437L29.9354 99.6604C30.0187 100.746 30.9229 101.583 32.0124 101.583H73.9874C75.077 101.583 75.9812 100.746 76.0645 99.6604Z" fill="#B0BEC5"/>
<path d="M52.9999 95.3333C55.3011 95.3333 57.1666 93.4679 57.1666 91.1667C57.1666 88.8655 55.3011 87 52.9999 87C50.6987 87 48.8333 88.8655 48.8333 91.1667C48.8333 93.4679 50.6987 95.3333 52.9999 95.3333Z" fill="#ECEFF1"/>
<path d="M47.7917 69.5063C47.7917 69.5063 50.098 70.3333 53.0001 70.3333C55.9022 70.3333 58.2084 69.5063 58.2084 69.5063C58.2084 69.5063 56.0938 72.4167 53.0001 72.4167C49.9063 72.4167 47.7917 69.5063 47.7917 69.5063Z" fill="#FB8C00"/>
<path d="M44.6667 59.9167C45.3896 59.9167 46.0583 59.7021 46.65 59.4208C46.4229 58.5167 45.6417 57.8333 44.6667 57.8333C43.6917 57.8333 42.9104 58.5167 42.6833 59.4208C43.275 59.7021 43.9438 59.9167 44.6667 59.9167ZM61.3333 59.9167C62.0563 59.9167 62.725 59.7021 63.3167 59.4208C63.0896 58.5167 62.3083 57.8333 61.3333 57.8333C60.3583 57.8333 59.5771 58.5167 59.35 59.4208C59.9417 59.7021 60.6104 59.9167 61.3333 59.9167Z" fill="#3E2723"/>
</svg>
