<svg width="105" height="102" viewBox="0 0 105 102" fill="none" xmlns="http://www.w3.org/2000/svg">
<rect width="105" height="102" rx="5" fill="#FFE1A8"/>
<path d="M42.6854 70.5797C41.8698 72.3197 41.0542 74.0461 40.2385 75.7861L46.0295 77.5261L51.8204 75.7861L53.8595 73.1897L51.8204 70.5933L47.2529 68.8533L42.6854 70.5797Z" fill="#167FFC"/>
<path d="M60.9553 70.5797L56.3878 68.8397L51.8203 70.5797V75.7861L57.6112 77.5261L63.4022 75.7861C62.5866 74.0461 61.7709 72.3197 60.9553 70.5797Z" fill="#052B0C"/>
<path d="M17.1562 25.5164V70.5797H51.8203L53.8594 48.9113L51.8203 25.5164C50.8416 25.5164 18.135 25.5164 17.1562 25.5164Z" fill="#FE9526"/>
<path d="M86.4844 25.5164C85.5056 25.5164 52.7991 25.5164 51.8203 25.5164V70.5797H86.4844C86.4844 69.3563 86.4844 26.7398 86.4844 25.5164Z" fill="#F99C3A"/>
<path d="M21.2344 28.9828V61.9205L36.5273 63.6605L51.8203 61.9205V28.9828C49.7541 28.9828 23.3006 28.9828 21.2344 28.9828Z" fill="#E7FFEB"/>
<path d="M82.4062 28.9828C80.34 28.9828 53.8866 28.9828 51.8203 28.9828V61.9205L70.3078 63.6605L82.4062 61.9205C82.4062 60.1805 82.4062 30.7092 82.4062 28.9828Z" fill="#CDCEFF"/>
<path d="M35.5078 75.7861V79.2525H51.8203L53.8594 77.5125L51.8203 75.7725C49.8492 75.7861 37.4925 75.7861 35.5078 75.7861Z" fill="#105B1D"/>
<path d="M68.1328 75.7861C66.1617 75.7861 53.805 75.7861 51.8203 75.7861V79.2525H68.1328C68.1328 78.0427 68.1328 76.9959 68.1328 75.7861Z" fill="#53D86A"/>
<path d="M21.2344 61.9205V67.1269H51.8203L53.8594 64.5305L51.8203 61.9341H21.2344V61.9205Z" fill="#E6FCEA"/>
<path d="M82.4062 61.9205H51.8203V67.1269H82.4062C82.4062 65.3869 82.4062 63.6469 82.4062 61.9205Z" fill="#A3A4FF"/>
<path d="M32.8707 39.885L30.2335 37.642L32.8707 35.3991L29.9888 32.9522L24.4697 37.642L29.9888 42.3319L32.8707 39.885Z" fill="#F7860F"/>
<path d="M51.2222 32.9522L48.3403 35.3991L50.9775 37.642L48.3403 39.885L51.2222 42.3319L51.8203 41.8289L53.4516 37.642L51.8203 33.4687L51.2222 32.9522Z" fill="#EF7C03"/>
<path d="M51.8203 33.4688V41.8425L56.7412 37.6556L51.8203 33.4688Z" fill="#F9850B"/>
<path d="M35.5486 40.0753L41.6658 33.1425L44.9283 35.2223L38.8111 42.1552L35.5486 40.0753Z" fill="#2C2D63"/>
<path d="M43.6641 53.2477H33.4688V56.7141H43.6641V53.2477Z" fill="#36375B"/>
<path d="M49.7812 53.2477V56.7141H51.8203L53.8594 54.9741L51.8203 53.2341H49.7812V53.2477Z" fill="#9192EE"/>
<path d="M59.9766 53.2477H51.8203V56.7141H59.9766V53.2477Z" fill="#40417C"/>
<path d="M78.3281 53.2477H64.0547V56.7141H78.3281V53.2477Z" fill="#1F2054"/>
<path d="M25.4484 53.9409H29.5266L29.3906 56.7141H25.3125L25.4484 53.9409Z" fill="#3E3F6B"/>
<path d="M37.5469 46.3148H25.3125V49.7813H37.5469V46.3148Z" fill="#404187"/>
<path d="M41.625 46.3148V49.7812H51.8203L53.4516 48.0412L51.8203 46.3013H41.625V46.3148Z" fill="#2E2F6B"/>
<path d="M53.8594 46.3148H51.8203V49.7813H53.8594V46.3148Z" fill="#595BD4"/>
<path d="M62.0156 46.3148H57.9375V49.7813H62.0156V46.3148Z" fill="#434475"/>
<path d="M78.3281 46.3148H66.0938V49.7813H78.3281V46.3148Z" fill="#3B3C63"/>
</svg>
