<svg width="105" height="106" viewBox="0 0 105 106" fill="none" xmlns="http://www.w3.org/2000/svg">
<rect width="105" height="102" rx="5" fill="#2651BC"/>
<path d="M82.1381 68.875H80.3438V78.1563C80.3413 78.976 80.0146 79.7615 79.4349 80.3412C78.8552 80.9208 78.0698 81.2476 77.25 81.25H67.9688V99.8125H37.0312V56.2525C38.0528 56.4295 39.0883 56.5124 40.125 56.5C42.0267 56.5069 43.9207 56.2572 45.7556 55.7575C47.1734 57.8886 49.0958 59.6364 51.3519 60.8454C53.608 62.0544 56.1279 62.6872 58.6875 62.6875C59.4339 62.6885 60.179 62.6264 60.915 62.5019C59.4738 60.8349 58.6828 58.7036 58.6875 56.5C58.6859 55.2807 58.9248 54.0731 59.3907 52.9463C59.8565 51.8195 60.5401 50.7957 61.4023 49.9335C62.2645 49.0714 63.2883 48.3878 64.415 47.9219C65.5418 47.4561 66.7495 47.2171 67.9688 47.2188C70.1724 47.214 72.3037 48.0049 73.9706 49.4463C74.0951 48.7103 74.1572 47.9652 74.1562 47.2188C74.1585 43.6157 72.9011 40.1253 70.6017 37.3513C68.3023 34.5774 65.1056 32.6945 61.5647 32.0285C61.3159 29.8035 60.6881 27.6375 59.7084 25.6244C65.097 25.829 70.2063 28.074 74.0016 31.9047C76.0182 33.9116 77.617 36.2983 78.7056 38.9269C79.7942 41.5554 80.351 44.3737 80.3438 47.2188V56.5L85.2319 61.3881C85.8434 62.0016 86.2597 62.7822 86.4284 63.6318C86.5971 64.4814 86.5106 65.362 86.1798 66.1625C85.849 66.963 85.2887 67.6477 84.5695 68.1304C83.8503 68.6131 83.0043 68.8722 82.1381 68.875Z" fill="#F2F2F2"/>
<path d="M74.1562 47.2188C74.1572 47.9652 74.0951 48.7103 73.9706 49.4463C72.3037 48.0049 70.1724 47.2139 67.9687 47.2188C66.7495 47.2171 65.5418 47.4561 64.415 47.9219C63.2882 48.3878 62.2644 49.0714 61.4023 49.9335C60.5401 50.7957 59.8565 51.8195 59.3907 52.9463C58.9248 54.0731 58.6859 55.2807 58.6875 56.5C58.6828 58.7036 59.4737 60.8349 60.915 62.5019C60.179 62.6264 59.4339 62.6884 58.6875 62.6875C56.1279 62.6872 53.608 62.0544 51.3519 60.8454C49.0958 59.6364 47.1734 57.8886 45.7556 55.7575C50.3575 54.5236 54.4231 51.8046 57.321 48.0228C60.2188 44.2411 61.7868 39.6082 61.7812 34.8438C61.7872 33.9009 61.7148 32.9593 61.5647 32.0284C65.1056 32.6945 68.3023 34.5774 70.6017 37.3513C72.9011 40.1253 74.1584 43.6157 74.1562 47.2188Z" fill="#F45151"/>
<path d="M61.5648 32.0284C61.316 29.8035 60.6881 27.6375 59.7085 25.6244C58.116 22.2336 55.6707 19.3141 52.6118 17.1515C49.553 14.9889 45.9852 13.6571 42.2574 13.2864C38.5297 12.9157 34.7695 13.5187 31.3446 15.0366C27.9198 16.5544 24.9474 18.9351 22.7183 21.9458C20.4891 24.9566 19.0795 28.4943 18.6271 32.213C18.1748 35.9318 18.6953 39.7042 20.1377 43.1616C21.5802 46.6189 23.8951 49.6427 26.8563 51.9373C29.8174 54.2319 33.3234 55.7188 37.0313 56.2525C38.0528 56.4295 39.0884 56.5124 40.1251 56.5C42.0268 56.5069 43.9208 56.2571 45.7557 55.7575C50.3576 54.5236 54.4232 51.8046 57.3211 48.0228C60.2189 44.241 61.7869 39.6082 61.7813 34.8437C61.7873 33.9009 61.7149 32.9592 61.5648 32.0284ZM37.4954 42.7328C37.8178 41.1619 38.3268 39.6352 39.0113 38.185L37.4954 42.7328Z" fill="#43B3FF"/>
<path d="M38.5781 62.6875C38.5781 62.2773 38.4152 61.8838 38.1251 61.5937C37.835 61.3036 37.4415 61.1407 37.0313 61.1407C36.621 61.1407 36.2275 61.3036 35.9374 61.5937C35.6473 61.8838 35.4844 62.2773 35.4844 62.6875V75.0625C35.4844 75.4728 35.6473 75.8662 35.9374 76.1563C36.2275 76.4464 36.621 76.6094 37.0313 76.6094C37.4415 76.6094 37.835 76.4464 38.1251 76.1563C38.4152 75.8662 38.5781 75.4728 38.5781 75.0625V62.6875ZM81.8906 55.8596V47.2188C81.8756 42.8294 80.6239 38.5331 78.2791 34.8225C75.9343 31.1119 72.5913 28.1371 68.6334 26.2393C68.4501 26.152 68.2514 26.1017 68.0487 26.0912C67.8459 26.0807 67.6431 26.1102 67.4518 26.1781C67.2604 26.246 67.0843 26.3509 66.9335 26.4869C66.7828 26.6228 66.6602 26.7871 66.5729 26.9704C66.4857 27.1537 66.4353 27.3524 66.4248 27.5552C66.4143 27.7579 66.4439 27.9608 66.5118 28.1521C66.5797 28.3434 66.6846 28.5195 66.8205 28.6703C66.9565 28.8211 67.1208 28.9436 67.3041 29.0309C70.7348 30.6769 73.6324 33.256 75.665 36.4727C77.6976 39.6895 78.783 43.4137 78.7969 47.2188V56.5C78.7968 56.7032 78.8368 56.9043 78.9146 57.092C78.9924 57.2796 79.1064 57.4501 79.25 57.5937L84.1384 62.4821C84.5339 62.879 84.8032 63.3841 84.9124 63.9338C85.0215 64.4834 84.9657 65.0531 84.7519 65.571C84.5382 66.089 84.176 66.5322 83.7109 66.8449C83.2459 67.1575 82.6987 67.3257 82.1384 67.3282H80.3438C80.1406 67.328 79.9394 67.368 79.7516 67.4457C79.5639 67.5234 79.3933 67.6373 79.2497 67.781C79.106 67.9246 78.9921 68.0952 78.9144 68.2829C78.8367 68.4707 78.7968 68.6719 78.7969 68.875V78.1563C78.7961 78.5663 78.6328 78.9593 78.3429 79.2492C78.053 79.5391 77.66 79.7023 77.25 79.7031H55.5968C54.3663 79.7019 53.1865 79.2126 52.3163 78.3426C51.446 77.4727 50.9563 76.2931 50.9546 75.0625C50.9546 74.6523 50.7917 74.2588 50.5016 73.9687C50.2115 73.6786 49.818 73.5157 49.4078 73.5157C48.9975 73.5157 48.6041 73.6786 48.314 73.9687C48.0239 74.2588 47.8609 74.6523 47.8609 75.0625C47.8631 77.1134 48.6789 79.0796 50.1293 80.5296C51.5796 81.9797 53.546 82.7951 55.5968 82.7969H66.4219V98.2656H38.5781V87.4375C38.5781 87.0273 38.4152 86.6338 38.1251 86.3437C37.835 86.0536 37.4415 85.8906 37.0313 85.8906C36.621 85.8906 36.2275 86.0536 35.9374 86.3437C35.6473 86.6338 35.4844 87.0273 35.4844 87.4375V99.8125C35.4843 100.016 35.5242 100.217 35.6019 100.405C35.6796 100.592 35.7935 100.763 35.9372 100.907C36.0808 101.05 36.2514 101.164 36.4391 101.242C36.6269 101.32 36.8281 101.36 37.0313 101.359H67.9688C68.1719 101.36 68.3731 101.32 68.5609 101.242C68.7486 101.164 68.9192 101.05 69.0628 100.907C69.2065 100.763 69.3204 100.592 69.3981 100.405C69.4758 100.217 69.5157 100.016 69.5156 99.8125V82.7969H77.25C78.4804 82.7956 79.6599 82.3062 80.5299 81.4362C81.3999 80.5662 81.8893 79.3866 81.8906 78.1563V70.4219H82.1384C83.3105 70.4191 84.4555 70.0694 85.4291 69.4167C86.4027 68.7641 87.1612 67.8378 87.6091 66.7546C88.057 65.6715 88.1741 64.48 87.9457 63.3303C87.7173 62.1807 87.1537 61.1244 86.3258 60.2947L81.8906 55.8596Z" fill="black"/>
<path d="M57.1438 56.5C57.1433 58.1024 57.5004 59.6847 58.1892 61.1315C55.3495 61.0377 52.6082 60.069 50.34 58.3581C50.1778 58.235 49.9929 58.1452 49.7959 58.0938C49.5989 58.0424 49.3937 58.0304 49.1921 58.0586C48.9904 58.0867 48.7963 58.1543 48.6209 58.2577C48.4455 58.361 48.2923 58.498 48.1699 58.6607C48.0476 58.8234 47.9586 59.0087 47.908 59.2059C47.8575 59.4031 47.8464 59.6083 47.8754 59.8098C47.9044 60.0114 47.9729 60.2052 48.0769 60.3801C48.181 60.5551 48.3186 60.7078 48.4819 60.8294C51.4216 63.0489 55.0072 64.2448 58.6907 64.2344C59.5237 64.2334 60.3553 64.1647 61.1772 64.0289C61.4476 63.9828 61.701 63.8656 61.9112 63.6894C62.1215 63.5131 62.2811 63.2841 62.3736 63.0258C62.4662 62.7675 62.4884 62.4892 62.4379 62.2195C62.3875 61.9499 62.2662 61.6984 62.0865 61.4911C60.8903 60.1037 60.2339 58.3318 60.2376 56.5C60.2394 54.4493 61.0549 52.4831 62.505 51.033C63.9551 49.583 65.9212 48.7675 67.9719 48.7656C69.8029 48.7619 71.5738 49.4184 72.96 50.6146C73.1674 50.7931 73.4183 50.9137 73.6873 50.9641C73.9563 51.0145 74.2338 50.9929 74.4918 50.9016C74.7497 50.8104 74.9787 50.652 75.155 50.4427C75.3313 50.2335 75.4486 49.9809 75.4948 49.7112C75.6365 48.888 75.7072 48.0541 75.7063 47.2187C75.7168 44.5752 75.106 41.9661 73.9231 39.602C72.7402 37.2378 71.0183 35.1847 68.8963 33.6081C68.5685 33.3634 68.1571 33.2588 67.7522 33.317C67.3474 33.3753 66.9822 33.5917 66.7366 33.9188C66.4911 34.2459 66.3853 34.6571 66.4424 35.0621C66.4995 35.4671 66.7149 35.8329 67.0413 36.0794C68.7087 37.3201 70.0748 38.921 71.0378 40.7628C72.0008 42.6046 72.536 44.6399 72.6034 46.7172C70.9536 45.9341 69.1324 45.5813 67.3095 45.6917C65.4865 45.8021 63.7212 46.3721 62.178 47.3487C60.6347 48.3252 59.3638 49.6765 58.4835 51.2767C57.6033 52.8768 57.1424 54.6737 57.1438 56.5Z" fill="black"/>
<path d="M63.3281 34.8438C63.3281 30.2546 61.9673 25.7685 59.4177 21.9528C56.8681 18.1371 53.2443 15.1631 49.0045 13.4069C44.7646 11.6507 40.0993 11.1912 35.5983 12.0865C31.0973 12.9818 26.9629 15.1917 23.7179 18.4367C20.4729 21.6817 18.263 25.8161 17.3677 30.3171C16.4724 34.818 16.9319 39.4834 18.6881 43.7232C20.4443 47.963 23.4183 51.5869 27.234 54.1365C31.0498 56.686 35.5359 58.0469 40.125 58.0469C46.2768 58.0402 52.1747 55.5934 56.5247 51.2434C60.8747 46.8935 63.3214 40.9956 63.3281 34.8438ZM20.0156 34.8438C20.0156 30.8665 21.195 26.9786 23.4047 23.6716C25.6143 20.3646 28.755 17.7872 32.4295 16.2651C36.104 14.7431 40.1473 14.3449 44.0482 15.1208C47.949 15.8967 51.5321 17.8119 54.3445 20.6243C57.1568 23.4366 59.0721 27.0198 59.848 30.9206C60.6239 34.8215 60.2257 38.8648 58.7037 42.5393C57.1816 46.2138 54.6041 49.3544 51.2972 51.5641C47.9902 53.7737 44.1023 54.9531 40.125 54.9531C34.7936 54.947 29.6823 52.8263 25.9123 49.0564C22.1424 45.2865 20.0218 40.1752 20.0156 34.8438Z" fill="black"/>
<path d="M43.7083 24.0942C43.5156 24.0289 43.3119 24.0025 43.109 24.0165C42.906 24.0305 42.7079 24.0846 42.526 24.1756C42.344 24.2666 42.182 24.3928 42.0491 24.5468C41.9163 24.7009 41.8153 24.8797 41.752 25.0731L35.5645 43.6356C35.4994 43.8284 35.473 44.0322 35.4869 44.2352C35.5007 44.4383 35.5545 44.6366 35.6451 44.8188C35.7358 45.001 35.8615 45.1635 36.0151 45.2971C36.1687 45.4306 36.3471 45.5325 36.5402 45.5969C36.7332 45.6613 36.9371 45.687 37.1401 45.6725C37.3431 45.6579 37.5412 45.6034 37.7231 45.5122C37.905 45.4209 38.0671 45.2946 38.2001 45.1405C38.3331 44.9865 38.4344 44.8077 38.4981 44.6144L44.6856 26.0519C44.8152 25.6627 44.785 25.238 44.6018 24.8709C44.4185 24.5039 44.0972 24.2246 43.7083 24.0942ZM31.9375 27.5625C31.7939 27.4189 31.6234 27.3049 31.4358 27.2272C31.2481 27.1494 31.047 27.1094 30.8439 27.1094C30.6408 27.1094 30.4396 27.1494 30.252 27.2272C30.0643 27.3049 29.8938 27.4189 29.7502 27.5625L23.5627 33.75C23.4191 33.8936 23.3051 34.0641 23.2274 34.2518C23.1496 34.4394 23.1096 34.6406 23.1096 34.8437C23.1096 35.0468 23.1496 35.2479 23.2274 35.4356C23.3051 35.6232 23.4191 35.7937 23.5627 35.9373L29.7502 42.1248C30.042 42.4066 30.4327 42.5625 30.8383 42.559C31.2439 42.5555 31.6319 42.3928 31.9187 42.106C32.2055 41.8192 32.3682 41.4312 32.3717 41.0256C32.3752 40.62 32.2193 40.2293 31.9375 39.9375L26.8436 34.8437L31.9375 29.7499C32.0812 29.6063 32.1952 29.4358 32.2729 29.2482C32.3507 29.0605 32.3907 28.8594 32.3907 28.6562C32.3907 28.4531 32.3507 28.252 32.2729 28.0643C32.1952 27.8766 32.0812 27.7061 31.9375 27.5625ZM48.3126 42.1249C48.4562 42.2686 48.6267 42.3825 48.8144 42.4603C49.002 42.538 49.2031 42.5781 49.4063 42.5781C49.6094 42.5781 49.8105 42.538 49.9982 42.4603C50.1858 42.3825 50.3563 42.2686 50.4999 42.1249L56.6874 35.9374C56.8311 35.7938 56.945 35.6234 57.0228 35.4357C57.1005 35.2481 57.1405 35.0469 57.1405 34.8438C57.1405 34.6407 57.1005 34.4396 57.0228 34.2519C56.945 34.0643 56.8311 33.8938 56.6874 33.7502L50.4999 27.5627C50.2082 27.2809 49.8174 27.125 49.4118 27.1285C49.0062 27.132 48.6183 27.2947 48.3315 27.5815C48.0447 27.8683 47.882 28.2563 47.8784 28.6619C47.8749 29.0675 48.0308 29.4582 48.3126 29.7499L53.4065 34.8437L48.3127 39.9375C48.169 40.0811 48.0551 40.2516 47.9773 40.4393C47.8995 40.6269 47.8595 40.8281 47.8595 41.0312C47.8595 41.2344 47.8995 41.4355 47.9772 41.6232C48.055 41.8108 48.169 41.9813 48.3126 42.1249Z" fill="black"/>
<path d="M37.0312 82.7969C37.8856 82.7969 38.5781 82.1043 38.5781 81.25C38.5781 80.3957 37.8856 79.7031 37.0312 79.7031C36.1769 79.7031 35.4844 80.3957 35.4844 81.25C35.4844 82.1043 36.1769 82.7969 37.0312 82.7969Z" fill="black"/>
</svg>
