<svg width="105" height="102" viewBox="0 0 105 102" fill="none" xmlns="http://www.w3.org/2000/svg">
<rect width="105" height="102" rx="5" fill="#ED6B23"/>
<g clip-path="url(#clip0_30_6440)">
<path d="M43.9177 13.6082H61.0822C62.5114 13.6082 63.882 14.1759 64.8926 15.1865C65.9031 16.1971 66.4709 17.5677 66.4709 18.9969V30.6434H38.5291V18.9969C38.5291 17.5677 39.0968 16.1971 40.1074 15.1865C41.1179 14.1759 42.4886 13.6082 43.9177 13.6082Z" fill="#FBBC05"/>
<path d="M58.4978 30.6434H66.471V18.9969C66.4719 18.1243 66.26 17.2646 65.8535 16.4924C65.308 18.049 64.5149 19.5074 63.5046 20.8113C62.7768 21.7489 61.9422 22.5985 61.0176 23.3428L58.4978 30.6434Z" fill="#24472D"/>
<path d="M85.7985 100.262V73.3738C85.7985 71.28 85.1683 69.2347 83.9898 67.504C82.8114 65.7733 81.1394 64.4374 79.1913 63.67L62.3267 57.0268C61.6773 56.771 61.12 56.3257 60.7272 55.7488C60.3344 55.1719 60.1243 54.4902 60.1243 53.7922V50.5057H44.8759V53.7922C44.8759 54.4902 44.6658 55.1719 44.273 55.7488C43.8802 56.3257 43.3229 56.771 42.6735 57.0268L25.8089 63.67C23.8607 64.4374 22.1887 65.7734 21.0103 67.5041C19.8319 69.2348 19.2017 71.2802 19.2017 73.374V100.262C19.2017 100.723 19.3848 101.165 19.7108 101.491C20.0368 101.817 20.4789 102 20.9399 102H84.0604C84.5214 102 84.9636 101.817 85.2896 101.491C85.6156 101.165 85.7987 100.723 85.7987 100.262H85.7985Z" fill="#34A853"/>
<path d="M41.7712 57.3823C42.6912 59.4603 44.1947 61.2264 46.0993 62.4662C48.0039 63.7059 50.2275 64.3658 52.5 64.3658C54.7725 64.3658 56.9961 63.7059 58.9007 62.4662C60.8053 61.2264 62.3088 59.4603 63.2288 57.3823L62.3266 57.0268C61.6772 56.771 61.1199 56.3257 60.7271 55.7488C60.3343 55.1719 60.1242 54.4902 60.1242 53.7922V50.5057H44.8758V53.7922C44.8758 54.4902 44.6657 55.1719 44.2729 55.7488C43.8801 56.3257 43.3228 56.771 42.6734 57.0268L41.7712 57.3823Z" fill="#CC908B"/>
<path d="M60.6776 55.6699C60.3168 55.1101 60.1248 54.4583 60.1244 53.7922V50.5057H44.876V51.8511C46.0389 53.2873 47.4216 54.5306 48.9728 55.535C50.7121 56.6602 52.7344 57.2699 54.8058 57.2938C56.8772 57.3177 58.913 56.7547 60.6778 55.6699H60.6776Z" fill="#EA4335"/>
<path d="M64.9413 44.3244C63.5571 47.4176 61.3063 50.0436 58.461 51.8845C56.6852 53.0335 54.6151 53.6448 52.4999 53.6448C50.3848 53.6448 48.3147 53.0335 46.5388 51.8845C43.6936 50.0436 41.4427 47.4176 40.0585 44.3244C39.0502 42.0711 38.5289 39.6303 38.5288 37.1618V30.6434C43.1902 30.7099 47.8216 29.89 52.1768 28.2272C55.3353 27.0156 58.3106 25.3718 61.0175 23.3428C61.4014 24.8587 62.0807 26.2839 63.0165 27.5367C63.9523 28.7896 65.1262 29.8453 66.4708 30.6436V37.1619C66.4708 39.6305 65.9496 42.0711 64.9413 44.3244ZM19.2014 91.9152H31.4876V102H19.2014V91.9152Z" fill="#CC908B"/>
<path d="M54.7082 40.7233V41.7924C54.7082 42.0823 54.6511 42.3694 54.5402 42.6373C54.4293 42.9052 54.2667 43.1485 54.0617 43.3536C53.8567 43.5586 53.6133 43.7213 53.3455 43.8322C53.0776 43.9432 52.7905 44.0003 52.5006 44.0003H52.4994C51.9138 44.0003 51.3523 43.7677 50.9382 43.3537C50.5242 42.9397 50.2916 42.3781 50.2916 41.7926V40.7233C50.2916 40.585 50.3465 40.4524 50.4443 40.3546C50.5421 40.2568 50.6748 40.2019 50.8131 40.2019H54.1867C54.325 40.2019 54.4577 40.2568 54.5555 40.3546C54.6533 40.4524 54.7082 40.585 54.7082 40.7233ZM38.529 37.0716C37.4506 37.0716 36.4165 36.6432 35.654 35.8807C34.8915 35.1182 34.4631 34.084 34.4631 33.0057C34.4631 32.1916 34.7866 31.4107 35.3623 30.835C35.938 30.2593 36.7188 29.9359 37.5329 29.9359H38.529V37.0716ZM66.4708 37.0716V29.9359H67.4668C68.281 29.9359 69.0618 30.2593 69.6375 30.835C70.2132 31.4107 70.5366 32.1916 70.5366 33.0057C70.5366 34.084 70.1083 35.1182 69.3458 35.8807C68.5833 36.6432 67.5491 37.0716 66.4708 37.0716Z" fill="#EA4335"/>
<path d="M93.7842 68.7427H65.7419C64.3019 68.7427 63.1345 69.9101 63.1345 71.3501V99.3924C63.1345 100.832 64.3019 102 65.7419 102H93.7842C95.2243 102 96.3917 100.832 96.3917 99.3924V71.3501C96.3917 69.9101 95.2243 68.7427 93.7842 68.7427Z" fill="#F2F2F2"/>
<path d="M65.7419 68.7427H93.7842C94.4758 68.7427 95.139 69.0174 95.628 69.5064C96.117 69.9954 96.3917 70.6586 96.3917 71.3501V74.8267H63.1345V71.3501C63.1345 70.6586 63.4092 69.9954 63.8982 69.5064C64.3872 69.0174 65.0504 68.7427 65.7419 68.7427Z" fill="#FBBC05"/>
<path d="M43.374 33.4806H49.458C49.7807 33.4806 50.0902 33.6088 50.3184 33.837C50.5466 34.0652 50.6748 34.3747 50.6748 34.6974V36.9572C50.6748 37.2799 50.5466 37.5894 50.3184 37.8176C50.0902 38.0458 49.7807 38.174 49.458 38.174H44.5908C44.2681 38.174 43.9586 38.0458 43.7304 37.8176C43.5022 37.5894 43.374 37.2799 43.374 36.9572V33.4806ZM55.542 33.4806H61.626V36.9572C61.626 37.2799 61.4978 37.5894 61.2696 37.8176C61.0414 38.0458 60.7319 38.174 60.4092 38.174H55.542C55.2193 38.174 54.9098 38.0458 54.6816 37.8176C54.4534 37.5894 54.3252 37.2799 54.3252 36.9572V34.6974C54.3252 34.3747 54.4534 34.0652 54.6816 33.837C54.9098 33.6088 55.2193 33.4806 55.542 33.4806Z" fill="#4285F4"/>
<path d="M38.529 30.6436V18.9971C38.529 17.5679 39.0968 16.1973 40.1073 15.1867C41.1179 14.1761 42.4885 13.6084 43.9177 13.6084H61.0822C62.5113 13.6084 63.882 14.1761 64.8925 15.1867C65.9031 16.1973 66.4708 17.5679 66.4708 18.9971V30.6436M60.124 50.6651V53.7922C60.1241 54.4902 60.3341 55.172 60.7269 55.749C61.1197 56.3259 61.6771 56.7713 62.3264 57.0272L79.1912 63.6709C81.3765 64.5305 83.2069 66.1036 84.3852 68.1348M44.8758 50.6651V53.7922C44.8758 54.4902 44.6657 55.172 44.2729 55.749C43.8801 56.3259 43.3228 56.7713 42.6734 57.0272L25.8086 63.6709C23.8606 64.4381 22.1885 65.7739 21.0101 67.5045C19.8317 69.2351 19.2015 71.2803 19.2014 73.374V101.392M31.4876 101.392V88.6719" stroke="black" stroke-width="2" stroke-linecap="round" stroke-linejoin="round"/>
<path d="M19.2014 91.9154H31.4876M64.9413 44.3245C63.5571 47.4178 61.3063 50.0437 58.461 51.8847C56.6852 53.0337 54.6151 53.645 52.4999 53.645C50.3848 53.645 48.3147 53.0337 46.5388 51.8847C43.6936 50.0437 41.4427 47.4178 40.0585 44.3245C39.0502 42.0713 38.5289 39.6305 38.5288 37.1619V30.6436C43.1902 30.7101 47.8216 29.8902 52.1768 28.2273C55.3354 27.0157 58.3106 25.3719 61.0175 23.3428C61.4014 24.8587 62.0807 26.2839 63.0165 27.5367C63.9523 28.7896 65.1262 29.8453 66.4708 30.6436V37.1619C66.4708 39.6305 65.9496 42.0713 64.9413 44.3245Z" stroke="black" stroke-width="2" stroke-linecap="round" stroke-linejoin="round"/>
<path d="M50.0281 47.4148C50.8006 47.7811 51.6449 47.9711 52.4999 47.9711C53.3549 47.9711 54.1992 47.7811 54.9717 47.4148M54.7082 40.8315V41.7927C54.7081 42.3783 54.4753 42.9398 54.0612 43.3538C53.6471 43.7678 53.0855 44.0004 52.4999 44.0003C51.9143 44.0004 51.3527 43.7678 50.9386 43.3538C50.5244 42.9398 50.2917 42.3783 50.2916 41.7927V40.8315M63.2287 57.3825C62.3088 59.4605 60.8053 61.2267 58.9007 62.4665C56.9961 63.7062 54.7724 64.3662 52.4999 64.3662C50.2273 64.3662 48.0037 63.7062 46.0991 62.4665C44.1945 61.2267 42.6909 59.4605 41.771 57.3825M66.4708 30.6436L61.6259 33.4806M61.6259 33.4806H55.5419C55.2192 33.4806 54.9097 33.6088 54.6815 33.837C54.4533 34.0652 54.3251 34.3747 54.3251 34.6974V36.9572C54.3251 37.2799 54.4533 37.5894 54.6815 37.8176C54.9097 38.0458 55.2192 38.174 55.5419 38.174H60.4091C60.7318 38.174 61.0413 38.0458 61.2695 37.8176C61.4977 37.5894 61.6259 37.2799 61.6259 36.9572V33.4806ZM38.529 30.6436L43.3739 33.4806M43.3739 33.4806H49.4579C49.7806 33.4806 50.0901 33.6088 50.3183 33.837C50.5465 34.0652 50.6747 34.3747 50.6747 34.6974V36.9572C50.6747 37.2799 50.5465 37.5894 50.3183 37.8176C50.0901 38.0458 49.7806 38.174 49.4579 38.174H44.5907C44.268 38.174 43.9585 38.0458 43.7303 37.8176C43.5021 37.5894 43.3739 37.2799 43.3739 36.9572V33.4806ZM54.3251 35.8271H50.6747M61.0175 23.3428C61.942 22.5986 62.7767 21.7491 63.5044 20.8115C64.5149 19.5073 65.3082 18.0486 65.8537 16.4915M38.529 37.0717C37.4506 37.0717 36.4165 36.6434 35.654 35.8809C34.8915 35.1184 34.4631 34.0842 34.4631 33.0059C34.4631 32.1917 34.7866 31.4109 35.3623 30.8352C35.938 30.2595 36.7188 29.9361 37.5329 29.9361H38.529V37.0717ZM66.4708 37.0717V29.9361H67.4668C68.281 29.9361 69.0618 30.2595 69.6375 30.8352C70.2132 31.4109 70.5366 32.1917 70.5366 33.0059C70.5366 34.0842 70.1083 35.1184 69.3458 35.8809C68.5833 36.6434 67.5491 37.0717 66.4708 37.0717Z" stroke="black" stroke-width="2" stroke-linecap="round" stroke-linejoin="round"/>
<path d="M93.7842 68.1345H65.7419C64.3019 68.1345 63.1345 69.3018 63.1345 70.7419V98.7842C63.1345 100.224 64.3019 101.392 65.7419 101.392H93.7842C95.2243 101.392 96.3917 100.224 96.3917 98.7842V70.7419C96.3917 69.3018 95.2243 68.1345 93.7842 68.1345Z" stroke="black" stroke-width="2" stroke-linecap="round" stroke-linejoin="round"/>
<path d="M65.7419 68.1345H93.7842C94.4758 68.1345 95.139 68.4092 95.628 68.8982C96.117 69.3871 96.3917 70.0504 96.3917 70.7419V74.2184H63.1345V70.7419C63.1345 70.0504 63.4092 69.3871 63.8982 68.8982C64.3872 68.4092 65.0504 68.1345 65.7419 68.1345Z" stroke="black" stroke-width="2" stroke-linecap="round" stroke-linejoin="round"/>
<path d="M66.6699 71.8502C67.0059 71.8502 67.2783 71.5778 67.2783 71.2418C67.2783 70.9058 67.0059 70.6334 66.6699 70.6334C66.3339 70.6334 66.0615 70.9058 66.0615 71.2418C66.0615 71.5778 66.3339 71.8502 66.6699 71.8502Z" fill="black"/>
<path d="M69.1035 71.8502C69.4395 71.8502 69.7119 71.5778 69.7119 71.2418C69.7119 70.9058 69.4395 70.6334 69.1035 70.6334C68.7675 70.6334 68.4951 70.9058 68.4951 71.2418C68.4951 71.5778 68.7675 71.8502 69.1035 71.8502Z" fill="black"/>
<path d="M71.5371 71.8502C71.8731 71.8502 72.1455 71.5778 72.1455 71.2418C72.1455 70.9058 71.8731 70.6334 71.5371 70.6334C71.2011 70.6334 70.9287 70.9058 70.9287 71.2418C70.9287 71.5778 71.2011 71.8502 71.5371 71.8502Z" fill="black"/>
<path d="M73.8267 91.7506L69.3871 88.3574C69.3022 88.2925 69.2334 88.2089 69.186 88.1131C69.1387 88.0173 69.114 87.9119 69.114 87.805C69.114 87.6981 69.1387 87.5927 69.186 87.4969C69.2334 87.4011 69.3022 87.3175 69.3871 87.2526L73.8267 83.8595M85.6995 91.7506L90.139 88.3574C90.2239 88.2925 90.2928 88.2089 90.3401 88.1131C90.3875 88.0173 90.4121 87.9119 90.4121 87.805C90.4121 87.6981 90.3875 87.5927 90.3401 87.4969C90.2928 87.4011 90.2239 87.3175 90.139 87.2526L85.6995 83.8595M77.2629 92.6559L82.2632 82.9542" stroke="black" stroke-width="2" stroke-linecap="round" stroke-linejoin="round"/>
</g>
<defs>
<clipPath id="clip0_30_6440">
<rect width="89" height="89" fill="white" transform="translate(8 13)"/>
</clipPath>
</defs>
</svg>
