<svg width="105" height="102" viewBox="0 0 105 102" fill="none" xmlns="http://www.w3.org/2000/svg">
<rect width="105" height="102" rx="5" fill="#0060AF"/>
<path d="M77.5478 65.5872V75.6485C77.5377 78.1814 75.1617 80.7101 70.414 82.6426C60.8596 86.532 45.3148 86.532 35.6985 82.6426C30.8601 80.6842 28.4409 78.1152 28.4524 75.5506V65.4893C28.4424 68.0539 30.8587 70.6243 35.6985 72.5813C45.3163 76.4707 60.8596 76.4707 70.414 72.5813C75.1617 70.6488 77.5377 68.1202 77.5478 65.5872Z" fill="#798FFE"/>
<path d="M77.5476 65.5772C77.5564 60.0762 66.5731 55.5993 53.0158 55.5778C39.4585 55.5562 28.4611 59.9982 28.4523 65.4992C28.4436 71.0003 39.4269 75.4772 52.9842 75.4987C66.5415 75.5202 77.5389 71.0782 77.5476 65.5772Z" fill="#8CA1FD"/>
<path d="M76.9371 63.3955C77.5275 66.1574 75.2437 68.9971 70.0539 71.1096C60.6968 74.9184 45.4746 74.9198 36.0555 71.1096C30.8053 68.9856 28.4754 66.1272 29.0542 63.3523C27.3032 66.5707 29.505 70.0771 35.6984 72.5827C45.3162 76.4707 60.8595 76.4707 70.4139 72.5827C76.5397 70.0886 78.6954 66.6024 76.9371 63.3955Z" fill="#B7C5FD"/>
<path d="M75.6268 52.2009V61.4745C75.6167 63.8073 73.4264 66.1401 69.0517 67.9214C60.2447 71.507 45.9167 71.507 37.0535 67.9214C32.5924 66.1171 30.3632 63.7483 30.3733 61.3838V52.1102C30.3632 54.4747 32.5909 56.8435 37.0535 58.6478C45.9167 62.2334 60.2447 62.2334 69.0503 58.6478C73.4279 56.8666 75.6167 54.5352 75.6268 52.2009Z" fill="#3955D1"/>
<path d="M77.5478 46.0176V56.0803C77.5377 58.6133 75.1617 61.1419 70.414 63.0744C60.8596 66.9638 45.3148 66.9638 35.6985 63.0744C30.8601 61.116 28.4409 58.547 28.4524 55.9824V45.9211C28.4424 48.4858 30.8587 51.0562 35.6985 53.0131C45.3163 56.9026 60.8596 56.9026 70.414 53.0131C75.1617 51.0806 77.5377 48.5506 77.5478 46.0176Z" fill="#798FFE"/>
<path d="M77.5476 46.0091C77.5564 40.5081 66.5731 36.0312 53.0158 36.0096C39.4585 35.9881 28.4611 40.4301 28.4523 45.9311C28.4436 51.4321 39.4269 55.909 52.9842 55.9306C66.5415 55.9521 77.5389 51.5101 77.5476 46.0091Z" fill="#8CA1FD"/>
<path d="M76.9371 43.8288C77.5275 46.5893 75.2437 49.4289 70.0539 51.5414C60.6968 55.3502 45.4746 55.3517 36.0555 51.5414C30.8053 49.4174 28.4754 46.559 29.0542 43.7841C27.3032 47.0025 29.505 50.5089 35.6984 53.0145C45.3162 56.9025 60.8595 56.9025 70.4139 53.0145C76.5397 50.519 78.6954 47.0342 76.9371 43.8273V43.8288Z" fill="#B7C5FD"/>
<path d="M75.6268 32.6328V41.9064C75.6167 44.2392 73.4264 46.572 69.0517 48.3533C60.2447 51.9389 45.9167 51.9389 37.0535 48.3533C32.5924 46.549 30.3632 44.1802 30.3733 41.8157V32.5421C30.3632 34.9066 32.5909 37.2754 37.0535 39.0797C45.9167 42.6653 60.2447 42.6653 69.0503 39.0797C73.4279 37.2984 75.6167 34.967 75.6268 32.6328Z" fill="#3955D1"/>
<path d="M77.5478 26.4509V36.5122C77.5377 39.0437 75.1617 41.5738 70.414 43.5062C60.8596 47.3957 45.3148 47.3957 35.6985 43.5062C30.8601 41.5478 28.4409 38.9789 28.4524 36.4142V26.353C28.4424 28.9176 30.8587 31.488 35.6985 33.445C45.3163 37.3344 60.8596 37.3344 70.414 33.445C75.1617 31.5125 77.5377 28.9838 77.5478 26.4509Z" fill="#798FFE"/>
<path d="M77.5476 26.4409C77.5564 20.9399 66.5731 16.463 53.0158 16.4414C39.4585 16.4199 28.4611 20.8619 28.4523 26.3629C28.4436 31.8639 39.4269 36.3409 52.9842 36.3624C66.5415 36.3839 77.5389 31.9419 77.5476 26.4409Z" fill="#8CA1FD"/>
<path d="M76.9372 24.2592C77.5276 27.0211 75.2437 29.8608 70.054 31.9733C60.6968 35.7821 45.4746 35.7835 36.0556 31.9733C30.8067 29.8493 28.4768 26.9909 29.0557 24.216C27.3047 27.4344 29.5064 30.9408 35.6999 33.445C45.3176 37.3358 60.861 37.3344 70.4154 33.445C76.5412 30.9509 78.6954 27.4661 76.9372 24.2592Z" fill="#B7C5FD"/>
</svg>
