<svg width="105" height="103" viewBox="0 0 105 103" fill="none" xmlns="http://www.w3.org/2000/svg">
<rect width="105" height="102" rx="5" fill="#1AAE48"/>
<path d="M80 80.5H26V101.5H80V80.5Z" fill="#F2B89E"/>
<path d="M35 101.5V80.5H24.5L26.483 68.6005C26.785 66.7878 27.61 65.1027 28.8566 63.7525C30.1032 62.4022 31.7171 61.4455 33.5 61L45.5 58H60.5L72.5 61C74.2829 61.4455 75.8968 62.4022 77.1434 63.7525C78.39 65.1027 79.215 66.7878 79.517 68.6005L81.5 80.5H71V101.5H35Z" fill="#80AC00"/>
<path d="M72.5 61L63.0305 58.633L53.5295 60.082C49.123 60.756 45.1037 62.9862 42.1999 66.3683C39.296 69.7504 37.6996 74.0608 37.7 78.5185V101.5H71V80.5H81.5L79.517 68.6005C79.2149 66.7878 78.3899 65.1027 77.1433 63.7525C75.8967 62.4022 74.2828 61.4455 72.5 61Z" fill="#8BC000"/>
<path d="M60.5 50.5V58L59.996 58.75C59.2287 59.9027 58.1887 60.8481 56.9682 61.5022C55.7478 62.1564 54.3847 62.4992 53 62.5C51.6153 62.4992 50.2522 62.1564 49.0318 61.5022C47.8113 60.8481 46.7713 59.9027 46.004 58.75L45.5 58V50.5H60.5Z" fill="#D08C76"/>
<path d="M34.7179 37.369L33.8179 33.7555C33.6095 32.9215 33.5043 32.0651 33.5044 31.2055C33.5041 30.0756 33.6864 28.9532 34.0444 27.8815C34.6788 25.9726 35.0014 23.974 34.9999 21.9625C34.9998 20.2023 35.5272 18.4826 36.5141 17.0251C37.501 15.5676 38.902 14.4394 40.5364 13.786L42.4999 13V17.5C43.4338 15.6318 44.7821 14.0015 46.4419 12.7337C48.1018 11.4659 50.0293 10.594 52.0774 10.1845L52.9999 10V11.146C52.9999 12.1539 53.2806 13.1418 53.8104 13.9991C54.3403 14.8564 55.0984 15.5493 55.9999 16V13L60.5539 14.3005C62.3617 14.8172 64.0016 15.8008 65.3087 17.1524C66.6158 18.504 67.544 20.1759 67.9999 22C69.3103 22.4367 70.45 23.2746 71.2576 24.3951C72.0653 25.5156 72.4999 26.8618 72.4999 28.243C72.5 31.0702 72.1534 33.8867 71.4679 36.6295L71.2819 37.369H34.7179Z" fill="#383838"/>
<path d="M71.468 36.6295C72.1535 33.8867 72.5001 31.0702 72.5 28.243C72.5 26.8618 72.0654 25.5156 71.2578 24.3951C70.4501 23.2746 69.3104 22.4367 68 22C67.5441 20.1759 66.6159 18.504 65.3088 17.1524C64.0017 15.8008 62.3618 14.8172 60.554 14.3005L56 13V16C55.0986 15.5493 54.3404 14.8564 53.8106 13.9991C53.2807 13.1418 53 12.1539 53 11.146V10L52.0775 10.1845C50.0294 10.594 48.1019 11.4659 46.442 12.7337C44.7822 14.0015 43.4339 15.6318 42.5 17.5V15.379C41.5603 16.1997 40.8066 17.2116 40.2893 18.3469C39.7719 19.4822 39.5028 20.7149 39.5 21.9625C39.5001 23.9743 39.176 25.9729 38.54 27.8815C37.9074 29.7781 37.8289 31.8158 38.3135 33.7555L39.2135 37.369H71.282L71.468 36.6295Z" fill="#4C4C4C"/>
<path d="M38.1635 37H36.5C35.3065 37 34.1619 37.4741 33.318 38.318C32.4741 39.1619 32 40.3065 32 41.5C32 42.6935 32.4741 43.8381 33.318 44.682C34.1619 45.5259 35.3065 46 36.5 46H39.2495M67.8365 37H69.5C70.6935 37 71.8381 37.4741 72.682 38.318C73.5259 39.1619 74 40.3065 74 41.5C74 42.6935 73.5259 43.8381 72.682 44.682C71.8381 45.5259 70.6935 46 69.5 46H66.7505" fill="#D08C76"/>
<path d="M58.496 27.8365C59.8027 26.9648 61.3383 26.4998 62.909 26.5C63.518 26.5002 64.1115 26.692 64.6055 27.0481C65.0994 27.4043 65.4689 27.9068 65.6615 28.4845L66.5765 31.231C67.5197 34.0584 68.0003 37.0195 68 40C68 43.9782 66.4196 47.7936 63.6066 50.6066C60.7936 53.4196 56.9782 55 53 55C49.0218 55 45.2064 53.4196 42.3934 50.6066C39.5804 47.7936 38 43.9782 38 40C37.9997 37.0195 38.4803 34.0584 39.4235 31.231L40.3385 28.4845C40.5311 27.9068 40.9006 27.4043 41.3945 27.0481C41.8885 26.692 42.482 26.5002 43.091 26.5C44.6617 26.4998 46.1973 26.9648 47.504 27.8365C49.1317 28.9211 51.044 29.4999 53 29.5C54.956 29.4999 56.8683 28.9211 58.496 27.8365Z" fill="#D08C76"/>
<path d="M54.5 54.925C58.2 54.5531 61.6299 52.8202 64.1244 50.0624C66.6189 47.3046 68.0001 43.7186 68 40C68.0003 37.0195 67.5197 34.0584 66.5765 31.231L65.6615 28.4845C65.4689 27.9068 65.0994 27.4043 64.6055 27.0481C64.1115 26.692 63.518 26.5002 62.909 26.5C61.3383 26.4998 59.8027 26.9648 58.496 27.8365C56.8683 28.9212 54.956 29.5001 53 29.5001C51.044 29.5001 49.1317 28.9212 47.504 27.8365C46.7337 27.33 45.8809 26.962 44.984 26.749C44.6004 26.9027 44.2545 27.1373 43.9697 27.4368C43.685 27.7363 43.4682 28.0936 43.334 28.4845L42.419 31.231C41.4774 34.0586 40.9982 37.0197 41 40C41 43.7186 42.3812 47.3046 44.8756 50.0624C47.3701 52.8202 50.8001 54.5531 54.5 54.925ZM59.996 58.75L60.5 58V54.4765C57.1464 56.4268 53.1653 56.9949 49.4 56.0605C49.1104 55.995 48.8098 55.996 48.5206 56.0633C48.2314 56.1306 47.9613 56.2625 47.7304 56.4491C47.4994 56.6357 47.3138 56.8722 47.1873 57.1408C47.0608 57.4094 46.9968 57.7031 47 58L47.504 58.75C48.2018 59.7952 49.1252 60.6706 50.2061 61.3115C51.2871 61.9525 52.4982 62.3427 53.75 62.4535C55.0018 62.3427 56.2129 61.9525 57.2939 61.3115C58.3749 60.6706 59.2983 59.7952 59.996 58.75Z" fill="#F2B89E"/>
<path d="M56 37H50V40H56V37Z" fill="#A3B8DB"/>
<path d="M62.6225 40.6165L67.9175 37.9675C67.8368 36.9132 67.6951 35.8644 67.493 34.8265L61.2815 37.933L62.6225 40.6165ZM44.7185 37.933L38.507 34.8265C38.305 35.8644 38.1632 36.9132 38.0825 37.9675L43.3775 40.6165L44.7185 37.933Z" fill="#A3B8DB"/>
<path d="M50 35.5H42.5V41.5H50V35.5Z" fill="#D6DFEF"/>
<path d="M63.5 35.5H56V41.5H63.5V35.5Z" fill="#D6DFEF"/>
<path d="M57.875 94H44V100H62.303" fill="#93ADD1"/>
<path d="M56 100H87.5L95 76H63.5L56 100Z" fill="#A3B8DB"/>
<path d="M95 76H65.5625L63.731 81.859C63.1854 83.6051 63.0582 85.455 63.3596 87.2593C63.6611 89.0636 64.3827 90.7717 65.4663 92.2456C66.5499 93.7195 67.965 94.9178 69.5973 95.7437C71.2295 96.5696 73.0332 97 74.8625 97H88.4375L95 76Z" fill="#C0CEE8"/>
<path d="M75.5 91C77.1569 91 78.5 89.6569 78.5 88C78.5 86.3431 77.1569 85 75.5 85C73.8431 85 72.5 86.3431 72.5 88C72.5 89.6569 73.8431 91 75.5 91Z" fill="white"/>
<path d="M96.2091 75.1105C96.0695 74.9211 95.8874 74.7671 95.6774 74.661C95.4674 74.555 95.2353 74.4998 95.0001 74.5H82.0206L80.9961 68.35C80.6466 66.2487 79.6906 64.2954 78.2457 62.7302C76.8007 61.1651 74.9298 60.0564 72.8631 59.5405L62.0001 56.83V53.812C64.4076 52.2352 66.3645 50.0602 67.6791 47.5H69.3501C70.9605 47.5172 72.512 46.8954 73.6648 45.7707C74.8176 44.6461 75.4775 43.1103 75.5001 41.5C75.4943 40.5563 75.2633 39.6276 74.8263 38.7912C74.3893 37.9547 73.7589 37.2347 72.9876 36.691C73.6575 33.9249 73.9974 31.0891 74.0001 28.243C74.0018 26.6863 73.553 25.1623 72.708 23.855C71.8629 22.5476 70.6577 21.5127 69.2376 20.875C68.622 18.9628 67.5455 17.2314 66.1028 15.8335C64.6602 14.4355 62.8957 13.414 60.9651 12.859L56.4111 11.5585C56.1887 11.495 55.9547 11.4837 55.7273 11.5256C55.4998 11.5675 55.2852 11.6614 55.1001 11.8C54.924 11.9338 54.7792 12.1042 54.6756 12.2995C54.5602 11.9258 54.5011 11.5371 54.5001 11.146V10C54.5001 9.77755 54.4507 9.55787 54.3553 9.35687C54.26 9.15588 54.1212 8.97861 53.9489 8.8379C53.7766 8.69719 53.5751 8.59656 53.3591 8.54331C53.1432 8.49006 52.918 8.48551 52.7001 8.53L51.7776 8.7145C48.8292 9.29801 46.1216 10.7466 44.0001 12.8755C43.9804 12.642 43.9063 12.4163 43.7837 12.2165C43.6611 12.0168 43.4934 11.8486 43.294 11.7253C43.0947 11.6021 42.8692 11.5273 42.6357 11.5069C42.4023 11.4865 42.1673 11.5212 41.9496 11.608L39.9846 12.394C38.0669 13.152 36.4224 14.4705 35.2656 16.1775C34.1088 17.8845 33.4935 19.9005 33.5001 21.9625C33.5013 23.8128 33.2029 25.6511 32.6166 27.406C31.8942 29.574 31.8047 31.903 32.3586 34.12L32.9931 36.6535C31.963 37.3932 31.1944 38.4409 30.7983 39.6456C30.4022 40.8503 30.399 42.1497 30.7892 43.3563C31.1793 44.5629 31.9426 45.6145 32.9691 46.3592C33.9955 47.104 35.2319 47.5034 36.5001 47.5H38.3211C39.6356 50.0602 41.5925 52.2352 44.0001 53.812V56.83L33.1371 59.545C31.0708 60.0602 29.2001 61.1681 27.7551 62.7325C26.3102 64.2968 25.354 66.2494 25.0041 68.35L23.0211 80.2495C22.9846 80.4646 22.9956 80.6851 23.0531 80.8956C23.1106 81.106 23.2134 81.3014 23.3542 81.4681C23.495 81.6347 23.6705 81.7687 23.8684 81.8605C24.0663 81.9524 24.2819 82 24.5001 82V101.5H27.5001V82H33.5001V101.5H36.5001V80.5C36.5001 80.1022 36.342 79.7206 36.0607 79.4393C35.7794 79.158 35.3979 79 35.0001 79H26.2716L27.9636 68.8465C28.2168 67.322 28.9101 65.9048 29.9583 64.7692C31.0064 63.6336 32.3637 62.8292 33.8631 62.455L44.8476 59.7085C45.7562 61.0317 46.9732 62.1139 48.3936 62.8615C49.8139 63.6092 51.3949 63.9999 53.0001 63.9999C54.6052 63.9999 56.1862 63.6092 57.6066 62.8615C59.0269 62.1139 60.244 61.0317 61.1526 59.7085L72.1371 62.455C73.6364 62.8292 74.9937 63.6336 76.0419 64.7692C77.09 65.9048 77.7834 67.322 78.0366 68.8465L78.9801 74.5H63.5001C63.1809 74.5 62.87 74.6018 62.6126 74.7906C62.3552 74.9795 62.1648 75.2455 62.0691 75.55L56.7726 92.5H44.0001C43.6022 92.5 43.2207 92.658 42.9394 92.9393C42.6581 93.2206 42.5001 93.6022 42.5001 94V100C42.5001 100.398 42.6581 100.779 42.9394 101.061C43.2207 101.342 43.6022 101.5 44.0001 101.5H87.5001C87.8193 101.5 88.1302 101.398 88.3875 101.209C88.6449 101.021 88.8353 100.755 88.9311 100.45L96.4311 76.45C96.502 76.225 96.5189 75.9864 96.4803 75.7537C96.4417 75.521 96.3488 75.3006 96.2091 75.1105ZM63.5001 34H56.0001C55.6022 34 55.2207 34.158 54.9394 34.4393C54.6581 34.7206 54.5001 35.1022 54.5001 35.5V37H51.5001V35.5C51.5001 35.1022 51.342 34.7206 51.0607 34.4393C50.7794 34.158 50.3979 34 50.0001 34H42.5001C42.1022 34 41.7207 34.158 41.4394 34.4393C41.1581 34.7206 41.0001 35.1022 41.0001 35.5V36.073L39.8946 35.5195C40.1174 34.2259 40.4368 32.9509 40.8501 31.705L41.7666 28.9585C41.8599 28.6789 42.039 28.4357 42.2784 28.2637C42.5177 28.0916 42.8053 27.9993 43.1001 28C44.3741 27.999 45.6198 28.3765 46.6791 29.0845C48.5618 30.3113 50.7604 30.9644 53.0076 30.9644C55.2547 30.9644 57.4534 30.3113 59.3361 29.0845C60.3911 28.3793 61.6311 28.002 62.9001 28C63.1946 27.9997 63.4818 28.0921 63.7209 28.2641C63.96 28.4361 64.1388 28.6791 64.2321 28.9585L65.1471 31.705C65.5588 32.951 65.8766 34.2261 66.0981 35.5195L65.0001 36.073V35.5C65.0001 35.1022 64.842 34.7206 64.5607 34.4393C64.2794 34.158 63.8979 34 63.5001 34ZM62.0001 37V40H57.5001V37H62.0001ZM48.5001 37V40H44.0001V37H48.5001ZM69.3501 44.5H68.8671C69.2852 43.0365 69.4983 41.5221 69.5001 40C69.5001 39.502 69.4656 39.0055 69.4401 38.509C69.847 38.4937 70.2529 38.5614 70.6329 38.708C71.0128 38.8545 71.359 39.077 71.6502 39.3617C71.9414 39.6464 72.1716 39.9874 72.3268 40.364C72.4819 40.7405 72.5588 41.1447 72.5527 41.5519C72.5466 41.9592 72.4576 42.3609 72.2912 42.7326C72.1248 43.1043 71.8844 43.4383 71.5848 43.7141C71.2852 43.9899 70.9325 44.2019 70.5483 44.337C70.1641 44.4721 69.7564 44.5275 69.3501 44.5ZM35.2701 33.4C34.8533 31.7375 34.9199 29.9905 35.4621 28.3645C36.1519 26.3006 36.5024 24.1386 36.5001 21.9625C36.4943 20.5175 36.9193 19.1036 37.7208 17.9013C38.5224 16.6991 39.664 15.7629 41.0001 15.2125V17.5C40.9997 17.8382 41.1137 18.1666 41.3235 18.4318C41.5333 18.6971 41.8265 18.8837 42.1557 18.9613C42.4848 19.039 42.8306 19.0031 43.1368 18.8596C43.443 18.716 43.6917 18.4732 43.8426 18.1705C44.6045 16.633 45.6842 15.2748 47.0102 14.1856C48.3362 13.0965 49.8783 12.3012 51.5346 11.8525C51.6511 13.0139 52.0604 14.1267 52.7241 15.0869C53.3879 16.047 54.2843 16.8231 55.3296 17.3425C55.5583 17.4568 55.8125 17.5107 56.0679 17.4992C56.3234 17.4876 56.5716 17.4109 56.7891 17.2764C57.0066 17.1419 57.1861 16.954 57.3105 16.7306C57.4349 16.5072 57.5002 16.2557 57.5001 16V14.989L60.1416 15.739C61.6949 16.1859 63.1038 17.0325 64.2275 18.1944C65.3512 19.3562 66.1503 20.7926 66.5451 22.36C66.6063 22.6048 66.7283 22.8302 66.8998 23.0153C67.0713 23.2004 67.2867 23.3392 67.5261 23.419C68.539 23.7554 69.42 24.4027 70.0437 25.2688C70.6674 26.1349 71.0021 27.1757 71.0001 28.243C70.9953 30.7127 70.7135 33.1741 70.1601 35.581C69.8922 35.5359 69.6216 35.5088 69.3501 35.5H69.1521C68.9011 33.8891 68.5157 32.3021 68.0001 30.7555L67.0851 28.009C66.7926 27.131 66.2307 26.3677 65.4794 25.8274C64.728 25.2872 63.8255 24.9977 62.9001 25C61.0312 24.9971 59.2038 25.55 57.6501 26.5885C56.2623 27.4916 54.6423 27.9723 52.9866 27.9723C51.3309 27.9723 49.7108 27.4916 48.3231 26.5885C46.777 25.5551 44.9597 25.0024 43.1001 25C42.176 24.9993 41.2751 25.2895 40.5252 25.8296C39.7754 26.3697 39.2146 27.1323 38.9226 28.009L38.0001 30.757C37.4869 32.3034 37.1036 33.8899 36.8541 35.5H36.5001C36.2699 35.51 36.0406 35.533 35.8131 35.569L35.2701 33.4ZM36.5001 44.5C35.7044 44.5 34.9414 44.1839 34.3787 43.6213C33.8161 43.0587 33.5001 42.2956 33.5001 41.5C33.5001 40.7043 33.8161 39.9413 34.3787 39.3787C34.9414 38.8161 35.7044 38.5 36.5001 38.5H36.5601C36.5346 38.9995 36.5001 39.499 36.5001 40C36.5038 41.5223 36.7189 43.0368 37.1391 44.5H36.5001ZM39.5001 40C39.5001 39.5665 39.5301 39.1345 39.5526 38.7025L41.0001 39.427V41.5C41.0001 41.8978 41.1581 42.2794 41.4394 42.5607C41.7207 42.842 42.1022 43 42.5001 43H50.0001C50.3979 43 50.7794 42.842 51.0607 42.5607C51.342 42.2794 51.5001 41.8978 51.5001 41.5V40H54.5001V41.5C54.5001 41.8978 54.6581 42.2794 54.9394 42.5607C55.2207 42.842 55.6022 43 56.0001 43H63.5001C63.8979 43 64.2794 42.842 64.5607 42.5607C64.842 42.2794 65.0001 41.8978 65.0001 41.5V39.427L66.4476 38.7025C66.4701 39.1345 66.5001 39.5665 66.5001 40C66.5001 43.5804 65.0777 47.0142 62.546 49.5459C60.0143 52.0777 56.5805 53.5 53.0001 53.5C49.4196 53.5 45.9859 52.0777 43.4541 49.5459C40.9224 47.0142 39.5001 43.5804 39.5001 40ZM58.7481 57.9235C58.1173 58.8699 57.2626 59.646 56.2599 60.1827C55.2572 60.7195 54.1374 61.0003 53.0001 61.0003C51.8627 61.0003 50.743 60.7195 49.7402 60.1827C48.7375 59.646 47.8828 58.8699 47.2521 57.9235L47.0001 57.55V55.354C50.8541 56.882 55.146 56.882 59.0001 55.354V57.55L58.7481 57.9235ZM54.8976 98.5H45.5001V95.5H55.8351L54.8976 98.5ZM86.3976 98.5H58.0401L64.6026 77.5H92.9601L86.3976 98.5Z" fill="black"/>
<path d="M75.5 92.5C76.39 92.5 77.26 92.2361 78.0001 91.7416C78.7401 91.2471 79.3169 90.5443 79.6575 89.7221C79.998 88.8998 80.0872 87.995 79.9135 87.1221C79.7399 86.2492 79.3113 85.4474 78.682 84.818C78.0526 84.1887 77.2508 83.7601 76.3779 83.5865C75.505 83.4128 74.6002 83.502 73.7779 83.8425C72.9557 84.1831 72.2529 84.7599 71.7584 85.4999C71.2639 86.24 71 87.11 71 88C71 89.1935 71.4741 90.3381 72.318 91.182C73.1619 92.0259 74.3065 92.5 75.5 92.5ZM75.5 86.5C75.7967 86.5 76.0867 86.588 76.3334 86.7528C76.58 86.9176 76.7723 87.1519 76.8858 87.426C76.9993 87.7001 77.0291 88.0017 76.9712 88.2926C76.9133 88.5836 76.7704 88.8509 76.5607 89.0607C76.3509 89.2704 76.0836 89.4133 75.7926 89.4712C75.5017 89.5291 75.2001 89.4993 74.926 89.3858C74.6519 89.2723 74.4176 89.08 74.2528 88.8334C74.088 88.5867 74 88.2967 74 88C74 87.6022 74.158 87.2206 74.4393 86.9393C74.7206 86.658 75.1022 86.5 75.5 86.5Z" fill="black"/>
</svg>
